{"glyphs":{"0":{"ha":694,"x_min":57,"x_max":666,"o":"m 57 307 q 103 626 57 463 q 238 870 150 788 q 431 952 326 952 q 553 916 500 952 q 636 813 607 880 q 666 628 666 746 q 616 297 666 454 q 481 60 566 141 q 291 -22 397 -22 q 121 61 185 -22 q 57 307 57 143 m 160 237 q 173 126 160 178 q 220 47 186 75 q 300 20 254 20 q 400 62 356 20 q 481 204 444 104 q 540 451 519 304 q 561 705 561 597 q 546 819 561 776 q 497 887 530 862 q 423 911 464 911 q 298 845 354 911 q 201 576 241 778 q 160 237 160 374 z "},"1":{"ha":694,"x_min":89,"x_max":561,"o":"m 94 -5 l 89 0 l 92 29 l 98 35 q 147 40 115 37 q 214 48 191 42 q 260 84 248 57 q 284 179 272 111 l 397 861 q 139 749 291 821 l 130 755 l 144 836 q 369 899 220 850 q 509 957 424 918 l 529 941 q 463 605 498 808 l 425 384 q 396 205 406 276 q 382 93 382 102 q 405 53 382 63 q 503 38 427 43 q 557 34 541 36 l 561 28 l 559 0 l 553 -5 q 309 0 431 0 q 94 -5 157 0 z "},"2":{"ha":694,"x_min":3,"x_max":589,"o":"m 8 -5 l 3 0 l 5 21 q 385 461 297 325 q 472 708 472 598 q 455 783 472 745 q 400 839 438 820 q 319 859 361 859 q 123 718 201 859 l 116 715 l 96 724 l 94 732 l 174 888 q 357 947 256 947 q 523 889 457 947 q 589 731 589 832 q 563 604 589 665 q 484 473 538 542 q 296 267 430 405 l 198 166 q 134 97 141 104 l 136 88 l 408 88 q 573 100 507 88 l 582 91 l 559 0 l 553 -5 q 289 2 401 2 l 113 -2 q 8 -5 35 -3 z "},"3":{"ha":694,"x_min":4,"x_max":588,"o":"m 4 38 l 41 227 l 47 232 l 70 229 l 74 222 q 69 163 69 186 q 116 61 69 98 q 235 23 163 23 q 363 64 309 23 q 444 174 418 105 q 470 311 470 243 q 448 404 470 362 q 381 467 425 446 q 285 488 337 488 q 175 471 244 488 l 170 476 l 193 541 q 258 537 246 537 q 360 563 309 537 q 439 636 410 588 q 468 737 468 684 q 433 828 468 792 q 335 864 399 864 q 240 841 276 864 q 157 755 205 817 l 149 753 l 132 765 l 131 773 l 210 905 q 371 947 280 947 q 522 897 467 947 q 576 766 576 846 q 538 646 576 702 q 381 530 500 590 l 381 527 q 530 463 471 514 q 588 313 588 412 q 541 148 588 225 q 402 23 494 71 q 206 -25 311 -25 q 4 38 97 -25 z "},"4":{"ha":694,"x_min":-1,"x_max":645,"o":"m 138 -5 l 132 0 l 136 30 l 142 35 q 283 47 256 41 q 311 68 301 51 q 335 160 320 85 l 355 263 l 94 262 q 5 261 67 263 l -1 267 l 2 300 q 251 650 83 424 q 471 935 405 855 q 564 957 555 954 l 575 950 l 557 858 q 534 734 547 807 l 464 339 q 639 344 605 339 l 645 335 l 624 264 l 617 258 q 521 261 585 261 q 451 262 477 261 l 436 169 q 427 84 427 110 q 465 44 427 50 q 534 38 480 41 q 586 33 559 37 l 590 28 l 587 0 l 581 -5 q 360 0 499 0 q 138 -5 291 0 m 369 339 l 458 842 l 453 843 q 246 564 372 733 q 96 348 186 477 l 100 342 q 245 338 154 338 l 369 339 z "},"5":{"ha":694,"x_min":7,"x_max":663,"o":"m 7 46 q 45 229 20 98 l 52 234 l 75 230 l 79 224 q 75 184 75 205 q 124 62 75 100 q 245 24 174 24 q 372 66 317 24 q 453 187 426 109 q 481 336 481 266 q 469 409 481 374 q 437 467 458 444 q 382 503 416 490 q 312 517 349 517 q 248 507 279 517 q 197 482 217 496 q 144 436 176 467 l 115 450 q 203 922 155 625 l 214 930 q 477 920 368 920 q 654 925 565 920 l 663 913 l 614 833 q 437 827 538 827 q 245 832 335 827 l 176 515 q 363 578 257 578 q 486 551 430 578 q 570 473 542 524 q 598 353 598 422 q 567 203 598 279 q 485 83 535 128 q 369 6 435 38 q 220 -25 302 -25 q 7 46 92 -25 z "},"6":{"ha":694,"x_min":55,"x_max":633,"o":"m 611 855 l 600 854 q 515 878 559 878 q 309 765 397 878 q 172 417 221 651 q 286 525 228 489 q 413 561 345 561 q 512 537 468 561 q 581 466 557 513 q 605 353 605 418 q 584 224 605 287 q 532 121 563 161 q 448 44 502 81 q 355 -9 393 7 q 272 -25 317 -25 q 115 45 174 -25 q 55 253 55 116 q 98 515 55 379 q 228 754 141 650 q 398 902 314 857 q 564 947 483 947 q 633 934 596 947 l 611 855 m 160 226 q 204 85 160 132 q 311 39 248 39 q 413 79 369 39 q 479 185 457 118 q 500 314 500 252 q 460 439 500 394 q 357 485 419 485 q 253 450 302 485 q 182 356 204 414 q 160 226 160 298 z "},"7":{"ha":694,"x_min":59,"x_max":679,"o":"m 67 -5 l 59 9 q 134 126 92 62 q 338 439 176 189 l 527 734 q 582 827 553 778 l 256 827 q 111 820 210 827 l 103 827 q 122 929 117 884 l 127 935 q 312 927 174 930 q 530 924 450 924 q 672 927 589 924 l 678 922 l 679 879 q 428 478 595 761 q 182 1 260 196 l 174 -5 q 125 -1 154 -1 q 67 -5 96 -1 z "},"8":{"ha":694,"x_min":36,"x_max":633,"o":"m 286 475 q 181 556 214 511 q 149 663 149 602 q 245 859 149 771 q 454 946 342 946 q 585 898 537 946 q 633 778 633 850 q 591 646 633 707 q 427 509 549 585 q 547 419 514 467 q 580 300 580 372 q 557 175 580 236 q 487 71 534 115 q 376 2 439 26 q 250 -23 314 -23 q 142 -2 191 -23 q 64 67 93 18 q 36 174 36 115 q 93 333 36 258 q 286 475 151 408 m 387 530 q 464 588 430 556 q 518 666 497 621 q 540 753 540 711 q 503 852 540 816 q 406 888 465 888 q 324 866 363 888 q 262 803 285 844 q 239 711 239 763 q 275 607 239 648 q 387 530 311 567 m 324 453 q 188 347 239 416 q 136 195 136 277 q 179 78 136 121 q 288 34 222 34 q 425 100 374 34 q 477 256 477 167 q 445 363 477 320 q 324 453 413 406 z "},"9":{"ha":694,"x_min":31,"x_max":631,"o":"m 73 3 q 45 98 63 44 q 31 140 33 132 l 35 146 l 54 153 l 60 150 q 133 65 96 86 q 217 45 170 45 q 406 167 332 45 q 515 503 479 289 q 415 406 471 444 q 290 368 359 368 q 181 396 230 368 q 107 477 132 424 q 83 595 83 531 q 103 714 83 654 q 162 819 123 774 q 271 906 201 865 q 415 948 341 948 q 532 913 483 948 q 606 817 581 878 q 631 656 631 755 q 611 457 631 549 q 546 269 592 366 q 437 107 500 172 q 310 10 374 43 q 181 -22 245 -22 q 73 3 119 -22 m 189 635 q 206 536 189 581 q 258 467 222 490 q 339 444 294 444 q 470 505 414 444 q 526 686 526 566 q 483 834 526 783 q 373 886 440 886 q 242 814 294 886 q 189 635 189 743 z "},"A":{"ha":1003,"x_min":-14,"x_max":947,"o":"m -9 -5 l -14 0 l -9 30 l -3 35 l 36 41 q 59 47 53 43 q 72 58 65 50 q 102 102 79 66 q 165 199 126 137 l 180 220 l 649 963 l 713 963 l 827 144 q 844 61 836 75 q 866 43 851 47 q 943 35 881 40 l 947 29 l 942 0 l 936 -5 q 772 0 841 0 q 610 -5 726 0 l 606 0 l 610 29 l 616 35 q 712 45 701 38 q 724 74 724 52 q 715 178 724 79 l 688 379 l 350 379 l 254 220 q 211 144 241 198 q 177 80 182 91 q 173 62 173 68 q 186 44 173 50 q 286 35 199 39 l 290 30 l 285 0 l 279 -5 q 131 0 200 0 q -9 -5 74 0 m 384 432 l 682 432 l 631 826 l 384 432 m 684 1002 m 464 -74 z "},"B":{"ha":848,"x_min":50,"x_max":777,"o":"m 55 -5 l 50 0 l 53 29 l 58 35 q 102 45 96 41 q 116 58 109 48 q 132 101 123 67 q 176 328 140 135 l 218 560 l 242 709 q 264 881 264 860 q 257 905 264 899 q 229 914 250 911 q 155 918 208 916 l 151 924 l 154 953 l 161 958 q 343 953 222 953 l 514 956 q 716 908 656 956 q 777 774 777 861 q 759 684 777 726 q 702 603 740 641 q 624 545 663 566 q 528 503 585 524 q 661 472 619 489 q 730 413 703 455 q 757 312 757 370 q 734 208 757 260 q 671 117 712 157 q 571 44 631 77 q 473 3 511 12 q 366 -5 435 -5 q 231 -2 319 -5 q 143 0 172 0 q 55 -5 98 0 m 314 520 q 387 517 360 517 q 497 531 454 517 q 579 575 541 544 q 640 654 617 606 q 662 755 662 701 q 613 869 662 833 q 481 906 565 906 q 383 897 435 906 q 314 520 342 708 m 241 64 q 394 47 306 47 q 524 75 473 47 q 604 163 575 103 q 633 294 633 224 q 612 390 633 350 q 543 449 590 429 q 397 469 496 469 q 304 464 351 469 l 286 353 l 258 183 q 241 64 245 105 z "},"C":{"ha":926,"x_min":81,"x_max":919,"o":"m 834 141 l 841 121 l 821 72 q 495 -28 680 -28 q 266 23 359 -28 q 126 167 172 74 q 81 388 81 260 q 110 586 81 494 q 192 745 139 677 q 317 865 244 813 q 464 945 390 918 q 636 973 538 973 q 916 920 789 973 l 919 913 q 885 722 899 854 l 880 717 l 851 717 l 846 722 q 844 828 846 812 q 600 901 759 901 q 476 886 536 901 q 369 834 416 870 q 287 738 323 799 q 227 596 250 677 q 204 415 204 515 q 295 138 204 231 q 539 45 385 45 q 834 141 690 45 z "},"D":{"ha":1080,"x_min":50,"x_max":1034,"o":"m 55 -5 l 50 0 l 53 29 l 58 35 q 102 45 96 41 q 116 58 109 48 q 132 101 123 67 q 176 328 140 135 l 218 560 l 242 709 q 264 881 264 860 q 257 905 264 899 q 229 914 250 911 q 155 918 208 916 l 151 924 l 154 953 l 161 958 q 332 954 226 954 l 590 958 q 786 941 713 958 q 915 882 859 924 q 1003 768 971 841 q 1034 596 1034 694 q 1007 417 1034 504 q 928 253 981 330 q 807 122 876 176 q 683 42 739 67 q 563 6 628 18 q 411 -6 498 -6 q 277 -3 351 -6 q 154 0 214 0 q 55 -5 98 0 m 248 76 q 486 54 371 54 q 661 94 588 54 q 790 206 734 133 q 878 382 846 279 q 909 582 909 486 q 890 710 909 649 q 824 819 872 770 q 701 884 776 868 q 532 900 625 900 q 385 892 458 900 l 335 623 l 277 286 q 248 76 253 144 z "},"E":{"ha":848,"x_min":49,"x_max":789,"o":"m 54 -5 l 49 0 l 51 29 l 58 35 q 113 44 104 40 q 121 52 117 47 q 140 101 131 65 q 191 370 148 133 l 245 678 q 275 886 275 854 q 269 905 275 899 q 239 913 262 911 q 165 918 215 916 l 161 924 l 165 953 l 171 958 q 312 953 237 953 q 784 958 669 953 l 789 953 q 777 869 787 937 l 764 751 l 759 745 l 735 745 l 730 751 q 721 865 723 854 q 708 883 718 876 q 642 895 699 890 q 526 900 585 900 q 395 894 446 900 q 325 521 368 777 q 446 519 393 519 q 671 528 538 519 l 676 521 l 650 456 q 408 464 492 464 q 315 463 376 464 l 273 215 q 250 64 255 108 q 432 56 344 56 q 578 60 518 56 q 651 71 638 65 q 672 91 664 77 q 693 157 680 104 q 710 216 703 193 l 716 221 l 745 221 l 749 216 q 729 110 740 186 q 717 1 719 33 l 708 -5 l 236 0 q 54 -5 118 0 m 493 1002 m 429 -74 z "},"F":{"ha":772,"x_min":15,"x_max":764,"o":"m 20 -5 l 15 0 l 17 29 l 24 35 q 116 56 105 36 q 163 269 127 75 l 208 510 l 248 745 q 266 885 266 852 q 254 907 266 897 q 157 918 241 917 l 152 924 l 155 953 l 161 958 q 212 957 179 958 l 344 953 l 757 958 l 764 952 q 741 749 747 858 l 736 744 l 710 744 l 705 749 q 689 874 705 850 q 481 899 674 899 q 382 895 431 899 q 346 711 366 832 l 306 473 l 459 471 q 658 484 527 471 l 665 476 l 636 407 q 413 414 453 414 q 296 411 354 414 q 246 86 246 125 q 259 49 242 57 q 376 33 277 41 l 381 28 l 378 0 l 372 -5 q 170 0 232 0 q 20 -5 103 0 z "},"G":{"ha":1003,"x_min":81,"x_max":969,"o":"m 857 59 l 850 49 q 766 26 827 47 q 623 -17 673 -5 q 507 -28 572 -28 q 268 22 364 -28 q 127 162 172 71 q 81 369 81 253 q 125 615 81 498 q 258 814 170 732 q 444 934 346 895 q 660 973 542 973 q 937 920 804 973 l 939 912 q 900 720 915 839 l 895 714 l 866 714 l 861 720 q 856 836 861 769 q 751 884 820 866 q 612 903 683 903 q 403 848 495 903 q 258 669 311 793 q 205 401 205 546 q 224 249 205 320 q 295 126 244 178 q 410 55 345 75 q 550 36 474 36 q 739 80 662 36 l 764 213 q 774 290 774 271 q 764 317 774 308 q 710 329 753 326 l 618 336 l 612 342 l 616 372 l 623 377 l 647 376 q 802 372 766 372 q 964 374 878 372 l 969 369 l 966 342 l 961 336 q 908 324 919 329 q 892 312 897 319 q 880 271 888 304 l 872 232 q 859 155 867 205 q 852 81 852 104 q 857 59 852 71 z "},"H":{"ha":1080,"x_min":13,"x_max":1112,"o":"m 315 532 l 638 529 q 827 532 745 529 q 882 885 882 831 q 869 907 882 897 q 772 918 857 917 l 768 924 l 771 953 l 778 958 l 967 953 q 1106 958 1031 953 l 1112 953 l 1109 924 l 1103 918 q 1030 913 1048 916 q 1006 893 1013 910 q 975 752 1000 876 q 930 512 949 627 l 884 241 q 859 64 859 91 q 873 45 859 52 q 970 35 887 38 l 974 29 l 970 0 l 964 -5 l 787 0 q 635 -5 715 0 l 631 0 l 633 29 l 640 35 q 724 47 674 35 q 746 97 736 57 q 781 279 755 136 l 817 473 l 548 475 q 367 472 523 475 l 304 471 q 241 65 241 108 q 255 45 241 53 q 352 35 269 38 l 356 29 l 353 0 l 347 -5 l 168 0 q 18 -5 98 0 l 13 0 l 15 29 l 22 35 q 96 42 80 38 q 122 76 112 45 q 161 269 132 107 l 205 511 l 245 746 q 264 884 264 854 q 252 907 264 898 q 155 918 239 916 l 150 924 l 153 953 l 159 958 l 349 953 q 488 958 413 953 l 493 953 l 491 924 l 485 918 q 403 909 418 916 q 380 863 388 902 l 355 745 q 315 532 349 714 z "},"I":{"ha":463,"x_min":13,"x_max":493,"o":"m 356 29 l 353 0 l 347 -5 q 303 -4 344 -5 q 168 0 197 0 q 18 -5 98 0 l 13 0 l 15 29 l 22 35 q 94 41 82 38 q 104 46 101 43 q 111 54 108 49 q 126 90 119 66 q 161 269 134 118 l 205 510 l 245 745 q 264 885 264 860 q 249 909 264 903 q 155 918 233 915 l 150 924 l 153 953 l 159 958 q 210 957 163 958 q 349 953 317 953 q 488 958 414 953 l 493 953 l 491 924 l 485 918 q 404 910 414 914 q 393 902 398 907 q 383 877 389 897 q 328 604 366 813 l 273 285 q 241 65 241 91 q 248 48 241 54 q 281 39 255 42 q 352 35 307 37 l 356 29 m 330 1002 m 171 -74 z "},"J":{"ha":463,"x_min":-46,"x_max":489,"o":"m 140 918 l 136 924 l 139 953 l 145 958 q 205 957 163 958 l 345 953 q 484 958 406 953 l 489 953 l 487 924 l 481 918 q 391 906 401 915 q 357 766 382 898 q 313 514 332 633 l 242 53 q 146 -210 214 -130 q 9 -289 79 -289 q -43 -276 -14 -289 l -46 -246 l -41 -240 q -7 -247 -24 -247 q 80 -181 51 -247 q 151 159 110 -115 l 245 772 q 260 885 260 865 q 242 908 260 900 q 140 918 224 917 z "},"K":{"ha":926,"x_min":31,"x_max":945,"o":"m 172 953 l 178 958 l 368 953 q 507 958 432 953 l 511 953 l 509 924 l 503 918 q 422 910 434 914 q 401 876 410 906 q 364 697 391 846 l 326 485 q 565 701 429 562 l 728 867 q 758 905 753 893 q 763 953 762 918 l 768 958 q 858 954 814 954 q 940 958 890 954 l 945 953 l 943 924 l 937 918 q 877 908 896 918 q 810 854 857 899 l 439 505 l 741 133 q 813 55 793 70 q 890 35 834 41 l 895 30 l 892 0 l 886 -5 q 795 0 836 0 q 705 -5 770 0 q 323 468 545 226 q 260 65 260 108 q 274 45 260 53 q 370 35 288 38 l 374 29 l 371 0 l 365 -5 l 186 0 q 36 -5 117 0 l 31 0 l 33 29 l 40 35 q 133 56 121 36 q 180 269 144 75 l 224 510 l 264 745 q 282 885 282 852 q 270 907 282 897 q 173 918 258 917 l 168 924 l 172 953 z "},"L":{"ha":772,"x_min":33,"x_max":721,"o":"m 38 -5 l 33 0 l 36 29 l 41 35 q 85 45 79 41 q 99 58 92 48 q 115 101 106 67 q 159 328 123 135 l 201 560 l 225 709 q 248 881 248 860 q 240 905 248 899 q 212 914 233 911 q 138 918 191 916 l 134 924 l 137 953 l 144 958 q 346 953 227 953 q 486 958 435 953 l 492 953 l 488 924 l 483 918 q 392 908 400 911 q 378 900 383 905 q 370 884 373 895 q 330 693 359 857 l 248 215 q 230 60 232 112 q 371 52 306 52 q 508 55 457 52 q 589 62 559 57 q 626 73 618 68 q 638 87 633 78 q 655 134 644 96 l 680 222 l 686 227 l 715 227 l 721 221 q 689 1 695 62 l 683 -5 l 444 -2 l 131 0 q 38 -5 84 0 z "},"M":{"ha":1311,"x_min":-22,"x_max":1297,"o":"m -16 -5 l -22 0 l -19 29 l -13 35 q 57 47 45 41 q 69 56 64 50 q 102 136 82 73 q 189 420 146 268 l 273 724 q 304 861 304 838 q 280 902 304 888 q 176 918 255 916 l 170 924 l 173 953 l 179 958 q 303 955 248 955 q 406 958 357 955 l 613 158 l 932 710 q 1066 958 992 814 q 1181 953 1147 953 q 1293 958 1220 953 l 1297 953 l 1295 924 l 1289 918 l 1245 913 q 1201 904 1211 909 q 1187 887 1192 898 q 1178 842 1182 877 q 1164 715 1173 807 q 1150 556 1155 623 l 1131 283 q 1120 100 1120 140 q 1140 49 1120 60 q 1239 35 1160 39 l 1245 28 l 1242 0 l 1236 -5 q 1064 1 1171 1 q 881 -5 972 1 l 876 0 l 878 29 l 884 35 q 994 53 977 35 q 1018 173 1010 71 l 1063 804 q 871 485 1028 753 q 635 66 715 216 l 585 -26 l 554 -26 l 348 766 q 168 77 168 145 q 177 51 168 60 q 203 40 185 43 q 283 35 221 37 l 288 29 l 286 0 l 279 -5 l 255 -4 q 116 0 163 0 q -16 -5 73 0 z "},"N":{"ha":1080,"x_min":9,"x_max":1110,"o":"m 14 -5 l 9 0 l 12 30 l 18 35 q 93 47 77 38 q 124 109 109 56 q 195 463 140 161 l 260 846 q 204 904 231 892 q 110 918 176 916 l 106 924 l 108 953 l 114 958 q 235 954 163 954 q 332 958 284 954 q 375 878 338 944 l 425 789 l 804 144 l 909 770 l 920 852 q 923 878 923 873 q 910 904 923 897 q 848 916 898 911 l 814 918 l 809 924 l 812 953 l 817 958 q 962 956 864 956 q 1105 958 1064 956 l 1110 953 l 1108 924 l 1103 918 q 1011 899 1019 913 q 969 718 1002 884 l 920 470 l 876 212 q 842 -18 857 106 l 773 -18 q 737 50 766 -4 l 694 125 l 309 781 l 241 414 l 215 241 q 195 84 195 112 q 212 46 195 56 q 286 36 228 37 q 311 35 296 36 l 315 30 l 313 1 l 307 -5 q 159 0 234 0 q 14 -5 100 0 z "},"O":{"ha":1080,"x_min":81,"x_max":1039,"o":"m 81 368 q 109 569 81 464 q 209 771 136 674 q 391 922 281 867 q 642 977 500 977 q 850 936 763 977 q 988 811 938 896 q 1039 595 1039 726 q 955 266 1039 419 q 741 42 871 113 q 465 -28 612 -28 q 313 -4 385 -28 q 187 72 241 19 q 107 202 133 125 q 81 368 81 279 m 203 375 q 234 191 203 267 q 337 73 266 115 q 511 32 409 32 q 726 97 638 32 q 866 303 814 161 q 917 585 917 445 q 899 723 917 663 q 840 829 882 782 q 738 899 799 876 q 605 922 677 922 q 397 863 486 922 q 256 667 309 804 q 203 375 203 531 m 622 1002 m 463 -74 z "},"P":{"ha":848,"x_min":22,"x_max":821,"o":"m 27 -5 l 22 0 l 24 29 l 31 35 q 104 41 92 38 q 114 46 111 43 q 121 54 117 49 q 136 90 129 66 q 171 269 143 118 l 215 510 l 255 745 q 273 885 273 860 q 258 909 273 903 q 164 918 243 915 l 159 924 l 163 953 l 169 958 q 331 953 222 953 q 460 955 395 953 q 575 958 547 958 q 769 898 716 958 q 821 753 821 838 q 783 592 821 675 q 668 455 745 510 q 496 399 591 399 q 373 432 431 399 l 373 464 l 380 469 q 475 447 425 447 q 588 481 536 447 q 669 580 640 516 q 699 717 699 644 q 647 862 699 818 q 500 906 594 906 q 395 894 456 906 q 373 781 392 876 q 342 610 361 719 l 313 452 q 288 305 303 402 l 264 163 q 256 104 257 117 q 255 85 255 92 q 273 48 255 58 q 380 35 291 39 l 385 29 l 380 0 l 374 -5 q 195 0 302 0 q 27 -5 110 0 z "},"Q":{"ha":1080,"x_min":81,"x_max":1039,"o":"m 958 -83 l 980 -83 l 986 -89 q 939 -226 980 -174 q 832 -278 898 -278 q 768 -269 801 -278 q 695 -242 734 -260 q 572 -180 655 -224 q 403 -95 442 -111 q 332 -79 364 -79 q 271 -94 295 -79 q 233 -141 248 -109 q 218 -218 218 -174 l 218 -227 l 212 -233 l 189 -220 l 185 -213 q 184 -195 184 -201 q 229 -72 184 -124 q 351 -19 273 -19 q 376 -20 359 -19 q 157 107 232 5 q 81 368 81 209 q 147 669 81 528 q 340 893 212 810 q 642 977 468 977 q 850 936 763 977 q 988 811 938 896 q 1039 595 1039 726 q 955 266 1039 419 q 741 42 871 113 q 466 -28 612 -28 q 404 -24 435 -28 q 481 -54 431 -31 q 720 -154 619 -115 q 863 -193 821 -193 q 904 -183 888 -193 q 931 -152 919 -173 q 951 -89 944 -132 l 958 -83 m 203 375 q 234 191 203 267 q 337 73 266 115 q 511 32 409 32 q 726 97 638 32 q 866 303 814 161 q 917 585 917 445 q 899 723 917 663 q 840 829 882 782 q 738 899 799 876 q 605 922 677 922 q 397 863 486 922 q 256 667 309 804 q 203 375 203 531 z "},"R":{"ha":926,"x_min":22,"x_max":886,"o":"m 395 894 l 313 452 l 264 163 q 255 85 255 104 q 303 39 255 48 q 380 35 305 39 l 385 29 l 380 0 l 374 -5 q 195 0 302 0 q 27 -5 110 0 l 22 0 l 24 29 l 31 35 q 124 56 113 36 q 171 269 135 75 l 215 510 l 255 745 q 273 885 273 852 q 261 907 273 897 q 164 918 249 917 l 159 924 l 163 953 l 169 958 q 331 953 222 953 l 556 958 q 749 906 689 958 q 809 773 809 855 q 735 596 809 673 q 522 488 661 519 q 558 431 532 473 q 699 216 602 358 q 821 54 795 74 q 882 35 847 35 l 886 29 l 884 0 l 878 -5 q 795 -1 821 -1 q 703 -5 791 -1 q 648 85 701 -3 l 605 157 q 547 249 585 192 l 412 452 l 372 506 l 379 522 l 435 519 q 621 590 553 519 q 689 751 689 661 q 500 906 689 906 q 395 894 454 906 z "},"S":{"ha":772,"x_min":73,"x_max":707,"o":"m 73 31 q 106 229 96 121 l 113 235 l 141 235 l 146 230 l 149 100 q 244 48 199 60 q 331 37 290 37 q 513 107 452 37 q 573 265 573 176 q 555 342 573 311 q 506 390 536 374 q 395 424 476 406 q 256 468 301 445 q 187 537 212 491 q 163 648 163 583 q 216 819 163 745 q 352 933 270 893 q 535 972 434 972 q 705 930 634 972 l 707 922 q 677 745 691 856 l 671 740 l 642 740 l 636 745 l 636 845 q 479 907 583 907 q 367 881 417 907 q 290 805 317 855 q 262 696 262 755 q 282 609 262 644 q 339 558 303 574 q 463 522 376 542 q 565 494 535 505 q 624 459 595 484 q 667 399 652 434 q 682 317 682 364 q 622 142 682 220 q 480 17 563 64 q 281 -29 397 -29 q 75 23 171 -29 l 73 31 z "},"T":{"ha":849,"x_min":106,"x_max":908,"o":"m 187 -5 l 182 0 l 185 30 l 191 35 q 287 46 272 41 q 306 59 301 52 q 317 87 311 66 q 352 251 323 109 q 410 575 380 393 q 455 893 440 756 q 202 882 231 893 q 145 736 174 871 l 139 730 l 112 730 l 106 736 q 129 951 127 908 l 136 958 l 185 955 q 231 954 196 954 l 515 948 l 856 954 q 902 958 862 954 l 908 951 q 873 736 890 885 l 866 730 l 839 730 l 833 736 q 836 819 834 748 q 824 879 835 864 q 571 893 813 893 q 542 737 564 864 l 497 486 q 463 274 489 440 q 437 75 437 108 q 450 47 437 56 q 564 35 464 39 l 569 29 l 566 0 l 560 -5 q 376 0 446 0 q 187 -5 275 0 z "},"U":{"ha":1080,"x_min":132,"x_max":1109,"o":"m 982 28 l 977 0 l 971 -5 q 833 0 909 0 q 736 -5 781 0 l 731 0 l 765 168 q 605 35 703 94 q 392 -24 508 -24 q 258 4 317 -24 q 170 82 198 33 q 142 190 142 132 q 152 294 142 229 q 185 487 162 359 q 246 876 246 820 q 234 905 246 898 q 203 915 222 912 q 137 919 184 917 l 132 924 l 134 953 l 140 958 q 256 955 216 955 q 381 958 310 955 l 351 810 q 317 628 337 743 l 281 431 q 260 304 267 349 q 253 242 254 260 q 252 208 252 224 q 310 92 252 130 q 446 53 368 53 q 608 99 519 53 q 779 244 696 145 l 855 714 q 878 881 878 851 q 862 909 878 903 q 763 919 846 915 l 758 924 l 760 953 l 766 958 q 950 954 847 954 q 1104 958 1024 954 l 1109 953 l 1106 924 l 1100 919 q 1021 911 1032 916 q 1009 901 1015 908 q 996 868 1003 895 q 943 608 979 805 l 890 290 q 858 69 858 90 q 864 48 858 54 q 899 39 871 42 q 977 34 927 35 l 982 28 m 595 1002 m 435 -74 z "},"V":{"ha":913,"x_min":75,"x_max":1013,"o":"m 313 -11 q 283 222 308 43 l 205 754 q 179 898 187 878 q 80 918 172 918 l 75 924 l 78 953 l 83 958 q 235 954 152 954 q 415 958 315 954 l 420 953 l 418 923 l 412 918 l 367 918 q 318 910 332 917 q 304 878 304 903 q 316 710 304 825 q 401 140 328 595 q 734 695 633 517 q 835 892 835 873 q 781 918 835 914 l 712 918 l 707 924 l 710 953 l 716 958 q 867 954 767 954 q 1008 958 960 954 l 1013 953 l 1010 924 l 1005 918 q 942 901 958 914 q 853 768 927 887 l 610 375 q 380 -11 573 315 l 313 -11 z "},"W":{"ha":1311,"x_min":71,"x_max":1410,"o":"m 762 966 q 805 788 779 887 l 969 179 q 1038 349 989 223 l 1120 554 q 1238 888 1238 854 q 1226 908 1238 899 q 1133 918 1213 917 l 1128 924 l 1132 952 l 1138 958 q 1291 954 1202 954 q 1405 958 1362 954 l 1410 953 l 1407 924 l 1401 918 q 1338 904 1350 917 q 1287 800 1325 892 l 1177 538 l 1067 266 q 966 -11 996 90 l 898 -11 l 881 75 q 856 180 875 106 l 704 753 q 553 463 679 707 l 412 190 q 321 -11 347 65 l 253 -11 q 225 334 251 95 l 184 719 q 163 872 171 841 q 143 908 155 903 q 77 918 132 913 l 71 924 l 74 953 l 80 958 q 233 955 136 955 q 387 958 332 955 l 393 952 l 390 924 l 384 918 q 299 908 315 917 q 283 854 283 899 q 326 390 283 793 l 347 189 l 544 573 q 735 966 677 831 l 762 966 z "},"X":{"ha":1002,"x_min":21,"x_max":1004,"o":"m 26 -5 l 21 0 l 23 29 l 30 35 q 90 41 76 37 q 113 53 103 45 q 157 98 123 60 q 248 203 191 135 l 474 474 l 313 775 l 278 840 q 250 887 259 876 q 231 904 241 898 q 205 912 220 910 q 128 918 191 915 l 124 924 l 126 953 l 132 958 q 300 955 182 955 q 488 958 431 955 l 492 953 l 490 924 l 484 918 l 429 917 q 393 908 402 916 q 383 888 383 901 q 392 858 383 878 q 435 773 401 838 l 543 559 l 700 756 q 782 862 767 841 q 796 892 796 882 q 786 909 796 903 q 691 918 775 915 l 686 924 l 688 953 l 694 958 q 860 956 770 956 q 999 958 933 956 l 1004 953 l 1002 924 l 996 918 q 941 912 955 916 q 913 899 928 909 q 861 848 899 889 q 781 758 823 806 l 688 648 l 572 508 l 748 189 l 787 116 q 819 65 809 77 q 837 48 828 53 q 855 41 846 43 q 932 35 864 40 l 937 29 l 935 0 l 928 -5 l 891 -4 q 747 0 790 0 q 570 -5 696 0 l 565 0 l 568 29 l 574 35 q 663 42 644 37 q 683 64 683 47 q 681 78 683 71 q 652 140 678 86 q 614 214 625 195 l 502 423 l 375 267 q 290 158 328 210 q 243 91 251 105 q 236 70 236 76 q 241 55 236 61 q 254 46 245 48 q 294 41 262 43 l 355 35 l 359 29 l 357 0 l 351 -5 q 153 0 236 0 q 26 -5 79 0 z "},"Y":{"ha":926,"x_min":101,"x_max":958,"o":"m 248 -5 l 243 0 l 246 29 l 252 35 q 341 41 331 39 q 357 48 351 43 q 369 69 362 52 q 392 161 376 85 q 414 284 408 236 q 420 349 420 332 q 362 581 420 408 q 261 812 305 753 q 165 870 218 870 q 111 857 143 870 l 104 862 l 101 884 l 105 892 q 209 968 163 928 q 273 954 245 966 q 328 907 300 941 q 389 802 357 873 q 454 621 421 731 q 505 430 486 510 q 715 780 584 615 q 958 957 847 945 l 950 859 q 867 830 908 852 q 776 757 826 808 q 663 610 726 706 q 565 436 599 514 q 519 281 532 358 q 486 71 486 90 q 496 47 486 52 q 551 39 507 42 l 605 35 l 610 29 l 607 0 l 601 -5 q 422 -1 513 -1 q 248 -5 332 -1 m 568 1002 m 415 -74 z "},"Z":{"ha":926,"x_min":47,"x_max":902,"o":"m 53 -5 l 47 0 l 50 29 l 158 163 l 742 899 l 498 899 q 246 880 305 899 q 211 743 234 845 l 205 737 l 179 737 l 174 743 q 189 952 188 835 l 197 958 q 667 952 618 952 q 897 958 818 952 l 902 953 l 900 927 l 854 873 l 239 99 l 207 57 q 502 54 489 54 q 679 59 625 54 q 770 75 734 64 q 817 223 781 92 l 825 229 l 855 229 l 859 223 q 827 0 836 92 l 820 -5 l 469 -2 q 279 0 356 0 q 53 -5 156 0 z "},"Á":{"ha":1003,"x_min":-14,"x_max":947,"o":"m -9 -5 l -14 0 l -9 30 l -3 35 l 36 41 q 59 47 53 43 q 72 58 65 50 q 102 102 79 66 q 165 199 126 137 l 180 220 l 649 963 l 713 963 l 827 144 q 844 61 836 75 q 866 43 851 47 q 943 35 881 40 l 947 29 l 942 0 l 936 -5 q 772 0 841 0 q 610 -5 726 0 l 606 0 l 610 29 l 616 35 q 712 45 701 38 q 724 74 724 52 q 715 178 724 79 l 688 379 l 350 379 l 254 220 q 211 144 241 198 q 177 80 182 91 q 173 62 173 68 q 186 44 173 50 q 286 35 199 39 l 290 30 l 285 0 l 279 -5 q 131 0 200 0 q -9 -5 74 0 m 384 432 l 682 432 l 631 826 l 384 432 m 684 1002 m 464 -74 m 910 1251 q 634 1048 825 1194 l 625 1050 l 610 1063 l 610 1072 l 783 1255 l 904 1267 l 910 1251 z "},"À":{"ha":1003,"x_min":-14,"x_max":947,"o":"m -9 -5 l -14 0 l -9 30 l -3 35 l 36 41 q 59 47 53 43 q 72 58 65 50 q 102 102 79 66 q 165 199 126 137 l 180 220 l 649 963 l 713 963 l 827 144 q 844 61 836 75 q 866 43 851 47 q 943 35 881 40 l 947 29 l 942 0 l 936 -5 q 772 0 841 0 q 610 -5 726 0 l 606 0 l 610 29 l 616 35 q 712 45 701 38 q 724 74 724 52 q 715 178 724 79 l 688 379 l 350 379 l 254 220 q 211 144 241 198 q 177 80 182 91 q 173 62 173 68 q 186 44 173 50 q 286 35 199 39 l 290 30 l 285 0 l 279 -5 q 131 0 200 0 q -9 -5 74 0 m 384 432 l 682 432 l 631 826 l 384 432 m 684 1002 m 464 -74 m 770 1067 l 747 1052 l 742 1053 l 473 1249 l 480 1267 l 598 1255 l 770 1075 l 770 1067 z "},"Â":{"ha":1003,"x_min":-14,"x_max":947,"o":"m -9 -5 l -14 0 l -9 30 l -3 35 l 36 41 q 59 47 53 43 q 72 58 65 50 q 102 102 79 66 q 165 199 126 137 l 180 220 l 649 963 l 713 963 l 827 144 q 844 61 836 75 q 866 43 851 47 q 943 35 881 40 l 947 29 l 942 0 l 936 -5 q 772 0 841 0 q 610 -5 726 0 l 606 0 l 610 29 l 616 35 q 712 45 701 38 q 724 74 724 52 q 715 178 724 79 l 688 379 l 350 379 l 254 220 q 211 144 241 198 q 177 80 182 91 q 173 62 173 68 q 186 44 173 50 q 286 35 199 39 l 290 30 l 285 0 l 279 -5 q 131 0 200 0 q -9 -5 74 0 m 384 432 l 682 432 l 631 826 l 384 432 m 684 1002 m 464 -74 m 884 1040 l 848 1040 l 721 1200 l 523 1040 l 484 1040 l 481 1046 l 697 1267 l 769 1267 l 890 1046 l 884 1040 m 728 1224 m 918 1071 z "},"Ä":{"ha":1003,"x_min":-14,"x_max":947,"o":"m -9 -5 l -14 0 l -9 30 l -3 35 l 36 41 q 59 47 53 43 q 72 58 65 50 q 102 102 79 66 q 165 199 126 137 l 180 220 l 649 963 l 713 963 l 827 144 q 844 61 836 75 q 866 43 851 47 q 943 35 881 40 l 947 29 l 942 0 l 936 -5 q 772 0 841 0 q 610 -5 726 0 l 606 0 l 610 29 l 616 35 q 712 45 701 38 q 724 74 724 52 q 715 178 724 79 l 688 379 l 350 379 l 254 220 q 211 144 241 198 q 177 80 182 91 q 173 62 173 68 q 186 44 173 50 q 286 35 199 39 l 290 30 l 285 0 l 279 -5 q 131 0 200 0 q -9 -5 74 0 m 384 432 l 682 432 l 631 826 l 384 432 m 684 1002 m 464 -74 m 845 1090 q 781 1158 781 1090 q 805 1215 781 1190 q 861 1240 829 1240 q 926 1179 926 1240 q 904 1116 926 1143 q 845 1090 881 1090 m 582 1090 q 517 1158 517 1090 q 541 1216 517 1191 q 598 1240 565 1240 q 663 1179 663 1240 q 640 1116 663 1143 q 582 1090 617 1090 z "},"Ã":{"ha":1003,"x_min":-14,"x_max":954,"o":"m -9 -5 l -14 0 l -9 30 l -3 35 l 36 41 q 59 47 53 43 q 72 58 65 50 q 102 102 79 66 q 165 199 126 137 l 180 220 l 649 963 l 713 963 l 827 144 q 844 61 836 75 q 866 43 851 47 q 943 35 881 40 l 947 29 l 942 0 l 936 -5 q 772 0 841 0 q 610 -5 726 0 l 606 0 l 610 29 l 616 35 q 712 45 701 38 q 724 74 724 52 q 715 178 724 79 l 688 379 l 350 379 l 254 220 q 211 144 241 198 q 177 80 182 91 q 173 62 173 68 q 186 44 173 50 q 286 35 199 39 l 290 30 l 285 0 l 279 -5 q 131 0 200 0 q -9 -5 74 0 m 384 432 l 682 432 l 631 826 l 384 432 m 684 1002 m 464 -74 m 954 1224 q 907 1129 943 1172 q 829 1086 871 1086 q 739 1105 795 1086 l 667 1133 q 589 1152 621 1152 q 514 1080 541 1152 l 487 1080 l 481 1084 q 529 1186 489 1141 q 620 1230 568 1230 q 749 1189 652 1230 q 841 1165 812 1165 q 924 1227 902 1165 l 949 1227 l 954 1224 z "},"Ă":{"ha":1003,"x_min":-14,"x_max":947,"o":"m -9 -5 l -14 0 l -9 30 l -3 35 l 36 41 q 59 47 53 43 q 72 58 65 50 q 102 102 79 66 q 165 199 126 137 l 180 220 l 649 963 l 713 963 l 827 144 q 844 61 836 75 q 866 43 851 47 q 943 35 881 40 l 947 29 l 942 0 l 936 -5 q 772 0 841 0 q 610 -5 726 0 l 606 0 l 610 29 l 616 35 q 712 45 701 38 q 724 74 724 52 q 715 178 724 79 l 688 379 l 350 379 l 254 220 q 211 144 241 198 q 177 80 182 91 q 173 62 173 68 q 186 44 173 50 q 286 35 199 39 l 290 30 l 285 0 l 279 -5 q 131 0 200 0 q -9 -5 74 0 m 384 432 l 682 432 l 631 826 l 384 432 m 684 1002 m 464 -74 m 525 1256 l 564 1256 q 715 1119 574 1119 q 897 1256 840 1119 l 937 1256 q 707 1036 880 1036 q 573 1085 622 1036 q 524 1220 524 1134 q 525 1256 524 1233 m 729 1219 z "},"Å":{"ha":1003,"x_min":-14,"x_max":947,"o":"m -9 -5 l -14 0 l -9 30 l -3 35 l 36 41 q 59 47 53 43 q 72 58 65 50 q 102 102 79 66 q 165 199 126 137 l 180 220 l 649 963 l 713 963 l 827 144 q 844 61 836 75 q 866 43 851 47 q 943 35 881 40 l 947 29 l 942 0 l 936 -5 q 772 0 841 0 q 610 -5 726 0 l 606 0 l 610 29 l 616 35 q 712 45 701 38 q 724 74 724 52 q 715 178 724 79 l 688 379 l 350 379 l 254 220 q 211 144 241 198 q 177 80 182 91 q 173 62 173 68 q 186 44 173 50 q 286 35 199 39 l 290 30 l 285 0 l 279 -5 q 131 0 200 0 q -9 -5 74 0 m 384 432 l 682 432 l 631 826 l 384 432 m 684 1002 m 464 -74 m 698 1031 q 617 1065 650 1031 q 584 1145 584 1098 q 632 1254 584 1207 q 742 1301 680 1301 q 825 1270 793 1301 q 857 1187 857 1238 q 809 1078 857 1124 q 698 1031 760 1031 m 737 1272 q 663 1231 692 1272 q 634 1147 634 1190 q 653 1086 634 1111 q 703 1061 673 1061 q 777 1100 747 1061 q 807 1187 807 1139 q 788 1248 807 1224 q 737 1272 768 1272 z "},"Ǻ":{"ha":1003,"x_min":-14,"x_max":947,"o":"m -9 -5 l -14 0 l -9 30 l -3 35 l 36 41 q 59 47 53 43 q 72 58 65 50 q 102 102 79 66 q 165 199 126 137 l 180 220 l 649 963 l 713 963 l 827 144 q 844 61 836 75 q 866 43 851 47 q 943 35 881 40 l 947 29 l 942 0 l 936 -5 q 772 0 841 0 q 610 -5 726 0 l 606 0 l 610 29 l 616 35 q 712 45 701 38 q 724 74 724 52 q 715 178 724 79 l 688 379 l 350 379 l 254 220 q 211 144 241 198 q 177 80 182 91 q 173 62 173 68 q 186 44 173 50 q 286 35 199 39 l 290 30 l 285 0 l 279 -5 q 131 0 200 0 q -9 -5 74 0 m 384 432 l 682 432 l 631 826 l 384 432 m 684 1002 m 464 -74 m 690 959 q 607 989 637 959 q 576 1066 576 1019 q 621 1170 576 1125 q 727 1214 665 1214 q 813 1183 782 1214 q 845 1102 845 1152 q 798 1001 845 1044 q 690 959 751 959 m 722 1183 q 660 1148 686 1183 q 634 1067 634 1114 q 696 990 634 990 q 761 1025 734 990 q 787 1104 787 1060 q 769 1159 787 1135 q 722 1183 751 1183 m 886 1442 q 610 1239 802 1384 l 602 1240 l 586 1253 l 587 1262 l 760 1446 l 880 1458 l 886 1442 z "},"Ā":{"ha":1003,"x_min":-14,"x_max":947,"o":"m -9 -5 l -14 0 l -9 30 l -3 35 l 36 41 q 59 47 53 43 q 72 58 65 50 q 102 102 79 66 q 165 199 126 137 l 180 220 l 649 963 l 713 963 l 827 144 q 844 61 836 75 q 866 43 851 47 q 943 35 881 40 l 947 29 l 942 0 l 936 -5 q 772 0 841 0 q 610 -5 726 0 l 606 0 l 610 29 l 616 35 q 712 45 701 38 q 724 74 724 52 q 715 178 724 79 l 688 379 l 350 379 l 254 220 q 211 144 241 198 q 177 80 182 91 q 173 62 173 68 q 186 44 173 50 q 286 35 199 39 l 290 30 l 285 0 l 279 -5 q 131 0 200 0 q -9 -5 74 0 m 384 432 l 682 432 l 631 826 l 384 432 m 684 1002 m 464 -74 m 927 1187 l 916 1126 l 496 1126 l 508 1187 l 927 1187 z "},"Ą":{"ha":1003,"x_min":-14,"x_max":947,"o":"m 947 29 l 942 0 l 936 -5 l 835 -1 q 760 -146 760 -79 q 816 -211 760 -211 q 898 -161 863 -211 l 903 -160 l 918 -168 l 919 -172 q 777 -292 849 -292 q 702 -266 731 -292 q 673 -201 673 -239 q 795 -1 673 -127 q 644 -5 732 -1 l 621 -5 l 616 0 l 621 29 l 627 35 q 709 43 694 35 q 724 74 724 51 q 715 178 724 106 l 688 379 l 350 379 l 254 220 q 173 62 173 85 q 191 43 173 49 q 273 35 208 37 l 277 30 l 272 0 l 266 -5 q 131 0 140 0 q -9 -5 74 0 l -14 0 l -9 30 l -3 35 l 36 41 q 77 64 64 45 l 180 220 l 649 963 l 713 963 l 827 144 q 840 69 835 85 q 857 47 846 54 q 943 35 867 41 l 947 29 m 682 432 l 631 826 l 384 432 l 682 432 z "},"Æ":{"ha":1307,"x_min":-1,"x_max":1246,"o":"m 1240 958 l 1246 953 q 1234 869 1244 937 l 1221 751 l 1215 745 l 1192 745 l 1186 751 l 1180 844 q 1175 872 1179 862 q 1156 887 1171 882 q 1085 896 1141 892 q 989 900 1029 900 l 950 900 q 873 894 924 900 q 804 521 843 759 q 909 519 874 519 q 1135 528 1000 519 l 1140 521 l 1114 456 q 872 464 956 464 q 793 463 857 464 l 752 216 q 729 64 734 106 q 891 56 825 56 q 1036 60 975 56 q 1109 70 1097 64 q 1131 90 1122 76 q 1152 157 1139 104 q 1169 216 1162 193 l 1175 221 l 1204 221 l 1208 216 q 1188 110 1199 186 q 1176 1 1177 33 l 1167 -5 l 717 -1 q 532 -5 691 -1 l 528 0 l 530 29 l 536 35 q 594 45 586 40 q 611 74 602 51 q 638 197 620 97 l 673 387 l 370 387 q 317 301 350 356 l 251 189 q 207 112 216 132 q 195 84 197 92 q 193 71 193 77 q 213 44 193 51 q 307 35 234 37 l 312 29 l 309 0 l 304 -5 q 142 -1 215 -1 q 4 -5 115 -1 l -1 0 l 1 24 l 5 28 q 62 44 54 39 q 88 75 71 50 l 287 370 l 494 676 q 618 869 604 839 q 623 885 623 880 q 614 901 623 895 q 565 912 606 907 l 481 920 l 477 926 l 479 951 l 485 957 q 871 953 621 953 q 1240 958 1131 953 m 758 903 l 726 903 q 661 820 698 871 q 552 662 624 769 l 405 441 q 551 437 479 437 q 650 437 631 437 q 683 438 679 438 q 758 903 723 654 z "},"Ǽ":{"ha":1307,"x_min":-1,"x_max":1246,"o":"m 1240 958 l 1246 953 q 1234 869 1244 937 l 1221 751 l 1215 745 l 1192 745 l 1186 751 l 1180 844 q 1175 872 1179 862 q 1156 887 1171 882 q 1085 896 1141 892 q 989 900 1029 900 l 950 900 q 873 894 924 900 q 804 521 843 759 q 909 519 874 519 q 1135 528 1000 519 l 1140 521 l 1114 456 q 872 464 956 464 q 793 463 857 464 l 752 216 q 729 64 734 106 q 891 56 825 56 q 1036 60 975 56 q 1109 70 1097 64 q 1131 90 1122 76 q 1152 157 1139 104 q 1169 216 1162 193 l 1175 221 l 1204 221 l 1208 216 q 1188 110 1199 186 q 1176 1 1177 33 l 1167 -5 l 717 -1 q 532 -5 691 -1 l 528 0 l 530 29 l 536 35 q 594 45 586 40 q 611 74 602 51 q 638 197 620 97 l 673 387 l 370 387 q 317 301 350 356 l 251 189 q 207 112 216 132 q 195 84 197 92 q 193 71 193 77 q 213 44 193 51 q 307 35 234 37 l 312 29 l 309 0 l 304 -5 q 142 -1 215 -1 q 4 -5 115 -1 l -1 0 l 1 24 l 5 28 q 62 44 54 39 q 88 75 71 50 l 287 370 l 494 676 q 618 869 604 839 q 623 885 623 880 q 614 901 623 895 q 565 912 606 907 l 481 920 l 477 926 l 479 951 l 485 957 q 871 953 621 953 q 1240 958 1131 953 m 758 903 l 726 903 q 661 820 698 871 q 552 662 624 769 l 405 441 q 551 437 479 437 q 650 437 631 437 q 683 438 679 438 q 758 903 723 654 m 1096 1251 q 820 1048 1011 1194 l 811 1050 l 795 1063 l 796 1072 l 969 1255 l 1090 1267 l 1096 1251 z "},"Ć":{"ha":926,"x_min":81,"x_max":919,"o":"m 834 141 l 841 121 l 821 72 q 495 -28 680 -28 q 266 23 359 -28 q 126 167 172 74 q 81 388 81 260 q 110 586 81 494 q 192 745 139 677 q 317 865 244 813 q 464 945 390 918 q 636 973 538 973 q 916 920 789 973 l 919 913 q 885 722 899 854 l 880 717 l 851 717 l 846 722 q 844 828 846 812 q 600 901 759 901 q 476 886 536 901 q 369 834 416 870 q 287 738 323 799 q 227 596 250 677 q 204 415 204 515 q 295 138 204 231 q 539 45 385 45 q 834 141 690 45 m 842 1251 q 566 1048 757 1194 l 557 1050 l 541 1063 l 542 1072 l 715 1255 l 836 1267 l 842 1251 z "},"Ĉ":{"ha":926,"x_min":81,"x_max":919,"o":"m 834 141 l 841 121 l 821 72 q 495 -28 680 -28 q 266 23 359 -28 q 126 167 172 74 q 81 388 81 260 q 110 586 81 494 q 192 745 139 677 q 317 865 244 813 q 464 945 390 918 q 636 973 538 973 q 916 920 789 973 l 919 913 q 885 722 899 854 l 880 717 l 851 717 l 846 722 q 844 828 846 812 q 600 901 759 901 q 476 886 536 901 q 369 834 416 870 q 287 738 323 799 q 227 596 250 677 q 204 415 204 515 q 295 138 204 231 q 539 45 385 45 q 834 141 690 45 m 815 1040 l 779 1040 l 652 1200 l 454 1040 l 415 1040 l 412 1046 l 628 1267 l 700 1267 l 821 1046 l 815 1040 m 659 1224 m 848 1071 z "},"Č":{"ha":926,"x_min":81,"x_max":919,"o":"m 834 141 l 841 121 l 821 72 q 495 -28 680 -28 q 266 23 359 -28 q 126 167 172 74 q 81 388 81 260 q 110 586 81 494 q 192 745 139 677 q 317 865 244 813 q 464 945 390 918 q 636 973 538 973 q 916 920 789 973 l 919 913 q 885 722 899 854 l 880 717 l 851 717 l 846 722 q 844 828 846 812 q 600 901 759 901 q 476 886 536 901 q 369 834 416 870 q 287 738 323 799 q 227 596 250 677 q 204 415 204 515 q 295 138 204 231 q 539 45 385 45 q 834 141 690 45 m 844 1267 l 850 1261 l 630 1040 l 559 1040 l 439 1262 l 446 1267 l 473 1267 l 607 1107 l 812 1267 l 844 1267 z "},"Ç":{"ha":926,"x_min":81,"x_max":919,"o":"m 919 913 q 885 722 899 854 l 880 717 l 851 717 l 846 722 q 844 828 846 812 q 600 901 759 901 q 392 850 475 901 q 257 680 310 800 q 204 415 204 561 q 291 142 204 239 q 539 45 378 45 q 834 141 690 45 l 841 121 l 821 72 q 492 -29 679 -29 l 455 -95 q 488 -92 471 -92 q 567 -115 533 -92 q 602 -184 602 -138 q 557 -270 602 -237 q 441 -302 513 -302 q 317 -276 378 -302 l 315 -268 l 326 -252 l 333 -249 q 410 -263 367 -263 q 476 -244 448 -263 q 505 -191 505 -226 q 486 -155 505 -170 q 441 -140 467 -140 q 393 -147 416 -140 l 382 -136 l 453 -27 q 178 92 275 -17 q 81 388 81 201 q 256 816 81 659 q 636 973 431 973 q 916 920 789 973 l 919 913 z "},"Ċ":{"ha":926,"x_min":81,"x_max":919,"o":"m 834 141 l 841 121 l 821 72 q 495 -28 680 -28 q 266 23 359 -28 q 126 167 172 74 q 81 388 81 260 q 110 586 81 494 q 192 745 139 677 q 317 865 244 813 q 464 945 390 918 q 636 973 538 973 q 916 920 789 973 l 919 913 q 885 722 899 854 l 880 717 l 851 717 l 846 722 q 844 828 846 812 q 600 901 759 901 q 476 886 536 901 q 369 834 416 870 q 287 738 323 799 q 227 596 250 677 q 204 415 204 515 q 295 138 204 231 q 539 45 385 45 q 834 141 690 45 m 581 1090 q 517 1158 517 1090 q 541 1215 517 1190 q 597 1240 565 1240 q 663 1179 663 1240 q 640 1116 663 1142 q 581 1090 616 1090 z "},"Ď":{"ha":1080,"x_min":50,"x_max":1034,"o":"m 55 -5 l 50 0 l 53 29 l 58 35 q 102 45 96 41 q 116 58 109 48 q 132 101 123 67 q 176 328 140 135 l 218 560 l 242 709 q 264 881 264 860 q 257 905 264 899 q 229 914 250 911 q 155 918 208 916 l 151 924 l 154 953 l 161 958 q 332 954 226 954 l 590 958 q 786 941 713 958 q 915 882 859 924 q 1003 768 971 841 q 1034 596 1034 694 q 1007 417 1034 504 q 928 253 981 330 q 807 122 876 176 q 683 42 739 67 q 563 6 628 18 q 411 -6 498 -6 q 277 -3 351 -6 q 154 0 214 0 q 55 -5 98 0 m 248 76 q 486 54 371 54 q 661 94 588 54 q 790 206 734 133 q 878 382 846 279 q 909 582 909 486 q 890 710 909 649 q 824 819 872 770 q 701 884 776 868 q 532 900 625 900 q 385 892 458 900 l 335 623 l 277 286 q 248 76 253 144 m 838 1267 l 843 1261 l 623 1040 l 552 1040 l 433 1262 l 439 1267 l 467 1267 l 600 1107 l 805 1267 l 838 1267 z "},"Đ":{"ha":1080,"x_min":50,"x_max":1034,"o":"m 204 484 l 80 484 l 75 489 l 80 523 l 85 528 l 212 528 q 250 760 235 655 q 264 881 264 865 q 257 905 264 899 q 229 914 250 911 q 155 918 208 916 l 151 924 l 154 953 l 161 958 q 332 954 226 954 l 590 958 q 772 945 688 958 q 919 880 855 932 q 1008 754 982 828 q 1034 596 1034 681 q 984 354 1034 469 q 844 154 934 239 q 657 32 753 69 q 411 -6 562 -6 q 277 -3 351 -6 q 154 0 214 0 q 55 -5 94 0 l 50 0 l 53 29 l 58 35 q 103 45 96 41 q 118 62 111 49 q 141 146 126 75 q 172 307 155 217 l 204 484 m 311 484 q 256 155 262 202 q 248 76 250 108 q 486 54 371 54 q 661 94 588 54 q 790 206 734 133 q 878 382 846 279 q 909 582 909 486 q 890 710 909 649 q 824 819 872 770 q 701 884 776 868 q 532 900 625 900 q 385 892 458 900 l 356 736 l 318 528 l 551 528 l 555 523 l 550 489 l 544 484 l 311 484 z "},"Ð":{"ha":1080,"x_min":50,"x_max":1034,"o":"m 204 484 l 80 484 l 75 489 l 80 523 l 85 528 l 212 528 q 250 760 235 655 q 264 881 264 865 q 257 905 264 899 q 229 914 250 911 q 155 918 208 916 l 151 924 l 154 953 l 161 958 q 332 954 226 954 l 590 958 q 772 945 688 958 q 919 880 855 932 q 1008 754 982 828 q 1034 596 1034 681 q 984 354 1034 469 q 844 154 934 239 q 657 32 753 69 q 411 -6 562 -6 q 277 -3 351 -6 q 154 0 214 0 q 55 -5 94 0 l 50 0 l 53 29 l 58 35 q 103 45 96 41 q 118 62 111 49 q 141 146 126 75 q 172 307 155 217 l 204 484 m 311 484 q 256 155 262 202 q 248 76 250 108 q 486 54 371 54 q 661 94 588 54 q 790 206 734 133 q 878 382 846 279 q 909 582 909 486 q 890 710 909 649 q 824 819 872 770 q 701 884 776 868 q 532 900 625 900 q 385 892 458 900 l 356 736 l 318 528 l 551 528 l 555 523 l 550 489 l 544 484 l 311 484 z "},"É":{"ha":848,"x_min":49,"x_max":789,"o":"m 54 -5 l 49 0 l 51 29 l 58 35 q 113 44 104 40 q 121 52 117 47 q 140 101 131 65 q 191 370 148 133 l 245 678 q 275 886 275 854 q 269 905 275 899 q 239 913 262 911 q 165 918 215 916 l 161 924 l 165 953 l 171 958 q 312 953 237 953 q 784 958 669 953 l 789 953 q 777 869 787 937 l 764 751 l 759 745 l 735 745 l 730 751 q 721 865 723 854 q 708 883 718 876 q 642 895 699 890 q 526 900 585 900 q 395 894 446 900 q 325 521 368 777 q 446 519 393 519 q 671 528 538 519 l 676 521 l 650 456 q 408 464 492 464 q 315 463 376 464 l 273 215 q 250 64 255 108 q 432 56 344 56 q 578 60 518 56 q 651 71 638 65 q 672 91 664 77 q 693 157 680 104 q 710 216 703 193 l 716 221 l 745 221 l 749 216 q 729 110 740 186 q 717 1 719 33 l 708 -5 l 236 0 q 54 -5 118 0 m 493 1002 m 429 -74 m 734 1251 q 458 1048 649 1194 l 449 1050 l 433 1063 l 434 1072 l 607 1255 l 728 1267 l 734 1251 z "},"È":{"ha":848,"x_min":49,"x_max":789,"o":"m 54 -5 l 49 0 l 51 29 l 58 35 q 113 44 104 40 q 121 52 117 47 q 140 101 131 65 q 191 370 148 133 l 245 678 q 275 886 275 854 q 269 905 275 899 q 239 913 262 911 q 165 918 215 916 l 161 924 l 165 953 l 171 958 q 312 953 237 953 q 784 958 669 953 l 789 953 q 777 869 787 937 l 764 751 l 759 745 l 735 745 l 730 751 q 721 865 723 854 q 708 883 718 876 q 642 895 699 890 q 526 900 585 900 q 395 894 446 900 q 325 521 368 777 q 446 519 393 519 q 671 528 538 519 l 676 521 l 650 456 q 408 464 492 464 q 315 463 376 464 l 273 215 q 250 64 255 108 q 432 56 344 56 q 578 60 518 56 q 651 71 638 65 q 672 91 664 77 q 693 157 680 104 q 710 216 703 193 l 716 221 l 745 221 l 749 216 q 729 110 740 186 q 717 1 719 33 l 708 -5 l 236 0 q 54 -5 118 0 m 493 1002 m 429 -74 m 623 1067 l 600 1052 l 594 1053 l 326 1249 l 332 1267 l 450 1255 l 622 1075 l 623 1067 z "},"Ê":{"ha":848,"x_min":49,"x_max":789,"o":"m 54 -5 l 49 0 l 51 29 l 58 35 q 113 44 104 40 q 121 52 117 47 q 140 101 131 65 q 191 370 148 133 l 245 678 q 275 886 275 854 q 269 905 275 899 q 239 913 262 911 q 165 918 215 916 l 161 924 l 165 953 l 171 958 q 312 953 237 953 q 784 958 669 953 l 789 953 q 777 869 787 937 l 764 751 l 759 745 l 735 745 l 730 751 q 721 865 723 854 q 708 883 718 876 q 642 895 699 890 q 526 900 585 900 q 395 894 446 900 q 325 521 368 777 q 446 519 393 519 q 671 528 538 519 l 676 521 l 650 456 q 408 464 492 464 q 315 463 376 464 l 273 215 q 250 64 255 108 q 432 56 344 56 q 578 60 518 56 q 651 71 638 65 q 672 91 664 77 q 693 157 680 104 q 710 216 703 193 l 716 221 l 745 221 l 749 216 q 729 110 740 186 q 717 1 719 33 l 708 -5 l 236 0 q 54 -5 118 0 m 493 1002 m 429 -74 m 736 1040 l 700 1040 l 573 1200 l 375 1040 l 336 1040 l 333 1046 l 549 1267 l 621 1267 l 742 1046 l 736 1040 m 581 1224 m 770 1071 z "},"Ë":{"ha":848,"x_min":49,"x_max":789,"o":"m 54 -5 l 49 0 l 51 29 l 58 35 q 113 44 104 40 q 121 52 117 47 q 140 101 131 65 q 191 370 148 133 l 245 678 q 275 886 275 854 q 269 905 275 899 q 239 913 262 911 q 165 918 215 916 l 161 924 l 165 953 l 171 958 q 312 953 237 953 q 784 958 669 953 l 789 953 q 777 869 787 937 l 764 751 l 759 745 l 735 745 l 730 751 q 721 865 723 854 q 708 883 718 876 q 642 895 699 890 q 526 900 585 900 q 395 894 446 900 q 325 521 368 777 q 446 519 393 519 q 671 528 538 519 l 676 521 l 650 456 q 408 464 492 464 q 315 463 376 464 l 273 215 q 250 64 255 108 q 432 56 344 56 q 578 60 518 56 q 651 71 638 65 q 672 91 664 77 q 693 157 680 104 q 710 216 703 193 l 716 221 l 745 221 l 749 216 q 729 110 740 186 q 717 1 719 33 l 708 -5 l 236 0 q 54 -5 118 0 m 493 1002 m 429 -74 m 696 1090 q 633 1158 633 1090 q 656 1215 633 1190 q 713 1240 680 1240 q 778 1179 778 1240 q 755 1116 778 1143 q 696 1090 732 1090 m 433 1090 q 369 1158 369 1090 q 393 1216 369 1191 q 450 1240 416 1240 q 514 1179 514 1240 q 491 1116 514 1143 q 433 1090 469 1090 z "},"Ě":{"ha":848,"x_min":49,"x_max":798,"o":"m 54 -5 l 49 0 l 51 29 l 58 35 q 113 44 104 40 q 121 52 117 47 q 140 101 131 65 q 191 370 148 133 l 245 678 q 275 886 275 854 q 269 905 275 899 q 239 913 262 911 q 165 918 215 916 l 161 924 l 165 953 l 171 958 q 312 953 237 953 q 784 958 669 953 l 789 953 q 777 869 787 937 l 764 751 l 759 745 l 735 745 l 730 751 q 721 865 723 854 q 708 883 718 876 q 642 895 699 890 q 526 900 585 900 q 395 894 446 900 q 325 521 368 777 q 446 519 393 519 q 671 528 538 519 l 676 521 l 650 456 q 408 464 492 464 q 315 463 376 464 l 273 215 q 250 64 255 108 q 432 56 344 56 q 578 60 518 56 q 651 71 638 65 q 672 91 664 77 q 693 157 680 104 q 710 216 703 193 l 716 221 l 745 221 l 749 216 q 729 110 740 186 q 717 1 719 33 l 708 -5 l 236 0 q 54 -5 118 0 m 493 1002 m 429 -74 m 793 1267 l 798 1261 l 578 1040 l 507 1040 l 388 1262 l 395 1267 l 422 1267 l 555 1107 l 760 1267 l 793 1267 z "},"Ĕ":{"ha":848,"x_min":49,"x_max":789,"o":"m 54 -5 l 49 0 l 51 29 l 58 35 q 113 44 104 40 q 121 52 117 47 q 140 101 131 65 q 191 370 148 133 l 245 678 q 275 886 275 854 q 269 905 275 899 q 239 913 262 911 q 165 918 215 916 l 161 924 l 165 953 l 171 958 q 312 953 237 953 q 784 958 669 953 l 789 953 q 777 869 787 937 l 764 751 l 759 745 l 735 745 l 730 751 q 721 865 723 854 q 708 883 718 876 q 642 895 699 890 q 526 900 585 900 q 395 894 446 900 q 325 521 368 777 q 446 519 393 519 q 671 528 538 519 l 676 521 l 650 456 q 408 464 492 464 q 315 463 376 464 l 273 215 q 250 64 255 108 q 432 56 344 56 q 578 60 518 56 q 651 71 638 65 q 672 91 664 77 q 693 157 680 104 q 710 216 703 193 l 716 221 l 745 221 l 749 216 q 729 110 740 186 q 717 1 719 33 l 708 -5 l 236 0 q 54 -5 118 0 m 493 1002 m 429 -74 m 369 1256 l 408 1256 q 559 1119 418 1119 q 741 1256 684 1119 l 781 1256 q 551 1036 724 1036 q 417 1085 466 1036 q 368 1220 368 1134 q 369 1256 368 1233 m 573 1219 z "},"Ė":{"ha":848,"x_min":49,"x_max":789,"o":"m 54 -5 l 49 0 l 51 29 l 58 35 q 113 44 104 40 q 121 52 117 47 q 140 101 131 65 q 191 370 148 133 l 245 678 q 275 886 275 854 q 269 905 275 899 q 239 913 262 911 q 165 918 215 916 l 161 924 l 165 953 l 171 958 q 312 953 237 953 q 784 958 669 953 l 789 953 q 777 869 787 937 l 764 751 l 759 745 l 735 745 l 730 751 q 721 865 723 854 q 708 883 718 876 q 642 895 699 890 q 526 900 585 900 q 395 894 446 900 q 325 521 368 777 q 446 519 393 519 q 671 528 538 519 l 676 521 l 650 456 q 408 464 492 464 q 315 463 376 464 l 273 215 q 250 64 255 108 q 432 56 344 56 q 578 60 518 56 q 651 71 638 65 q 672 91 664 77 q 693 157 680 104 q 710 216 703 193 l 716 221 l 745 221 l 749 216 q 729 110 740 186 q 717 1 719 33 l 708 -5 l 236 0 q 54 -5 118 0 m 493 1002 m 429 -74 m 541 1090 q 477 1158 477 1090 q 500 1215 477 1190 q 557 1240 524 1240 q 622 1179 622 1240 q 599 1116 622 1142 q 541 1090 576 1090 z "},"Ē":{"ha":848,"x_min":49,"x_max":789,"o":"m 54 -5 l 49 0 l 51 29 l 58 35 q 113 44 104 40 q 121 52 117 47 q 140 101 131 65 q 191 370 148 133 l 245 678 q 275 886 275 854 q 269 905 275 899 q 239 913 262 911 q 165 918 215 916 l 161 924 l 165 953 l 171 958 q 312 953 237 953 q 784 958 669 953 l 789 953 q 777 869 787 937 l 764 751 l 759 745 l 735 745 l 730 751 q 721 865 723 854 q 708 883 718 876 q 642 895 699 890 q 526 900 585 900 q 395 894 446 900 q 325 521 368 777 q 446 519 393 519 q 671 528 538 519 l 676 521 l 650 456 q 408 464 492 464 q 315 463 376 464 l 273 215 q 250 64 255 108 q 432 56 344 56 q 578 60 518 56 q 651 71 638 65 q 672 91 664 77 q 693 157 680 104 q 710 216 703 193 l 716 221 l 745 221 l 749 216 q 729 110 740 186 q 717 1 719 33 l 708 -5 l 236 0 q 54 -5 118 0 m 493 1002 m 429 -74 m 763 1187 l 751 1126 l 332 1126 l 344 1187 l 763 1187 z "},"Ę":{"ha":848,"x_min":49,"x_max":789,"o":"m 789 953 q 777 869 786 934 l 764 751 l 759 745 l 735 745 l 730 751 q 713 879 728 859 q 526 900 699 900 q 395 894 446 900 q 325 521 368 777 q 446 519 393 519 q 671 528 538 519 l 676 521 l 650 456 q 408 464 492 464 q 315 463 376 464 l 273 215 q 250 64 254 102 q 432 56 344 56 q 659 76 640 56 q 693 157 677 96 q 710 216 703 193 l 716 221 l 745 221 l 749 216 q 717 1 726 141 l 708 -5 l 646 -4 q 575 -146 575 -80 q 631 -211 575 -211 q 713 -161 678 -211 l 719 -160 l 733 -168 l 734 -172 q 593 -292 665 -292 q 518 -266 547 -292 q 488 -199 488 -240 q 605 -4 488 -110 l 236 0 q 54 -5 109 0 l 49 0 l 51 29 l 58 35 q 110 43 97 39 q 135 84 123 47 q 191 370 147 121 l 245 678 q 275 886 275 844 q 262 907 275 899 q 165 918 250 916 l 161 924 l 165 953 l 171 958 q 312 953 237 953 q 784 958 669 953 l 789 953 z "},"Ǵ":{"ha":1003,"x_min":81,"x_max":969,"o":"m 857 59 l 850 49 q 766 26 827 47 q 623 -17 673 -5 q 507 -28 572 -28 q 268 22 364 -28 q 127 162 172 71 q 81 369 81 253 q 125 615 81 498 q 258 814 170 732 q 444 934 346 895 q 660 973 542 973 q 937 920 804 973 l 939 912 q 900 720 915 839 l 895 714 l 866 714 l 861 720 q 856 836 861 769 q 751 884 820 866 q 612 903 683 903 q 403 848 495 903 q 258 669 311 793 q 205 401 205 546 q 224 249 205 320 q 295 126 244 178 q 410 55 345 75 q 550 36 474 36 q 739 80 662 36 l 764 213 q 774 290 774 271 q 764 317 774 308 q 710 329 753 326 l 618 336 l 612 342 l 616 372 l 623 377 l 647 376 q 802 372 766 372 q 964 374 878 372 l 969 369 l 966 342 l 961 336 q 908 324 919 329 q 892 312 897 319 q 880 271 888 304 l 872 232 q 859 155 867 205 q 852 81 852 104 q 857 59 852 71 m 842 1251 q 566 1048 758 1194 l 557 1050 l 542 1063 l 543 1072 l 715 1255 l 836 1267 l 842 1251 z "},"Ĝ":{"ha":1003,"x_min":81,"x_max":969,"o":"m 857 59 l 850 49 q 766 26 827 47 q 623 -17 673 -5 q 507 -28 572 -28 q 268 22 364 -28 q 127 162 172 71 q 81 369 81 253 q 125 615 81 498 q 258 814 170 732 q 444 934 346 895 q 660 973 542 973 q 937 920 804 973 l 939 912 q 900 720 915 839 l 895 714 l 866 714 l 861 720 q 856 836 861 769 q 751 884 820 866 q 612 903 683 903 q 403 848 495 903 q 258 669 311 793 q 205 401 205 546 q 224 249 205 320 q 295 126 244 178 q 410 55 345 75 q 550 36 474 36 q 739 80 662 36 l 764 213 q 774 290 774 271 q 764 317 774 308 q 710 329 753 326 l 618 336 l 612 342 l 616 372 l 623 377 l 647 376 q 802 372 766 372 q 964 374 878 372 l 969 369 l 966 342 l 961 336 q 908 324 919 329 q 892 312 897 319 q 880 271 888 304 l 872 232 q 859 155 867 205 q 852 81 852 104 q 857 59 852 71 m 822 1040 l 785 1040 l 659 1200 l 460 1040 l 422 1040 l 418 1046 l 635 1267 l 707 1267 l 827 1046 l 822 1040 m 666 1224 m 855 1071 z "},"Ğ":{"ha":1003,"x_min":81,"x_max":969,"o":"m 857 59 l 850 49 q 766 26 827 47 q 623 -17 673 -5 q 507 -28 572 -28 q 268 22 364 -28 q 127 162 172 71 q 81 369 81 253 q 125 615 81 498 q 258 814 170 732 q 444 934 346 895 q 660 973 542 973 q 937 920 804 973 l 939 912 q 900 720 915 839 l 895 714 l 866 714 l 861 720 q 856 836 861 769 q 751 884 820 866 q 612 903 683 903 q 403 848 495 903 q 258 669 311 793 q 205 401 205 546 q 224 249 205 320 q 295 126 244 178 q 410 55 345 75 q 550 36 474 36 q 739 80 662 36 l 764 213 q 774 290 774 271 q 764 317 774 308 q 710 329 753 326 l 618 336 l 612 342 l 616 372 l 623 377 l 647 376 q 802 372 766 372 q 964 374 878 372 l 969 369 l 966 342 l 961 336 q 908 324 919 329 q 892 312 897 319 q 880 271 888 304 l 872 232 q 859 155 867 205 q 852 81 852 104 q 857 59 852 71 m 441 1256 l 480 1256 q 632 1119 491 1119 q 814 1256 756 1119 l 854 1256 q 623 1036 797 1036 q 489 1085 538 1036 q 440 1220 440 1134 q 441 1256 440 1233 m 646 1219 z "},"Ģ":{"ha":1003,"x_min":81,"x_max":969,"o":"m 857 59 l 850 49 q 766 26 827 47 q 623 -17 673 -5 q 507 -28 572 -28 q 268 22 364 -28 q 127 162 172 71 q 81 369 81 253 q 125 615 81 498 q 258 814 170 732 q 444 934 346 895 q 660 973 542 973 q 937 920 804 973 l 939 912 q 900 720 915 839 l 895 714 l 866 714 l 861 720 q 856 836 861 769 q 751 884 820 866 q 612 903 683 903 q 403 848 495 903 q 258 669 311 793 q 205 401 205 546 q 224 249 205 320 q 295 126 244 178 q 410 55 345 75 q 550 36 474 36 q 739 80 662 36 l 764 213 q 774 290 774 271 q 764 317 774 308 q 710 329 753 326 l 618 336 l 612 342 l 616 372 l 623 377 l 647 376 q 802 372 766 372 q 964 374 878 372 l 969 369 l 966 342 l 961 336 q 908 324 919 329 q 892 312 897 319 q 880 271 888 304 l 872 232 q 859 155 867 205 q 852 81 852 104 q 857 59 852 71 m 362 -391 l 361 -375 q 475 -325 438 -359 q 511 -260 511 -292 q 481 -241 511 -241 q 412 -180 412 -241 q 436 -115 412 -144 q 505 -86 461 -86 q 585 -181 585 -86 q 525 -317 585 -254 q 362 -391 465 -380 z "},"Ġ":{"ha":1003,"x_min":81,"x_max":969,"o":"m 857 59 l 850 49 q 766 26 827 47 q 623 -17 673 -5 q 507 -28 572 -28 q 268 22 364 -28 q 127 162 172 71 q 81 369 81 253 q 125 615 81 498 q 258 814 170 732 q 444 934 346 895 q 660 973 542 973 q 937 920 804 973 l 939 912 q 900 720 915 839 l 895 714 l 866 714 l 861 720 q 856 836 861 769 q 751 884 820 866 q 612 903 683 903 q 403 848 495 903 q 258 669 311 793 q 205 401 205 546 q 224 249 205 320 q 295 126 244 178 q 410 55 345 75 q 550 36 474 36 q 739 80 662 36 l 764 213 q 774 290 774 271 q 764 317 774 308 q 710 329 753 326 l 618 336 l 612 342 l 616 372 l 623 377 l 647 376 q 802 372 766 372 q 964 374 878 372 l 969 369 l 966 342 l 961 336 q 908 324 919 329 q 892 312 897 319 q 880 271 888 304 l 872 232 q 859 155 867 205 q 852 81 852 104 q 857 59 852 71 m 613 1090 q 549 1158 549 1090 q 573 1215 549 1190 q 629 1240 597 1240 q 694 1179 694 1240 q 671 1116 694 1142 q 613 1090 648 1090 z "},"Ĥ":{"ha":1080,"x_min":13,"x_max":1112,"o":"m 315 532 l 638 529 q 827 532 745 529 q 882 885 882 831 q 869 907 882 897 q 772 918 857 917 l 768 924 l 771 953 l 778 958 l 967 953 q 1106 958 1031 953 l 1112 953 l 1109 924 l 1103 918 q 1030 913 1048 916 q 1006 893 1013 910 q 975 752 1000 876 q 930 512 949 627 l 884 241 q 859 64 859 91 q 873 45 859 52 q 970 35 887 38 l 974 29 l 970 0 l 964 -5 l 787 0 q 635 -5 715 0 l 631 0 l 633 29 l 640 35 q 724 47 674 35 q 746 97 736 57 q 781 279 755 136 l 817 473 l 548 475 q 367 472 523 475 l 304 471 q 241 65 241 108 q 255 45 241 53 q 352 35 269 38 l 356 29 l 353 0 l 347 -5 l 168 0 q 18 -5 98 0 l 13 0 l 15 29 l 22 35 q 96 42 80 38 q 122 76 112 45 q 161 269 132 107 l 205 511 l 245 746 q 264 884 264 854 q 252 907 264 898 q 155 918 239 916 l 150 924 l 153 953 l 159 958 l 349 953 q 488 958 413 953 l 493 953 l 491 924 l 485 918 q 403 909 418 916 q 380 863 388 902 l 355 745 q 315 532 349 714 m 857 1040 l 821 1040 l 694 1200 l 496 1040 l 457 1040 l 454 1046 l 670 1267 l 742 1267 l 863 1046 l 857 1040 m 701 1224 m 890 1071 z "},"Ħ":{"ha":1080,"x_min":13,"x_max":1112,"o":"m 353 732 l 861 732 q 882 885 882 856 q 866 909 882 903 q 772 918 851 915 l 768 924 l 771 953 l 778 958 q 828 957 781 958 q 967 953 935 953 q 1106 958 1031 953 l 1112 953 l 1109 924 l 1103 918 q 1034 913 1048 916 q 1012 903 1020 911 q 998 863 1004 894 q 970 732 984 798 l 1084 732 l 1076 680 l 960 680 q 893 299 927 503 q 859 64 859 94 q 866 48 859 54 q 899 39 873 42 q 970 35 924 37 l 974 29 l 970 0 l 964 -5 q 922 -4 962 -5 q 787 0 815 0 q 635 -5 715 0 l 631 0 l 633 29 l 640 35 q 707 40 695 37 q 723 47 718 43 q 736 67 728 51 q 753 126 744 83 q 781 279 762 170 l 817 473 q 735 474 781 473 q 548 475 689 475 q 367 472 475 475 l 304 471 q 241 65 241 108 q 248 48 241 54 q 281 39 255 42 q 352 35 307 37 l 356 29 l 353 0 l 347 -5 q 303 -4 344 -5 q 168 0 197 0 q 18 -5 98 0 l 13 0 l 15 29 l 22 35 q 91 41 81 38 q 107 48 102 43 q 122 77 113 54 q 153 222 131 100 l 193 443 q 235 680 212 541 l 115 680 l 123 732 l 243 732 q 264 885 264 855 q 249 909 264 903 q 155 918 233 915 l 150 924 l 153 953 l 159 958 q 210 957 163 958 q 349 953 317 953 q 488 958 413 953 l 493 953 l 491 924 l 485 918 q 416 913 430 916 q 394 903 401 911 q 380 863 386 894 l 353 732 m 342 680 l 315 532 l 638 529 q 789 530 739 529 q 827 532 822 532 q 852 680 839 595 l 342 680 z "},"Í":{"ha":463,"x_min":13,"x_max":571,"o":"m 356 29 l 353 0 l 347 -5 q 303 -4 344 -5 q 168 0 197 0 q 18 -5 98 0 l 13 0 l 15 29 l 22 35 q 94 41 82 38 q 104 46 101 43 q 111 54 108 49 q 126 90 119 66 q 161 269 134 118 l 205 510 l 245 745 q 264 885 264 860 q 249 909 264 903 q 155 918 233 915 l 150 924 l 153 953 l 159 958 q 210 957 163 958 q 349 953 317 953 q 488 958 414 953 l 493 953 l 491 924 l 485 918 q 404 910 414 914 q 393 902 398 907 q 383 877 389 897 q 328 604 366 813 l 273 285 q 241 65 241 91 q 248 48 241 54 q 281 39 255 42 q 352 35 307 37 l 356 29 m 330 1002 m 171 -74 m 571 1251 q 295 1048 486 1194 l 286 1050 l 271 1063 l 271 1072 l 444 1255 l 565 1267 l 571 1251 z "},"Ì":{"ha":463,"x_min":13,"x_max":493,"o":"m 356 29 l 353 0 l 347 -5 q 303 -4 344 -5 q 168 0 197 0 q 18 -5 98 0 l 13 0 l 15 29 l 22 35 q 94 41 82 38 q 104 46 101 43 q 111 54 108 49 q 126 90 119 66 q 161 269 134 118 l 205 510 l 245 745 q 264 885 264 860 q 249 909 264 903 q 155 918 233 915 l 150 924 l 153 953 l 159 958 q 210 957 163 958 q 349 953 317 953 q 488 958 414 953 l 493 953 l 491 924 l 485 918 q 404 910 414 914 q 393 902 398 907 q 383 877 389 897 q 328 604 366 813 l 273 285 q 241 65 241 91 q 248 48 241 54 q 281 39 255 42 q 352 35 307 37 l 356 29 m 330 1002 m 171 -74 m 473 1067 l 450 1052 l 445 1053 l 176 1249 l 183 1267 l 301 1255 l 473 1075 l 473 1067 z "},"Î":{"ha":463,"x_min":13,"x_max":570,"o":"m 356 29 l 353 0 l 347 -5 q 303 -4 344 -5 q 168 0 197 0 q 18 -5 98 0 l 13 0 l 15 29 l 22 35 q 94 41 82 38 q 104 46 101 43 q 111 54 108 49 q 126 90 119 66 q 161 269 134 118 l 205 510 l 245 745 q 264 885 264 860 q 249 909 264 903 q 155 918 233 915 l 150 924 l 153 953 l 159 958 q 210 957 163 958 q 349 953 317 953 q 488 958 414 953 l 493 953 l 491 924 l 485 918 q 404 910 414 914 q 393 902 398 907 q 383 877 389 897 q 328 604 366 813 l 273 285 q 241 65 241 91 q 248 48 241 54 q 281 39 255 42 q 352 35 307 37 l 356 29 m 330 1002 m 171 -74 m 537 1040 l 500 1040 l 374 1200 l 176 1040 l 137 1040 l 134 1046 l 350 1267 l 422 1267 l 543 1046 l 537 1040 m 381 1224 m 570 1071 z "},"Ï":{"ha":463,"x_min":13,"x_max":563,"o":"m 356 29 l 353 0 l 347 -5 q 303 -4 344 -5 q 168 0 197 0 q 18 -5 98 0 l 13 0 l 15 29 l 22 35 q 94 41 82 38 q 104 46 101 43 q 111 54 108 49 q 126 90 119 66 q 161 269 134 118 l 205 510 l 245 745 q 264 885 264 860 q 249 909 264 903 q 155 918 233 915 l 150 924 l 153 953 l 159 958 q 210 957 163 958 q 349 953 317 953 q 488 958 414 953 l 493 953 l 491 924 l 485 918 q 404 910 414 914 q 393 902 398 907 q 383 877 389 897 q 328 604 366 813 l 273 285 q 241 65 241 91 q 248 48 241 54 q 281 39 255 42 q 352 35 307 37 l 356 29 m 330 1002 m 171 -74 m 481 1090 q 418 1158 418 1090 q 441 1215 418 1190 q 498 1240 465 1240 q 563 1179 563 1240 q 540 1116 563 1143 q 481 1090 517 1090 m 218 1090 q 154 1158 154 1090 q 178 1216 154 1191 q 235 1240 201 1240 q 299 1179 299 1240 q 276 1116 299 1143 q 218 1090 254 1090 z "},"Ĩ":{"ha":463,"x_min":13,"x_max":602,"o":"m 356 29 l 353 0 l 347 -5 q 303 -4 344 -5 q 168 0 197 0 q 18 -5 98 0 l 13 0 l 15 29 l 22 35 q 94 41 82 38 q 104 46 101 43 q 111 54 108 49 q 126 90 119 66 q 161 269 134 118 l 205 510 l 245 745 q 264 885 264 860 q 249 909 264 903 q 155 918 233 915 l 150 924 l 153 953 l 159 958 q 210 957 163 958 q 349 953 317 953 q 488 958 414 953 l 493 953 l 491 924 l 485 918 q 404 910 414 914 q 393 902 398 907 q 383 877 389 897 q 328 604 366 813 l 273 285 q 241 65 241 91 q 248 48 241 54 q 281 39 255 42 q 352 35 307 37 l 356 29 m 330 1002 m 171 -74 m 602 1224 q 556 1129 592 1172 q 477 1086 519 1086 q 387 1105 444 1086 l 316 1133 q 238 1152 269 1152 q 163 1080 189 1152 l 136 1080 l 130 1084 q 177 1186 138 1141 q 269 1230 217 1230 q 398 1189 300 1230 q 490 1165 460 1165 q 572 1227 551 1165 l 598 1227 l 602 1224 z "},"Ĭ":{"ha":463,"x_min":13,"x_max":589,"o":"m 356 29 l 353 0 l 347 -5 q 303 -4 344 -5 q 168 0 197 0 q 18 -5 98 0 l 13 0 l 15 29 l 22 35 q 94 41 82 38 q 104 46 101 43 q 111 54 108 49 q 126 90 119 66 q 161 269 134 118 l 205 510 l 245 745 q 264 885 264 860 q 249 909 264 903 q 155 918 233 915 l 150 924 l 153 953 l 159 958 q 210 957 163 958 q 349 953 317 953 q 488 958 414 953 l 493 953 l 491 924 l 485 918 q 404 910 414 914 q 393 902 398 907 q 383 877 389 897 q 328 604 366 813 l 273 285 q 241 65 241 91 q 248 48 241 54 q 281 39 255 42 q 352 35 307 37 l 356 29 m 330 1002 m 171 -74 m 177 1256 l 216 1256 q 368 1119 227 1119 q 549 1256 492 1119 l 589 1256 q 359 1036 532 1036 q 225 1085 274 1036 q 176 1220 176 1134 q 177 1256 176 1233 m 381 1219 z "},"İ":{"ha":463,"x_min":13,"x_max":493,"o":"m 356 29 l 353 0 l 347 -5 q 303 -4 344 -5 q 168 0 197 0 q 18 -5 98 0 l 13 0 l 15 29 l 22 35 q 94 41 82 38 q 104 46 101 43 q 111 54 108 49 q 126 90 119 66 q 161 269 134 118 l 205 510 l 245 745 q 264 885 264 860 q 249 909 264 903 q 155 918 233 915 l 150 924 l 153 953 l 159 958 q 210 957 163 958 q 349 953 317 953 q 488 958 414 953 l 493 953 l 491 924 l 485 918 q 404 910 414 914 q 393 902 398 907 q 383 877 389 897 q 328 604 366 813 l 273 285 q 241 65 241 91 q 248 48 241 54 q 281 39 255 42 q 352 35 307 37 l 356 29 m 330 1002 m 171 -74 m 358 1090 q 294 1158 294 1090 q 318 1215 294 1190 q 374 1240 342 1240 q 439 1179 439 1240 q 416 1116 439 1142 q 358 1090 393 1090 z "},"Ī":{"ha":463,"x_min":13,"x_max":559,"o":"m 356 29 l 353 0 l 347 -5 q 303 -4 344 -5 q 168 0 197 0 q 18 -5 98 0 l 13 0 l 15 29 l 22 35 q 94 41 82 38 q 104 46 101 43 q 111 54 108 49 q 126 90 119 66 q 161 269 134 118 l 205 510 l 245 745 q 264 885 264 860 q 249 909 264 903 q 155 918 233 915 l 150 924 l 153 953 l 159 958 q 210 957 163 958 q 349 953 317 953 q 488 958 414 953 l 493 953 l 491 924 l 485 918 q 404 910 414 914 q 393 902 398 907 q 383 877 389 897 q 328 604 366 813 l 273 285 q 241 65 241 91 q 248 48 241 54 q 281 39 255 42 q 352 35 307 37 l 356 29 m 330 1002 m 171 -74 m 559 1187 l 548 1126 l 129 1126 l 140 1187 l 559 1187 z "},"Į":{"ha":463,"x_min":13,"x_max":493,"o":"m 211 -1 q 141 -140 141 -102 q 197 -204 141 -204 q 279 -155 244 -204 l 285 -153 l 299 -161 l 300 -165 q 159 -285 231 -285 q 84 -259 114 -285 q 54 -194 54 -233 q 171 0 54 -120 l 168 0 q 18 -5 98 0 l 13 0 l 15 29 l 22 35 q 114 56 103 36 q 161 269 125 75 l 205 510 l 245 745 q 264 885 264 852 q 252 907 264 897 q 155 918 239 917 l 150 924 l 153 953 l 159 958 l 349 953 q 488 958 414 953 l 493 953 l 491 924 l 485 918 q 399 909 411 915 q 369 815 388 903 q 328 604 350 728 l 273 285 q 241 65 241 100 q 255 45 241 53 q 352 35 269 38 l 356 29 l 353 0 l 347 -5 q 303 -4 333 -5 l 211 -1 z "},"Ĵ":{"ha":463,"x_min":-46,"x_max":560,"o":"m 140 918 l 136 924 l 139 953 l 145 958 q 205 957 163 958 l 345 953 q 484 958 406 953 l 489 953 l 487 924 l 481 918 q 391 906 401 915 q 357 766 382 898 q 313 514 332 633 l 242 53 q 146 -210 214 -130 q 9 -289 79 -289 q -43 -276 -14 -289 l -46 -246 l -41 -240 q -7 -247 -24 -247 q 80 -181 51 -247 q 151 159 110 -115 l 245 772 q 260 885 260 865 q 242 908 260 900 q 140 918 224 917 m 527 1040 l 490 1040 l 363 1200 l 165 1040 l 127 1040 l 123 1046 l 340 1267 l 412 1267 l 532 1046 l 527 1040 m 371 1224 m 560 1071 z "},"Ķ":{"ha":926,"x_min":31,"x_max":945,"o":"m 172 953 l 178 958 l 368 953 q 507 958 432 953 l 511 953 l 509 924 l 503 918 q 422 910 434 914 q 401 876 410 906 q 364 697 391 846 l 326 485 q 565 701 429 562 l 728 867 q 758 905 753 893 q 763 953 762 918 l 768 958 q 858 954 814 954 q 940 958 890 954 l 945 953 l 943 924 l 937 918 q 877 908 896 918 q 810 854 857 899 l 439 505 l 741 133 q 813 55 793 70 q 890 35 834 41 l 895 30 l 892 0 l 886 -5 q 795 0 836 0 q 705 -5 770 0 q 323 468 545 226 q 260 65 260 108 q 274 45 260 53 q 370 35 288 38 l 374 29 l 371 0 l 365 -5 l 186 0 q 36 -5 117 0 l 31 0 l 33 29 l 40 35 q 133 56 121 36 q 180 269 144 75 l 224 510 l 264 745 q 282 885 282 852 q 270 907 282 897 q 173 918 258 917 l 168 924 l 172 953 m 345 -391 l 345 -375 q 458 -325 421 -359 q 494 -260 494 -292 q 464 -241 494 -241 q 395 -180 395 -241 q 419 -115 395 -144 q 488 -86 444 -86 q 568 -181 568 -86 q 508 -317 568 -254 q 345 -391 448 -380 z "},"Ĺ":{"ha":772,"x_min":33,"x_max":721,"o":"m 38 -5 l 33 0 l 36 29 l 41 35 q 85 45 79 41 q 99 58 92 48 q 115 101 106 67 q 159 328 123 135 l 201 560 l 225 709 q 248 881 248 860 q 240 905 248 899 q 212 914 233 911 q 138 918 191 916 l 134 924 l 137 953 l 144 958 q 346 953 227 953 q 486 958 435 953 l 492 953 l 488 924 l 483 918 q 392 908 400 911 q 378 900 383 905 q 370 884 373 895 q 330 693 359 857 l 248 215 q 230 60 232 112 q 371 52 306 52 q 508 55 457 52 q 589 62 559 57 q 626 73 618 68 q 638 87 633 78 q 655 134 644 96 l 680 222 l 686 227 l 715 227 l 721 221 q 689 1 695 62 l 683 -5 l 444 -2 l 131 0 q 38 -5 84 0 m 574 1251 q 298 1048 490 1194 l 290 1050 l 274 1063 l 275 1072 l 448 1255 l 568 1267 l 574 1251 z "},"Ļ":{"ha":772,"x_min":33,"x_max":721,"o":"m 38 -5 l 33 0 l 36 29 l 41 35 q 85 45 79 41 q 99 58 92 48 q 115 101 106 67 q 159 328 123 135 l 201 560 l 225 709 q 248 881 248 860 q 240 905 248 899 q 212 914 233 911 q 138 918 191 916 l 134 924 l 137 953 l 144 958 q 346 953 227 953 q 486 958 435 953 l 492 953 l 488 924 l 483 918 q 392 908 400 911 q 378 900 383 905 q 370 884 373 895 q 330 693 359 857 l 248 215 q 230 60 232 112 q 371 52 306 52 q 508 55 457 52 q 589 62 559 57 q 626 73 618 68 q 638 87 633 78 q 655 134 644 96 l 680 222 l 686 227 l 715 227 l 721 221 q 689 1 695 62 l 683 -5 l 444 -2 l 131 0 q 38 -5 84 0 m 257 -391 l 256 -375 q 370 -325 333 -359 q 406 -260 406 -292 q 376 -241 406 -241 q 307 -180 307 -241 q 331 -115 307 -144 q 399 -86 356 -86 q 480 -181 480 -86 q 420 -317 480 -254 q 257 -391 359 -380 z "},"Ľ":{"ha":772,"x_min":33,"x_max":753,"o":"m 38 -5 l 33 0 l 36 29 l 41 35 q 85 45 79 41 q 99 58 92 48 q 115 101 106 67 q 159 328 123 135 l 201 560 l 225 709 q 248 881 248 860 q 240 905 248 899 q 212 914 233 911 q 138 918 191 916 l 134 924 l 137 953 l 144 958 q 346 953 227 953 q 486 958 435 953 l 492 953 l 488 924 l 483 918 q 392 908 400 911 q 378 900 383 905 q 370 884 373 895 q 330 693 359 857 l 248 215 q 230 60 232 112 q 371 52 306 52 q 508 55 457 52 q 589 62 559 57 q 626 73 618 68 q 638 87 633 78 q 655 134 644 96 l 680 222 l 686 227 l 715 227 l 721 221 q 689 1 695 62 l 683 -5 l 444 -2 l 131 0 q 38 -5 84 0 m 530 654 l 529 669 q 642 719 606 686 q 679 784 679 753 q 648 803 679 803 q 579 865 579 803 q 604 929 579 900 q 672 958 629 958 q 753 863 753 958 q 692 727 753 791 q 530 654 632 664 z "},"Ŀ":{"ha":772,"x_min":33,"x_max":721,"o":"m 38 -5 l 33 0 l 36 29 l 41 35 q 85 45 79 41 q 99 58 92 48 q 115 101 106 67 q 159 328 123 135 l 201 560 l 225 709 q 248 881 248 860 q 240 905 248 899 q 212 914 233 911 q 138 918 191 916 l 134 924 l 137 953 l 144 958 q 346 953 227 953 q 486 958 435 953 l 492 953 l 488 924 l 483 918 q 392 908 400 911 q 378 900 383 905 q 370 884 373 895 q 330 693 359 857 l 248 215 q 230 60 232 112 q 371 52 306 52 q 508 55 457 52 q 589 62 559 57 q 626 73 618 68 q 638 87 633 78 q 655 134 644 96 l 680 222 l 686 227 l 715 227 l 721 221 q 689 1 695 62 l 683 -5 l 444 -2 l 131 0 q 38 -5 84 0 m 561 471 q 497 539 497 471 q 521 597 497 572 q 577 622 545 622 q 642 560 642 622 q 619 497 642 524 q 561 471 596 471 z "},"Ł":{"ha":772,"x_min":33,"x_max":721,"o":"m 185 471 q 232 751 216 639 q 248 881 248 863 q 240 905 248 899 q 212 914 233 911 q 138 918 191 916 l 134 924 l 138 953 l 144 958 q 346 953 227 953 q 487 958 436 953 l 492 953 l 489 924 l 484 918 l 420 913 q 385 906 395 911 q 370 887 376 901 q 345 771 365 872 q 302 534 325 669 l 548 665 l 556 663 l 568 633 l 566 625 l 293 480 l 260 285 l 240 158 q 230 60 231 100 q 371 52 307 52 q 511 55 459 52 q 591 63 563 58 q 626 73 619 68 q 639 87 633 78 q 656 136 644 97 l 680 222 l 687 227 l 715 227 l 721 221 q 690 1 696 71 l 684 -5 l 444 -2 l 131 0 q 38 -5 81 0 l 33 0 l 36 29 l 42 35 q 86 45 79 41 q 101 61 93 49 q 120 126 109 73 q 148 267 132 180 l 176 418 l 53 353 l 45 355 l 33 383 l 35 391 l 185 471 z "},"Ń":{"ha":1080,"x_min":9,"x_max":1110,"o":"m 14 -5 l 9 0 l 12 30 l 18 35 q 93 47 77 38 q 124 109 109 56 q 195 463 140 161 l 260 846 q 204 904 231 892 q 110 918 176 916 l 106 924 l 108 953 l 114 958 q 235 954 163 954 q 332 958 284 954 q 375 878 338 944 l 425 789 l 804 144 l 909 770 l 920 852 q 923 878 923 873 q 910 904 923 897 q 848 916 898 911 l 814 918 l 809 924 l 812 953 l 817 958 q 962 956 864 956 q 1105 958 1064 956 l 1110 953 l 1108 924 l 1103 918 q 1011 899 1019 913 q 969 718 1002 884 l 920 470 l 876 212 q 842 -18 857 106 l 773 -18 q 737 50 766 -4 l 694 125 l 309 781 l 241 414 l 215 241 q 195 84 195 112 q 212 46 195 56 q 286 36 228 37 q 311 35 296 36 l 315 30 l 313 1 l 307 -5 q 159 0 234 0 q 14 -5 100 0 m 863 1251 q 587 1048 778 1194 l 578 1050 l 562 1063 l 563 1072 l 736 1255 l 857 1267 l 863 1251 z "},"Ñ":{"ha":1080,"x_min":9,"x_max":1110,"o":"m 14 -5 l 9 0 l 12 30 l 18 35 q 93 47 77 38 q 124 109 109 56 q 195 463 140 161 l 260 846 q 204 904 231 892 q 110 918 176 916 l 106 924 l 108 953 l 114 958 q 235 954 163 954 q 332 958 284 954 q 375 878 338 944 l 425 789 l 804 144 l 909 770 l 920 852 q 923 878 923 873 q 910 904 923 897 q 848 916 898 911 l 814 918 l 809 924 l 812 953 l 817 958 q 962 956 864 956 q 1105 958 1064 956 l 1110 953 l 1108 924 l 1103 918 q 1011 899 1019 913 q 969 718 1002 884 l 920 470 l 876 212 q 842 -18 857 106 l 773 -18 q 737 50 766 -4 l 694 125 l 309 781 l 241 414 l 215 241 q 195 84 195 112 q 212 46 195 56 q 286 36 228 37 q 311 35 296 36 l 315 30 l 313 1 l 307 -5 q 159 0 234 0 q 14 -5 100 0 m 889 1224 q 843 1129 879 1172 q 764 1086 806 1086 q 674 1105 731 1086 l 603 1133 q 525 1152 556 1152 q 450 1080 476 1152 l 422 1080 l 417 1084 q 464 1186 425 1141 q 555 1230 504 1230 q 685 1189 587 1230 q 777 1165 747 1165 q 859 1227 838 1165 l 885 1227 l 889 1224 z "},"Ň":{"ha":1080,"x_min":9,"x_max":1110,"o":"m 14 -5 l 9 0 l 12 30 l 18 35 q 93 47 77 38 q 124 109 109 56 q 195 463 140 161 l 260 846 q 204 904 231 892 q 110 918 176 916 l 106 924 l 108 953 l 114 958 q 235 954 163 954 q 332 958 284 954 q 375 878 338 944 l 425 789 l 804 144 l 909 770 l 920 852 q 923 878 923 873 q 910 904 923 897 q 848 916 898 911 l 814 918 l 809 924 l 812 953 l 817 958 q 962 956 864 956 q 1105 958 1064 956 l 1110 953 l 1108 924 l 1103 918 q 1011 899 1019 913 q 969 718 1002 884 l 920 470 l 876 212 q 842 -18 857 106 l 773 -18 q 737 50 766 -4 l 694 125 l 309 781 l 241 414 l 215 241 q 195 84 195 112 q 212 46 195 56 q 286 36 228 37 q 311 35 296 36 l 315 30 l 313 1 l 307 -5 q 159 0 234 0 q 14 -5 100 0 m 865 1267 l 870 1261 l 650 1040 l 579 1040 l 460 1262 l 467 1267 l 494 1267 l 627 1107 l 832 1267 l 865 1267 z "},"Ņ":{"ha":1080,"x_min":9,"x_max":1110,"o":"m 14 -5 l 9 0 l 12 30 l 18 35 q 93 47 77 38 q 124 109 109 56 q 195 463 140 161 l 260 846 q 204 904 231 892 q 110 918 176 916 l 106 924 l 108 953 l 114 958 q 235 954 163 954 q 332 958 284 954 q 375 878 338 944 l 425 789 l 804 144 l 909 770 l 920 852 q 923 878 923 873 q 910 904 923 897 q 848 916 898 911 l 814 918 l 809 924 l 812 953 l 817 958 q 962 956 864 956 q 1105 958 1064 956 l 1110 953 l 1108 924 l 1103 918 q 1011 899 1019 913 q 969 718 1002 884 l 920 470 l 876 212 q 842 -18 857 106 l 773 -18 q 737 50 766 -4 l 694 125 l 309 781 l 241 414 l 215 241 q 195 84 195 112 q 212 46 195 56 q 286 36 228 37 q 311 35 296 36 l 315 30 l 313 1 l 307 -5 q 159 0 234 0 q 14 -5 100 0 m 359 -391 l 358 -375 q 471 -325 435 -359 q 508 -260 508 -292 q 477 -241 508 -241 q 408 -180 408 -241 q 433 -115 408 -144 q 501 -86 458 -86 q 582 -181 582 -86 q 522 -317 582 -254 q 359 -391 461 -380 z "},"Ó":{"ha":1080,"x_min":81,"x_max":1039,"o":"m 81 368 q 109 569 81 464 q 209 771 136 674 q 391 922 281 867 q 642 977 500 977 q 850 936 763 977 q 988 811 938 896 q 1039 595 1039 726 q 955 266 1039 419 q 741 42 871 113 q 465 -28 612 -28 q 313 -4 385 -28 q 187 72 241 19 q 107 202 133 125 q 81 368 81 279 m 203 375 q 234 191 203 267 q 337 73 266 115 q 511 32 409 32 q 726 97 638 32 q 866 303 814 161 q 917 585 917 445 q 899 723 917 663 q 840 829 882 782 q 738 899 799 876 q 605 922 677 922 q 397 863 486 922 q 256 667 309 804 q 203 375 203 531 m 622 1002 m 463 -74 m 836 1251 q 559 1048 751 1194 l 551 1050 l 535 1063 l 536 1072 l 709 1255 l 829 1267 l 836 1251 z "},"Ò":{"ha":1080,"x_min":81,"x_max":1039,"o":"m 81 368 q 109 569 81 464 q 209 771 136 674 q 391 922 281 867 q 642 977 500 977 q 850 936 763 977 q 988 811 938 896 q 1039 595 1039 726 q 955 266 1039 419 q 741 42 871 113 q 465 -28 612 -28 q 313 -4 385 -28 q 187 72 241 19 q 107 202 133 125 q 81 368 81 279 m 203 375 q 234 191 203 267 q 337 73 266 115 q 511 32 409 32 q 726 97 638 32 q 866 303 814 161 q 917 585 917 445 q 899 723 917 663 q 840 829 882 782 q 738 899 799 876 q 605 922 677 922 q 397 863 486 922 q 256 667 309 804 q 203 375 203 531 m 622 1002 m 463 -74 m 745 1067 l 722 1052 l 716 1053 l 448 1249 l 454 1267 l 572 1255 l 744 1075 l 745 1067 z "},"Ô":{"ha":1080,"x_min":81,"x_max":1039,"o":"m 81 368 q 109 569 81 464 q 209 771 136 674 q 391 922 281 867 q 642 977 500 977 q 850 936 763 977 q 988 811 938 896 q 1039 595 1039 726 q 955 266 1039 419 q 741 42 871 113 q 465 -28 612 -28 q 313 -4 385 -28 q 187 72 241 19 q 107 202 133 125 q 81 368 81 279 m 203 375 q 234 191 203 267 q 337 73 266 115 q 511 32 409 32 q 726 97 638 32 q 866 303 814 161 q 917 585 917 445 q 899 723 917 663 q 840 829 882 782 q 738 899 799 876 q 605 922 677 922 q 397 863 486 922 q 256 667 309 804 q 203 375 203 531 m 622 1002 m 463 -74 m 829 1040 l 792 1040 l 665 1200 l 467 1040 l 429 1040 l 425 1046 l 642 1267 l 713 1267 l 834 1046 l 829 1040 m 673 1224 m 862 1071 z "},"Ö":{"ha":1080,"x_min":81,"x_max":1039,"o":"m 81 368 q 109 569 81 464 q 209 771 136 674 q 391 922 281 867 q 642 977 500 977 q 850 936 763 977 q 988 811 938 896 q 1039 595 1039 726 q 955 266 1039 419 q 741 42 871 113 q 465 -28 612 -28 q 313 -4 385 -28 q 187 72 241 19 q 107 202 133 125 q 81 368 81 279 m 203 375 q 234 191 203 267 q 337 73 266 115 q 511 32 409 32 q 726 97 638 32 q 866 303 814 161 q 917 585 917 445 q 899 723 917 663 q 840 829 882 782 q 738 899 799 876 q 605 922 677 922 q 397 863 486 922 q 256 667 309 804 q 203 375 203 531 m 622 1002 m 463 -74 m 772 1090 q 708 1158 708 1090 q 732 1215 708 1190 q 788 1240 755 1240 q 853 1179 853 1240 q 830 1116 853 1143 q 772 1090 808 1090 m 509 1090 q 444 1158 444 1090 q 468 1216 444 1191 q 525 1240 492 1240 q 589 1179 589 1240 q 567 1116 589 1143 q 509 1090 544 1090 z "},"Õ":{"ha":1080,"x_min":81,"x_max":1039,"o":"m 81 368 q 109 569 81 464 q 209 771 136 674 q 391 922 281 867 q 642 977 500 977 q 850 936 763 977 q 988 811 938 896 q 1039 595 1039 726 q 955 266 1039 419 q 741 42 871 113 q 465 -28 612 -28 q 313 -4 385 -28 q 187 72 241 19 q 107 202 133 125 q 81 368 81 279 m 203 375 q 234 191 203 267 q 337 73 266 115 q 511 32 409 32 q 726 97 638 32 q 866 303 814 161 q 917 585 917 445 q 899 723 917 663 q 840 829 882 782 q 738 899 799 876 q 605 922 677 922 q 397 863 486 922 q 256 667 309 804 q 203 375 203 531 m 622 1002 m 463 -74 m 889 1224 q 843 1129 879 1172 q 764 1086 806 1086 q 674 1105 731 1086 l 603 1133 q 525 1152 556 1152 q 450 1080 476 1152 l 422 1080 l 417 1084 q 464 1186 425 1141 q 555 1230 504 1230 q 685 1189 587 1230 q 777 1165 747 1165 q 859 1227 838 1165 l 885 1227 l 889 1224 z "},"Ŏ":{"ha":1080,"x_min":81,"x_max":1039,"o":"m 81 368 q 109 569 81 464 q 209 771 136 674 q 391 922 281 867 q 642 977 500 977 q 850 936 763 977 q 988 811 938 896 q 1039 595 1039 726 q 955 266 1039 419 q 741 42 871 113 q 465 -28 612 -28 q 313 -4 385 -28 q 187 72 241 19 q 107 202 133 125 q 81 368 81 279 m 203 375 q 234 191 203 267 q 337 73 266 115 q 511 32 409 32 q 726 97 638 32 q 866 303 814 161 q 917 585 917 445 q 899 723 917 663 q 840 829 882 782 q 738 899 799 876 q 605 922 677 922 q 397 863 486 922 q 256 667 309 804 q 203 375 203 531 m 622 1002 m 463 -74 m 454 1256 l 492 1256 q 644 1119 503 1119 q 826 1256 768 1119 l 866 1256 q 635 1036 809 1036 q 502 1085 551 1036 q 452 1220 452 1134 q 454 1256 452 1233 m 658 1219 z "},"Ő":{"ha":1080,"x_min":81,"x_max":1039,"o":"m 81 368 q 109 569 81 464 q 209 771 136 674 q 391 922 281 867 q 642 977 500 977 q 850 936 763 977 q 988 811 938 896 q 1039 595 1039 726 q 955 266 1039 419 q 741 42 871 113 q 465 -28 612 -28 q 313 -4 385 -28 q 187 72 241 19 q 107 202 133 125 q 81 368 81 279 m 203 375 q 234 191 203 267 q 337 73 266 115 q 511 32 409 32 q 726 97 638 32 q 866 303 814 161 q 917 585 917 445 q 899 723 917 663 q 840 829 882 782 q 738 899 799 876 q 605 922 677 922 q 397 863 486 922 q 256 667 309 804 q 203 375 203 531 m 622 1002 m 463 -74 m 991 1244 l 715 1050 l 708 1050 l 694 1062 l 692 1072 q 863 1255 762 1150 l 983 1266 l 991 1244 m 747 1244 l 471 1051 l 464 1050 l 447 1063 l 446 1072 l 618 1255 l 738 1266 l 747 1244 z "},"Ō":{"ha":1080,"x_min":81,"x_max":1039,"o":"m 81 368 q 109 569 81 464 q 209 771 136 674 q 391 922 281 867 q 642 977 500 977 q 850 936 763 977 q 988 811 938 896 q 1039 595 1039 726 q 955 266 1039 419 q 741 42 871 113 q 465 -28 612 -28 q 313 -4 385 -28 q 187 72 241 19 q 107 202 133 125 q 81 368 81 279 m 203 375 q 234 191 203 267 q 337 73 266 115 q 511 32 409 32 q 726 97 638 32 q 866 303 814 161 q 917 585 917 445 q 899 723 917 663 q 840 829 882 782 q 738 899 799 876 q 605 922 677 922 q 397 863 486 922 q 256 667 309 804 q 203 375 203 531 m 622 1002 m 463 -74 m 865 1187 l 853 1126 l 434 1126 l 446 1187 l 865 1187 z "},"Ø":{"ha":1080,"x_min":58,"x_max":1053,"o":"m 85 -52 l 58 -26 l 58 -18 l 160 91 q 81 372 81 195 q 164 697 81 551 q 367 909 246 844 q 636 975 488 975 q 746 965 694 975 q 834 940 798 956 q 917 892 871 924 l 1015 995 l 1023 995 l 1053 968 l 1053 959 l 956 855 q 1020 730 1003 791 q 1037 595 1037 668 q 945 252 1037 406 q 724 34 853 98 q 464 -29 595 -29 q 196 54 309 -29 l 95 -52 l 85 -52 m 847 818 q 602 921 760 921 q 398 864 486 921 q 256 670 311 807 q 202 386 202 534 q 241 177 202 258 l 847 818 m 269 132 q 508 31 350 31 q 667 63 592 31 q 797 171 742 96 q 883 356 851 245 q 914 581 914 467 q 878 772 914 694 l 269 132 z "},"Ǿ":{"ha":1080,"x_min":58,"x_max":1053,"o":"m 85 -52 l 58 -26 l 58 -18 l 160 91 q 81 372 81 195 q 164 697 81 551 q 367 909 246 844 q 636 975 488 975 q 746 965 694 975 q 834 940 798 956 q 917 892 871 924 l 1015 995 l 1023 995 l 1053 968 l 1053 959 l 956 855 q 1020 730 1003 791 q 1037 595 1037 668 q 945 252 1037 406 q 724 34 853 98 q 464 -29 595 -29 q 196 54 309 -29 l 95 -52 l 85 -52 m 847 818 q 602 921 760 921 q 398 864 486 921 q 256 670 311 807 q 202 386 202 534 q 241 177 202 258 l 847 818 m 269 132 q 508 31 350 31 q 667 63 592 31 q 797 171 742 96 q 883 356 851 245 q 914 581 914 467 q 878 772 914 694 l 269 132 m 829 1251 q 553 1048 744 1194 l 544 1050 l 528 1063 l 529 1072 l 702 1255 l 823 1267 l 829 1251 z "},"Œ":{"ha":1428,"x_min":98,"x_max":1379,"o":"m 1373 958 l 1379 953 q 1367 869 1377 937 l 1361 817 l 1354 751 l 1348 745 l 1324 745 l 1319 751 q 1310 868 1312 858 q 1296 884 1307 878 q 1227 895 1285 890 q 1122 900 1169 900 l 1083 900 q 1006 894 1057 900 q 937 521 979 771 q 1042 519 1006 519 q 1268 528 1134 519 l 1273 521 l 1247 456 q 1005 464 1088 464 q 926 463 989 464 l 885 216 q 862 64 867 105 q 1024 56 958 56 q 1169 60 1108 56 q 1243 70 1230 64 q 1264 90 1256 76 q 1285 157 1272 103 q 1302 216 1295 193 l 1308 221 l 1337 221 l 1341 216 q 1321 110 1332 186 q 1309 1 1310 33 l 1300 -5 l 1098 -2 q 972 0 1015 0 q 749 -5 901 0 l 741 1 q 757 64 747 24 q 770 125 766 102 q 594 9 677 39 q 436 -21 511 -21 q 301 4 366 -21 q 190 79 236 28 q 120 205 143 129 q 98 366 98 281 q 133 592 98 477 q 253 800 169 706 q 436 935 337 894 q 640 975 534 975 q 797 945 732 975 q 894 857 861 915 q 908 954 904 909 l 914 958 q 1018 955 921 958 q 1114 953 1090 953 l 1259 955 q 1373 958 1332 956 m 844 618 q 850 688 850 659 q 839 772 850 731 q 793 851 827 813 q 714 905 758 888 q 604 922 670 922 q 440 880 515 922 q 315 757 366 838 q 240 573 263 676 q 217 371 217 469 q 292 127 217 207 q 486 47 367 47 q 690 121 602 47 q 807 378 779 195 l 844 618 z "},"Ŕ":{"ha":926,"x_min":22,"x_max":886,"o":"m 395 894 l 313 452 l 264 163 q 255 85 255 104 q 303 39 255 48 q 380 35 305 39 l 385 29 l 380 0 l 374 -5 q 195 0 302 0 q 27 -5 110 0 l 22 0 l 24 29 l 31 35 q 124 56 113 36 q 171 269 135 75 l 215 510 l 255 745 q 273 885 273 852 q 261 907 273 897 q 164 918 249 917 l 159 924 l 163 953 l 169 958 q 331 953 222 953 l 556 958 q 749 906 689 958 q 809 773 809 855 q 735 596 809 673 q 522 488 661 519 q 558 431 532 473 q 699 216 602 358 q 821 54 795 74 q 882 35 847 35 l 886 29 l 884 0 l 878 -5 q 795 -1 821 -1 q 703 -5 791 -1 q 648 85 701 -3 l 605 157 q 547 249 585 192 l 412 452 l 372 506 l 379 522 l 435 519 q 621 590 553 519 q 689 751 689 661 q 500 906 689 906 q 395 894 454 906 m 727 1251 q 451 1048 642 1194 l 442 1050 l 427 1063 l 427 1072 l 600 1255 l 721 1267 l 727 1251 z "},"Ř":{"ha":926,"x_min":22,"x_max":886,"o":"m 395 894 l 313 452 l 264 163 q 255 85 255 104 q 303 39 255 48 q 380 35 305 39 l 385 29 l 380 0 l 374 -5 q 195 0 302 0 q 27 -5 110 0 l 22 0 l 24 29 l 31 35 q 124 56 113 36 q 171 269 135 75 l 215 510 l 255 745 q 273 885 273 852 q 261 907 273 897 q 164 918 249 917 l 159 924 l 163 953 l 169 958 q 331 953 222 953 l 556 958 q 749 906 689 958 q 809 773 809 855 q 735 596 809 673 q 522 488 661 519 q 558 431 532 473 q 699 216 602 358 q 821 54 795 74 q 882 35 847 35 l 886 29 l 884 0 l 878 -5 q 795 -1 821 -1 q 703 -5 791 -1 q 648 85 701 -3 l 605 157 q 547 249 585 192 l 412 452 l 372 506 l 379 522 l 435 519 q 621 590 553 519 q 689 751 689 661 q 500 906 689 906 q 395 894 454 906 m 749 1267 l 755 1261 l 535 1040 l 464 1040 l 345 1262 l 351 1267 l 378 1267 l 512 1107 l 717 1267 l 749 1267 z "},"Ŗ":{"ha":926,"x_min":22,"x_max":886,"o":"m 395 894 l 313 452 l 264 163 q 255 85 255 104 q 303 39 255 48 q 380 35 305 39 l 385 29 l 380 0 l 374 -5 q 195 0 302 0 q 27 -5 110 0 l 22 0 l 24 29 l 31 35 q 124 56 113 36 q 171 269 135 75 l 215 510 l 255 745 q 273 885 273 852 q 261 907 273 897 q 164 918 249 917 l 159 924 l 163 953 l 169 958 q 331 953 222 953 l 556 958 q 749 906 689 958 q 809 773 809 855 q 735 596 809 673 q 522 488 661 519 q 558 431 532 473 q 699 216 602 358 q 821 54 795 74 q 882 35 847 35 l 886 29 l 884 0 l 878 -5 q 795 -1 821 -1 q 703 -5 791 -1 q 648 85 701 -3 l 605 157 q 547 249 585 192 l 412 452 l 372 506 l 379 522 l 435 519 q 621 590 553 519 q 689 751 689 661 q 500 906 689 906 q 395 894 454 906 m 317 -391 l 316 -375 q 429 -325 393 -359 q 466 -260 466 -292 q 435 -241 466 -241 q 366 -180 366 -241 q 391 -115 366 -144 q 459 -86 416 -86 q 540 -181 540 -86 q 479 -317 540 -254 q 317 -391 419 -380 z "},"Ś":{"ha":772,"x_min":73,"x_max":727,"o":"m 73 31 q 106 229 96 121 l 113 235 l 141 235 l 146 230 l 149 100 q 244 48 199 60 q 331 37 290 37 q 513 107 452 37 q 573 265 573 176 q 555 342 573 311 q 506 390 536 374 q 395 424 476 406 q 256 468 301 445 q 187 537 212 491 q 163 648 163 583 q 216 819 163 745 q 352 933 270 893 q 535 972 434 972 q 705 930 634 972 l 707 922 q 677 745 691 856 l 671 740 l 642 740 l 636 745 l 636 845 q 479 907 583 907 q 367 881 417 907 q 290 805 317 855 q 262 696 262 755 q 282 609 262 644 q 339 558 303 574 q 463 522 376 542 q 565 494 535 505 q 624 459 595 484 q 667 399 652 434 q 682 317 682 364 q 622 142 682 220 q 480 17 563 64 q 281 -29 397 -29 q 75 23 171 -29 l 73 31 m 727 1251 q 451 1048 642 1194 l 442 1050 l 427 1063 l 427 1072 l 600 1255 l 721 1267 l 727 1251 z "},"Ŝ":{"ha":772,"x_min":73,"x_max":736,"o":"m 73 31 q 106 229 96 121 l 113 235 l 141 235 l 146 230 l 149 100 q 244 48 199 60 q 331 37 290 37 q 513 107 452 37 q 573 265 573 176 q 555 342 573 311 q 506 390 536 374 q 395 424 476 406 q 256 468 301 445 q 187 537 212 491 q 163 648 163 583 q 216 819 163 745 q 352 933 270 893 q 535 972 434 972 q 705 930 634 972 l 707 922 q 677 745 691 856 l 671 740 l 642 740 l 636 745 l 636 845 q 479 907 583 907 q 367 881 417 907 q 290 805 317 855 q 262 696 262 755 q 282 609 262 644 q 339 558 303 574 q 463 522 376 542 q 565 494 535 505 q 624 459 595 484 q 667 399 652 434 q 682 317 682 364 q 622 142 682 220 q 480 17 563 64 q 281 -29 397 -29 q 75 23 171 -29 l 73 31 m 703 1040 l 667 1040 l 540 1200 l 342 1040 l 303 1040 l 300 1046 l 516 1267 l 588 1267 l 709 1046 l 703 1040 m 547 1224 m 736 1071 z "},"Š":{"ha":772,"x_min":73,"x_max":741,"o":"m 73 31 q 106 229 96 121 l 113 235 l 141 235 l 146 230 l 149 100 q 244 48 199 60 q 331 37 290 37 q 513 107 452 37 q 573 265 573 176 q 555 342 573 311 q 506 390 536 374 q 395 424 476 406 q 256 468 301 445 q 187 537 212 491 q 163 648 163 583 q 216 819 163 745 q 352 933 270 893 q 535 972 434 972 q 705 930 634 972 l 707 922 q 677 745 691 856 l 671 740 l 642 740 l 636 745 l 636 845 q 479 907 583 907 q 367 881 417 907 q 290 805 317 855 q 262 696 262 755 q 282 609 262 644 q 339 558 303 574 q 463 522 376 542 q 565 494 535 505 q 624 459 595 484 q 667 399 652 434 q 682 317 682 364 q 622 142 682 220 q 480 17 563 64 q 281 -29 397 -29 q 75 23 171 -29 l 73 31 m 736 1267 l 741 1261 l 522 1040 l 450 1040 l 331 1262 l 338 1267 l 365 1267 l 498 1107 l 703 1267 l 736 1267 z "},"Ș":{"ha":772,"x_min":73,"x_max":707,"o":"m 73 31 q 106 229 96 121 l 113 235 l 141 235 l 146 230 l 149 100 q 244 48 199 60 q 331 37 290 37 q 513 107 452 37 q 573 265 573 176 q 555 342 573 311 q 506 390 536 374 q 395 424 476 406 q 256 468 301 445 q 187 537 212 491 q 163 648 163 583 q 216 819 163 745 q 352 933 270 893 q 535 972 434 972 q 705 930 634 972 l 707 922 q 677 745 691 856 l 671 740 l 642 740 l 636 745 l 636 845 q 479 907 583 907 q 367 881 417 907 q 290 805 317 855 q 262 696 262 755 q 282 609 262 644 q 339 558 303 574 q 463 522 376 542 q 565 494 535 505 q 624 459 595 484 q 667 399 652 434 q 682 317 682 364 q 622 142 682 220 q 480 17 563 64 q 281 -29 397 -29 q 75 23 171 -29 l 73 31 m 189 -391 l 189 -375 q 302 -325 265 -359 q 338 -260 338 -292 q 308 -241 338 -241 q 239 -180 239 -241 q 263 -115 239 -144 q 332 -86 288 -86 q 412 -181 412 -86 q 352 -317 412 -254 q 189 -391 292 -380 z "},"Ş":{"ha":772,"x_min":73,"x_max":707,"o":"m 302 -28 l 267 -92 q 300 -88 283 -88 q 382 -113 350 -88 q 414 -180 414 -138 q 369 -267 414 -234 q 253 -299 325 -299 q 129 -273 191 -299 l 127 -264 l 138 -248 l 145 -245 q 222 -260 179 -260 q 290 -240 263 -260 q 317 -188 317 -220 q 298 -152 317 -166 q 253 -137 279 -137 q 205 -144 228 -137 l 195 -133 l 262 -28 q 75 23 162 -24 l 73 31 q 106 229 96 121 l 113 235 l 141 235 l 146 230 l 149 100 q 331 37 227 37 q 499 93 425 37 q 573 265 573 149 q 554 345 573 313 q 502 392 536 377 q 395 424 467 408 q 247 473 289 448 q 183 543 204 499 q 163 648 163 586 q 269 878 163 783 q 535 972 374 972 q 705 930 634 972 l 707 922 q 677 745 691 856 l 671 740 l 642 740 l 636 745 l 636 845 q 479 907 583 907 q 318 845 374 907 q 262 696 262 782 q 278 616 262 650 q 329 563 294 583 q 463 522 364 544 q 590 483 552 501 q 655 422 628 465 q 682 317 682 380 q 568 81 682 187 q 302 -28 455 -24 z "},"Ț":{"ha":849,"x_min":106,"x_max":908,"o":"m 187 -5 l 182 0 l 185 30 l 191 35 q 287 46 272 41 q 306 59 301 52 q 317 87 311 66 q 352 251 323 109 q 410 575 380 393 q 455 893 440 756 q 202 882 231 893 q 145 736 174 871 l 139 730 l 112 730 l 106 736 q 129 951 127 908 l 136 958 l 185 955 q 231 954 196 954 l 515 948 l 856 954 q 902 958 862 954 l 908 951 q 873 736 890 885 l 866 730 l 839 730 l 833 736 q 836 819 834 748 q 824 879 835 864 q 571 893 813 893 q 542 737 564 864 l 497 486 q 463 274 489 440 q 437 75 437 108 q 450 47 437 56 q 564 35 464 39 l 569 29 l 566 0 l 560 -5 q 376 0 446 0 q 187 -5 275 0 m 216 -391 l 216 -375 q 329 -325 292 -359 q 366 -260 366 -292 q 335 -241 366 -241 q 266 -180 266 -241 q 291 -115 266 -144 q 359 -86 315 -86 q 439 -181 439 -86 q 379 -317 439 -254 q 216 -391 319 -380 z "},"Ť":{"ha":849,"x_min":106,"x_max":908,"o":"m 187 -5 l 182 0 l 185 30 l 191 35 q 287 46 272 41 q 306 59 301 52 q 317 87 311 66 q 352 251 323 109 q 410 575 380 393 q 455 893 440 756 q 202 882 231 893 q 145 736 174 871 l 139 730 l 112 730 l 106 736 q 129 951 127 908 l 136 958 l 185 955 q 231 954 196 954 l 515 948 l 856 954 q 902 958 862 954 l 908 951 q 873 736 890 885 l 866 730 l 839 730 l 833 736 q 836 819 834 748 q 824 879 835 864 q 571 893 813 893 q 542 737 564 864 l 497 486 q 463 274 489 440 q 437 75 437 108 q 450 47 437 56 q 564 35 464 39 l 569 29 l 566 0 l 560 -5 q 376 0 446 0 q 187 -5 275 0 m 777 1267 l 782 1261 l 562 1040 l 491 1040 l 372 1262 l 378 1267 l 406 1267 l 539 1107 l 744 1267 l 777 1267 z "},"Ţ":{"ha":849,"x_min":106,"x_max":908,"o":"m 187 -5 l 182 0 l 185 30 l 191 35 q 287 46 272 41 q 306 59 301 52 q 317 87 311 66 q 352 251 323 109 q 410 575 380 393 q 455 893 440 756 q 202 882 231 893 q 145 736 174 871 l 139 730 l 112 730 l 106 736 q 129 951 127 908 l 136 958 l 185 955 q 231 954 196 954 l 515 948 l 856 954 q 902 958 862 954 l 908 951 q 873 736 890 885 l 866 730 l 839 730 l 833 736 q 836 819 834 748 q 824 879 835 864 q 571 893 813 893 q 542 737 564 864 l 497 486 q 463 274 489 440 q 437 75 437 108 q 450 47 437 56 q 564 35 464 39 l 569 29 l 566 0 l 560 -5 q 376 0 446 0 q 187 -5 275 0 m 473 -184 q 417 -275 473 -243 q 309 -300 371 -300 q 183 -274 244 -300 l 181 -266 l 199 -237 l 207 -234 q 292 -252 251 -252 q 372 -192 372 -252 q 307 -138 372 -138 q 259 -145 284 -138 l 249 -134 q 355 -90 284 -90 q 436 -112 404 -90 q 473 -184 473 -137 z "},"Ŧ":{"ha":849,"x_min":106,"x_max":908,"o":"m 799 664 l 791 612 l 519 612 q 459 253 481 400 q 437 75 437 106 q 445 50 437 55 q 466 42 453 45 q 564 35 479 39 l 569 29 l 566 0 l 560 -5 q 376 0 446 0 q 187 -5 275 0 l 182 0 l 185 30 l 191 35 q 289 47 275 41 q 309 63 302 53 q 335 168 316 73 q 374 380 354 262 l 414 612 l 155 612 l 163 664 l 422 664 q 455 893 446 807 q 324 891 425 893 q 209 884 223 888 q 189 873 195 880 q 174 844 184 867 q 145 736 165 821 l 139 730 l 112 730 l 106 736 q 129 951 127 908 l 136 958 l 185 955 q 231 954 191 954 l 389 950 q 515 948 507 948 q 628 950 517 948 l 792 953 l 856 954 q 902 958 867 955 l 908 951 q 873 736 890 885 l 866 730 l 839 730 l 833 736 q 834 755 834 753 q 832 865 834 856 q 822 879 830 873 q 737 889 814 884 q 571 893 660 893 q 553 802 564 865 l 529 664 l 799 664 z "},"Ú":{"ha":1080,"x_min":132,"x_max":1109,"o":"m 982 28 l 977 0 l 971 -5 q 833 0 909 0 q 736 -5 781 0 l 731 0 l 765 168 q 605 35 703 94 q 392 -24 508 -24 q 258 4 317 -24 q 170 82 198 33 q 142 190 142 132 q 152 294 142 229 q 185 487 162 359 q 246 876 246 820 q 234 905 246 898 q 203 915 222 912 q 137 919 184 917 l 132 924 l 134 953 l 140 958 q 256 955 216 955 q 381 958 310 955 l 351 810 q 317 628 337 743 l 281 431 q 260 304 267 349 q 253 242 254 260 q 252 208 252 224 q 310 92 252 130 q 446 53 368 53 q 608 99 519 53 q 779 244 696 145 l 855 714 q 878 881 878 851 q 862 909 878 903 q 763 919 846 915 l 758 924 l 760 953 l 766 958 q 950 954 847 954 q 1104 958 1024 954 l 1109 953 l 1106 924 l 1100 919 q 1021 911 1032 916 q 1009 901 1015 908 q 996 868 1003 895 q 943 608 979 805 l 890 290 q 858 69 858 90 q 864 48 858 54 q 899 39 871 42 q 977 34 927 35 l 982 28 m 595 1002 m 435 -74 m 849 1251 q 573 1048 764 1194 l 564 1050 l 549 1063 l 549 1072 l 722 1255 l 843 1267 l 849 1251 z "},"Ù":{"ha":1080,"x_min":132,"x_max":1109,"o":"m 982 28 l 977 0 l 971 -5 q 833 0 909 0 q 736 -5 781 0 l 731 0 l 765 168 q 605 35 703 94 q 392 -24 508 -24 q 258 4 317 -24 q 170 82 198 33 q 142 190 142 132 q 152 294 142 229 q 185 487 162 359 q 246 876 246 820 q 234 905 246 898 q 203 915 222 912 q 137 919 184 917 l 132 924 l 134 953 l 140 958 q 256 955 216 955 q 381 958 310 955 l 351 810 q 317 628 337 743 l 281 431 q 260 304 267 349 q 253 242 254 260 q 252 208 252 224 q 310 92 252 130 q 446 53 368 53 q 608 99 519 53 q 779 244 696 145 l 855 714 q 878 881 878 851 q 862 909 878 903 q 763 919 846 915 l 758 924 l 760 953 l 766 958 q 950 954 847 954 q 1104 958 1024 954 l 1109 953 l 1106 924 l 1100 919 q 1021 911 1032 916 q 1009 901 1015 908 q 996 868 1003 895 q 943 608 979 805 l 890 290 q 858 69 858 90 q 864 48 858 54 q 899 39 871 42 q 977 34 927 35 l 982 28 m 595 1002 m 435 -74 m 730 1067 l 707 1052 l 701 1053 l 433 1249 l 439 1267 l 557 1255 l 729 1075 l 730 1067 z "},"Û":{"ha":1080,"x_min":132,"x_max":1109,"o":"m 982 28 l 977 0 l 971 -5 q 833 0 909 0 q 736 -5 781 0 l 731 0 l 765 168 q 605 35 703 94 q 392 -24 508 -24 q 258 4 317 -24 q 170 82 198 33 q 142 190 142 132 q 152 294 142 229 q 185 487 162 359 q 246 876 246 820 q 234 905 246 898 q 203 915 222 912 q 137 919 184 917 l 132 924 l 134 953 l 140 958 q 256 955 216 955 q 381 958 310 955 l 351 810 q 317 628 337 743 l 281 431 q 260 304 267 349 q 253 242 254 260 q 252 208 252 224 q 310 92 252 130 q 446 53 368 53 q 608 99 519 53 q 779 244 696 145 l 855 714 q 878 881 878 851 q 862 909 878 903 q 763 919 846 915 l 758 924 l 760 953 l 766 958 q 950 954 847 954 q 1104 958 1024 954 l 1109 953 l 1106 924 l 1100 919 q 1021 911 1032 916 q 1009 901 1015 908 q 996 868 1003 895 q 943 608 979 805 l 890 290 q 858 69 858 90 q 864 48 858 54 q 899 39 871 42 q 977 34 927 35 l 982 28 m 595 1002 m 435 -74 m 802 1040 l 765 1040 l 638 1200 l 440 1040 l 401 1040 l 398 1046 l 614 1267 l 686 1267 l 807 1046 l 802 1040 m 646 1224 m 835 1071 z "},"Ü":{"ha":1080,"x_min":132,"x_max":1109,"o":"m 982 28 l 977 0 l 971 -5 q 833 0 909 0 q 736 -5 781 0 l 731 0 l 765 168 q 605 35 703 94 q 392 -24 508 -24 q 258 4 317 -24 q 170 82 198 33 q 142 190 142 132 q 152 294 142 229 q 185 487 162 359 q 246 876 246 820 q 234 905 246 898 q 203 915 222 912 q 137 919 184 917 l 132 924 l 134 953 l 140 958 q 256 955 216 955 q 381 958 310 955 l 351 810 q 317 628 337 743 l 281 431 q 260 304 267 349 q 253 242 254 260 q 252 208 252 224 q 310 92 252 130 q 446 53 368 53 q 608 99 519 53 q 779 244 696 145 l 855 714 q 878 881 878 851 q 862 909 878 903 q 763 919 846 915 l 758 924 l 760 953 l 766 958 q 950 954 847 954 q 1104 958 1024 954 l 1109 953 l 1106 924 l 1100 919 q 1021 911 1032 916 q 1009 901 1015 908 q 996 868 1003 895 q 943 608 979 805 l 890 290 q 858 69 858 90 q 864 48 858 54 q 899 39 871 42 q 977 34 927 35 l 982 28 m 595 1002 m 435 -74 m 782 1090 q 718 1158 718 1090 q 742 1215 718 1190 q 798 1240 766 1240 q 863 1179 863 1240 q 841 1116 863 1143 q 782 1090 818 1090 m 519 1090 q 454 1158 454 1090 q 478 1216 454 1191 q 535 1240 502 1240 q 600 1179 600 1240 q 577 1116 600 1143 q 519 1090 554 1090 z "},"Ũ":{"ha":1080,"x_min":132,"x_max":1109,"o":"m 982 28 l 977 0 l 971 -5 q 833 0 909 0 q 736 -5 781 0 l 731 0 l 765 168 q 605 35 703 94 q 392 -24 508 -24 q 258 4 317 -24 q 170 82 198 33 q 142 190 142 132 q 152 294 142 229 q 185 487 162 359 q 246 876 246 820 q 234 905 246 898 q 203 915 222 912 q 137 919 184 917 l 132 924 l 134 953 l 140 958 q 256 955 216 955 q 381 958 310 955 l 351 810 q 317 628 337 743 l 281 431 q 260 304 267 349 q 253 242 254 260 q 252 208 252 224 q 310 92 252 130 q 446 53 368 53 q 608 99 519 53 q 779 244 696 145 l 855 714 q 878 881 878 851 q 862 909 878 903 q 763 919 846 915 l 758 924 l 760 953 l 766 958 q 950 954 847 954 q 1104 958 1024 954 l 1109 953 l 1106 924 l 1100 919 q 1021 911 1032 916 q 1009 901 1015 908 q 996 868 1003 895 q 943 608 979 805 l 890 290 q 858 69 858 90 q 864 48 858 54 q 899 39 871 42 q 977 34 927 35 l 982 28 m 595 1002 m 435 -74 m 877 1224 q 830 1129 867 1172 q 752 1086 794 1086 q 662 1105 719 1086 l 591 1133 q 513 1152 544 1152 q 437 1080 464 1152 l 410 1080 l 405 1084 q 452 1186 412 1141 q 543 1230 492 1230 q 673 1189 575 1230 q 764 1165 735 1165 q 847 1227 825 1165 l 873 1227 l 877 1224 z "},"Ŭ":{"ha":1080,"x_min":132,"x_max":1109,"o":"m 982 28 l 977 0 l 971 -5 q 833 0 909 0 q 736 -5 781 0 l 731 0 l 765 168 q 605 35 703 94 q 392 -24 508 -24 q 258 4 317 -24 q 170 82 198 33 q 142 190 142 132 q 152 294 142 229 q 185 487 162 359 q 246 876 246 820 q 234 905 246 898 q 203 915 222 912 q 137 919 184 917 l 132 924 l 134 953 l 140 958 q 256 955 216 955 q 381 958 310 955 l 351 810 q 317 628 337 743 l 281 431 q 260 304 267 349 q 253 242 254 260 q 252 208 252 224 q 310 92 252 130 q 446 53 368 53 q 608 99 519 53 q 779 244 696 145 l 855 714 q 878 881 878 851 q 862 909 878 903 q 763 919 846 915 l 758 924 l 760 953 l 766 958 q 950 954 847 954 q 1104 958 1024 954 l 1109 953 l 1106 924 l 1100 919 q 1021 911 1032 916 q 1009 901 1015 908 q 996 868 1003 895 q 943 608 979 805 l 890 290 q 858 69 858 90 q 864 48 858 54 q 899 39 871 42 q 977 34 927 35 l 982 28 m 595 1002 m 435 -74 m 437 1256 l 475 1256 q 627 1119 486 1119 q 809 1256 751 1119 l 849 1256 q 618 1036 792 1036 q 485 1085 534 1036 q 435 1220 435 1134 q 437 1256 435 1233 m 641 1219 z "},"Ů":{"ha":1080,"x_min":132,"x_max":1109,"o":"m 982 28 l 977 0 l 971 -5 q 833 0 909 0 q 736 -5 781 0 l 731 0 l 765 168 q 605 35 703 94 q 392 -24 508 -24 q 258 4 317 -24 q 170 82 198 33 q 142 190 142 132 q 152 294 142 229 q 185 487 162 359 q 246 876 246 820 q 234 905 246 898 q 203 915 222 912 q 137 919 184 917 l 132 924 l 134 953 l 140 958 q 256 955 216 955 q 381 958 310 955 l 351 810 q 317 628 337 743 l 281 431 q 260 304 267 349 q 253 242 254 260 q 252 208 252 224 q 310 92 252 130 q 446 53 368 53 q 608 99 519 53 q 779 244 696 145 l 855 714 q 878 881 878 851 q 862 909 878 903 q 763 919 846 915 l 758 924 l 760 953 l 766 958 q 950 954 847 954 q 1104 958 1024 954 l 1109 953 l 1106 924 l 1100 919 q 1021 911 1032 916 q 1009 901 1015 908 q 996 868 1003 895 q 943 608 979 805 l 890 290 q 858 69 858 90 q 864 48 858 54 q 899 39 871 42 q 977 34 927 35 l 982 28 m 595 1002 m 435 -74 m 606 1031 q 525 1065 558 1031 q 492 1145 492 1098 q 540 1254 492 1207 q 650 1301 588 1301 q 733 1270 701 1301 q 765 1187 765 1238 q 716 1078 765 1124 q 606 1031 668 1031 m 645 1272 q 571 1231 600 1272 q 542 1147 542 1190 q 561 1086 542 1111 q 611 1061 581 1061 q 685 1100 654 1061 q 715 1187 715 1139 q 695 1248 715 1224 q 645 1272 676 1272 z "},"Ű":{"ha":1080,"x_min":132,"x_max":1109,"o":"m 982 28 l 977 0 l 971 -5 q 833 0 909 0 q 736 -5 781 0 l 731 0 l 765 168 q 605 35 703 94 q 392 -24 508 -24 q 258 4 317 -24 q 170 82 198 33 q 142 190 142 132 q 152 294 142 229 q 185 487 162 359 q 246 876 246 820 q 234 905 246 898 q 203 915 222 912 q 137 919 184 917 l 132 924 l 134 953 l 140 958 q 256 955 216 955 q 381 958 310 955 l 351 810 q 317 628 337 743 l 281 431 q 260 304 267 349 q 253 242 254 260 q 252 208 252 224 q 310 92 252 130 q 446 53 368 53 q 608 99 519 53 q 779 244 696 145 l 855 714 q 878 881 878 851 q 862 909 878 903 q 763 919 846 915 l 758 924 l 760 953 l 766 958 q 950 954 847 954 q 1104 958 1024 954 l 1109 953 l 1106 924 l 1100 919 q 1021 911 1032 916 q 1009 901 1015 908 q 996 868 1003 895 q 943 608 979 805 l 890 290 q 858 69 858 90 q 864 48 858 54 q 899 39 871 42 q 977 34 927 35 l 982 28 m 595 1002 m 435 -74 m 979 1244 l 702 1050 l 695 1050 l 681 1062 l 680 1072 q 850 1255 749 1150 l 970 1266 l 979 1244 m 734 1244 l 458 1051 l 451 1050 l 434 1063 l 433 1072 l 606 1255 l 725 1266 l 734 1244 z "},"Ū":{"ha":1080,"x_min":132,"x_max":1109,"o":"m 982 28 l 977 0 l 971 -5 q 833 0 909 0 q 736 -5 781 0 l 731 0 l 765 168 q 605 35 703 94 q 392 -24 508 -24 q 258 4 317 -24 q 170 82 198 33 q 142 190 142 132 q 152 294 142 229 q 185 487 162 359 q 246 876 246 820 q 234 905 246 898 q 203 915 222 912 q 137 919 184 917 l 132 924 l 134 953 l 140 958 q 256 955 216 955 q 381 958 310 955 l 351 810 q 317 628 337 743 l 281 431 q 260 304 267 349 q 253 242 254 260 q 252 208 252 224 q 310 92 252 130 q 446 53 368 53 q 608 99 519 53 q 779 244 696 145 l 855 714 q 878 881 878 851 q 862 909 878 903 q 763 919 846 915 l 758 924 l 760 953 l 766 958 q 950 954 847 954 q 1104 958 1024 954 l 1109 953 l 1106 924 l 1100 919 q 1021 911 1032 916 q 1009 901 1015 908 q 996 868 1003 895 q 943 608 979 805 l 890 290 q 858 69 858 90 q 864 48 858 54 q 899 39 871 42 q 977 34 927 35 l 982 28 m 595 1002 m 435 -74 m 848 1187 l 836 1126 l 417 1126 l 429 1187 l 848 1187 z "},"Ų":{"ha":1080,"x_min":132,"x_max":1109,"o":"m 1109 953 l 1106 924 l 1100 919 q 1013 905 1023 915 q 987 832 1003 895 q 943 608 970 770 l 890 290 q 858 69 858 101 q 879 42 858 47 q 977 34 899 36 l 982 28 l 977 0 l 971 -5 q 854 0 918 -1 q 785 -140 785 -97 q 842 -204 785 -204 q 924 -155 888 -204 l 929 -153 l 943 -161 l 945 -165 q 803 -285 875 -285 q 728 -259 757 -285 q 699 -194 699 -233 q 815 0 699 -120 q 736 -5 773 -1 l 731 0 l 765 168 q 392 -24 603 -24 q 204 38 266 -24 q 142 190 142 100 q 185 487 142 253 q 246 876 246 821 q 233 905 246 892 q 137 919 220 917 l 132 924 l 134 953 l 140 958 q 256 955 216 955 q 381 958 310 955 l 351 810 q 317 628 341 765 l 281 431 q 252 208 252 265 q 306 94 252 135 q 446 53 360 53 q 779 244 620 53 l 855 714 q 878 881 878 851 q 831 917 878 910 q 763 919 797 918 l 758 924 l 760 953 l 766 958 q 950 954 847 954 q 1104 958 1024 954 l 1109 953 z "},"Ẃ":{"ha":1311,"x_min":71,"x_max":1410,"o":"m 762 966 q 805 788 779 887 l 969 179 q 1038 349 989 223 l 1120 554 q 1238 888 1238 854 q 1226 908 1238 899 q 1133 918 1213 917 l 1128 924 l 1132 952 l 1138 958 q 1291 954 1202 954 q 1405 958 1362 954 l 1410 953 l 1407 924 l 1401 918 q 1338 904 1350 917 q 1287 800 1325 892 l 1177 538 l 1067 266 q 966 -11 996 90 l 898 -11 l 881 75 q 856 180 875 106 l 704 753 q 553 463 679 707 l 412 190 q 321 -11 347 65 l 253 -11 q 225 334 251 95 l 184 719 q 163 872 171 841 q 143 908 155 903 q 77 918 132 913 l 71 924 l 74 953 l 80 958 q 233 955 136 955 q 387 958 332 955 l 393 952 l 390 924 l 384 918 q 299 908 315 917 q 283 854 283 899 q 326 390 283 793 l 347 189 l 544 573 q 735 966 677 831 l 762 966 m 937 1251 q 661 1048 852 1194 l 652 1050 l 637 1063 l 637 1072 l 810 1255 l 931 1267 l 937 1251 z "},"Ẁ":{"ha":1311,"x_min":71,"x_max":1410,"o":"m 762 966 q 805 788 779 887 l 969 179 q 1038 349 989 223 l 1120 554 q 1238 888 1238 854 q 1226 908 1238 899 q 1133 918 1213 917 l 1128 924 l 1132 952 l 1138 958 q 1291 954 1202 954 q 1405 958 1362 954 l 1410 953 l 1407 924 l 1401 918 q 1338 904 1350 917 q 1287 800 1325 892 l 1177 538 l 1067 266 q 966 -11 996 90 l 898 -11 l 881 75 q 856 180 875 106 l 704 753 q 553 463 679 707 l 412 190 q 321 -11 347 65 l 253 -11 q 225 334 251 95 l 184 719 q 163 872 171 841 q 143 908 155 903 q 77 918 132 913 l 71 924 l 74 953 l 80 958 q 233 955 136 955 q 387 958 332 955 l 393 952 l 390 924 l 384 918 q 299 908 315 917 q 283 854 283 899 q 326 390 283 793 l 347 189 l 544 573 q 735 966 677 831 l 762 966 m 867 1067 l 844 1052 l 838 1053 l 570 1249 l 576 1267 l 694 1255 l 866 1075 l 867 1067 z "},"Ŵ":{"ha":1311,"x_min":71,"x_max":1410,"o":"m 762 966 q 805 788 779 887 l 969 179 q 1038 349 989 223 l 1120 554 q 1238 888 1238 854 q 1226 908 1238 899 q 1133 918 1213 917 l 1128 924 l 1132 952 l 1138 958 q 1291 954 1202 954 q 1405 958 1362 954 l 1410 953 l 1407 924 l 1401 918 q 1338 904 1350 917 q 1287 800 1325 892 l 1177 538 l 1067 266 q 966 -11 996 90 l 898 -11 l 881 75 q 856 180 875 106 l 704 753 q 553 463 679 707 l 412 190 q 321 -11 347 65 l 253 -11 q 225 334 251 95 l 184 719 q 163 872 171 841 q 143 908 155 903 q 77 918 132 913 l 71 924 l 74 953 l 80 958 q 233 955 136 955 q 387 958 332 955 l 393 952 l 390 924 l 384 918 q 299 908 315 917 q 283 854 283 899 q 326 390 283 793 l 347 189 l 544 573 q 735 966 677 831 l 762 966 m 951 1040 l 914 1040 l 787 1200 l 589 1040 l 551 1040 l 547 1046 l 764 1267 l 836 1267 l 956 1046 l 951 1040 m 795 1224 m 984 1071 z "},"Ẅ":{"ha":1311,"x_min":71,"x_max":1410,"o":"m 762 966 q 805 788 779 887 l 969 179 q 1038 349 989 223 l 1120 554 q 1238 888 1238 854 q 1226 908 1238 899 q 1133 918 1213 917 l 1128 924 l 1132 952 l 1138 958 q 1291 954 1202 954 q 1405 958 1362 954 l 1410 953 l 1407 924 l 1401 918 q 1338 904 1350 917 q 1287 800 1325 892 l 1177 538 l 1067 266 q 966 -11 996 90 l 898 -11 l 881 75 q 856 180 875 106 l 704 753 q 553 463 679 707 l 412 190 q 321 -11 347 65 l 253 -11 q 225 334 251 95 l 184 719 q 163 872 171 841 q 143 908 155 903 q 77 918 132 913 l 71 924 l 74 953 l 80 958 q 233 955 136 955 q 387 958 332 955 l 393 952 l 390 924 l 384 918 q 299 908 315 917 q 283 854 283 899 q 326 390 283 793 l 347 189 l 544 573 q 735 966 677 831 l 762 966 m 877 1090 q 813 1158 813 1090 q 837 1215 813 1190 q 893 1240 861 1240 q 958 1179 958 1240 q 936 1116 958 1143 q 877 1090 913 1090 m 614 1090 q 549 1158 549 1090 q 573 1216 549 1191 q 630 1240 597 1240 q 694 1179 694 1240 q 672 1116 694 1143 q 614 1090 649 1090 z "},"Ý":{"ha":926,"x_min":101,"x_max":958,"o":"m 248 -5 l 243 0 l 246 29 l 252 35 q 341 41 331 39 q 357 48 351 43 q 369 69 362 52 q 392 161 376 85 q 414 284 408 236 q 420 349 420 332 q 362 581 420 408 q 261 812 305 753 q 165 870 218 870 q 111 857 143 870 l 104 862 l 101 884 l 105 892 q 209 968 163 928 q 273 954 245 966 q 328 907 300 941 q 389 802 357 873 q 454 621 421 731 q 505 430 486 510 q 715 780 584 615 q 958 957 847 945 l 950 859 q 867 830 908 852 q 776 757 826 808 q 663 610 726 706 q 565 436 599 514 q 519 281 532 358 q 486 71 486 90 q 496 47 486 52 q 551 39 507 42 l 605 35 l 610 29 l 607 0 l 601 -5 q 422 -1 513 -1 q 248 -5 332 -1 m 568 1002 m 415 -74 m 788 1251 q 512 1048 703 1194 l 503 1050 l 488 1063 l 488 1072 l 661 1255 l 782 1267 l 788 1251 z "},"Ỳ":{"ha":926,"x_min":101,"x_max":958,"o":"m 248 -5 l 243 0 l 246 29 l 252 35 q 341 41 331 39 q 357 48 351 43 q 369 69 362 52 q 392 161 376 85 q 414 284 408 236 q 420 349 420 332 q 362 581 420 408 q 261 812 305 753 q 165 870 218 870 q 111 857 143 870 l 104 862 l 101 884 l 105 892 q 209 968 163 928 q 273 954 245 966 q 328 907 300 941 q 389 802 357 873 q 454 621 421 731 q 505 430 486 510 q 715 780 584 615 q 958 957 847 945 l 950 859 q 867 830 908 852 q 776 757 826 808 q 663 610 726 706 q 565 436 599 514 q 519 281 532 358 q 486 71 486 90 q 496 47 486 52 q 551 39 507 42 l 605 35 l 610 29 l 607 0 l 601 -5 q 422 -1 513 -1 q 248 -5 332 -1 m 568 1002 m 415 -74 m 677 1067 l 654 1052 l 649 1053 l 380 1249 l 387 1267 l 505 1255 l 677 1075 l 677 1067 z "},"Ŷ":{"ha":926,"x_min":101,"x_max":958,"o":"m 248 -5 l 243 0 l 246 29 l 252 35 q 341 41 331 39 q 357 48 351 43 q 369 69 362 52 q 392 161 376 85 q 414 284 408 236 q 420 349 420 332 q 362 581 420 408 q 261 812 305 753 q 165 870 218 870 q 111 857 143 870 l 104 862 l 101 884 l 105 892 q 209 968 163 928 q 273 954 245 966 q 328 907 300 941 q 389 802 357 873 q 454 621 421 731 q 505 430 486 510 q 715 780 584 615 q 958 957 847 945 l 950 859 q 867 830 908 852 q 776 757 826 808 q 663 610 726 706 q 565 436 599 514 q 519 281 532 358 q 486 71 486 90 q 496 47 486 52 q 551 39 507 42 l 605 35 l 610 29 l 607 0 l 601 -5 q 422 -1 513 -1 q 248 -5 332 -1 m 568 1002 m 415 -74 m 785 1040 l 748 1040 l 621 1200 l 423 1040 l 385 1040 l 381 1046 l 597 1267 l 669 1267 l 790 1046 l 785 1040 m 629 1224 m 818 1071 z "},"Ÿ":{"ha":926,"x_min":101,"x_max":958,"o":"m 248 -5 l 243 0 l 246 29 l 252 35 q 341 41 331 39 q 357 48 351 43 q 369 69 362 52 q 392 161 376 85 q 414 284 408 236 q 420 349 420 332 q 362 581 420 408 q 261 812 305 753 q 165 870 218 870 q 111 857 143 870 l 104 862 l 101 884 l 105 892 q 209 968 163 928 q 273 954 245 966 q 328 907 300 941 q 389 802 357 873 q 454 621 421 731 q 505 430 486 510 q 715 780 584 615 q 958 957 847 945 l 950 859 q 867 830 908 852 q 776 757 826 808 q 663 610 726 706 q 565 436 599 514 q 519 281 532 358 q 486 71 486 90 q 496 47 486 52 q 551 39 507 42 l 605 35 l 610 29 l 607 0 l 601 -5 q 422 -1 513 -1 q 248 -5 332 -1 m 568 1002 m 415 -74 m 734 1090 q 671 1158 671 1090 q 694 1215 671 1190 q 751 1240 718 1240 q 816 1179 816 1240 q 793 1116 816 1143 q 734 1090 770 1090 m 471 1090 q 407 1158 407 1090 q 431 1216 407 1191 q 488 1240 454 1240 q 552 1179 552 1240 q 529 1116 552 1143 q 471 1090 507 1090 z "},"Ź":{"ha":926,"x_min":47,"x_max":902,"o":"m 53 -5 l 47 0 l 50 29 l 158 163 l 742 899 l 498 899 q 246 880 305 899 q 211 743 234 845 l 205 737 l 179 737 l 174 743 q 189 952 188 835 l 197 958 q 667 952 618 952 q 897 958 818 952 l 902 953 l 900 927 l 854 873 l 239 99 l 207 57 q 502 54 489 54 q 679 59 625 54 q 770 75 734 64 q 817 223 781 92 l 825 229 l 855 229 l 859 223 q 827 0 836 92 l 820 -5 l 469 -2 q 279 0 356 0 q 53 -5 156 0 m 781 1251 q 505 1048 696 1194 l 496 1050 l 481 1063 l 481 1072 l 654 1255 l 775 1267 l 781 1251 z "},"Ž":{"ha":926,"x_min":47,"x_max":902,"o":"m 53 -5 l 47 0 l 50 29 l 158 163 l 742 899 l 498 899 q 246 880 305 899 q 211 743 234 845 l 205 737 l 179 737 l 174 743 q 189 952 188 835 l 197 958 q 667 952 618 952 q 897 958 818 952 l 902 953 l 900 927 l 854 873 l 239 99 l 207 57 q 502 54 489 54 q 679 59 625 54 q 770 75 734 64 q 817 223 781 92 l 825 229 l 855 229 l 859 223 q 827 0 836 92 l 820 -5 l 469 -2 q 279 0 356 0 q 53 -5 156 0 m 804 1267 l 809 1261 l 589 1040 l 518 1040 l 399 1262 l 406 1267 l 433 1267 l 566 1107 l 771 1267 l 804 1267 z "},"Ż":{"ha":926,"x_min":47,"x_max":902,"o":"m 53 -5 l 47 0 l 50 29 l 158 163 l 742 899 l 498 899 q 246 880 305 899 q 211 743 234 845 l 205 737 l 179 737 l 174 743 q 189 952 188 835 l 197 958 q 667 952 618 952 q 897 958 818 952 l 902 953 l 900 927 l 854 873 l 239 99 l 207 57 q 502 54 489 54 q 679 59 625 54 q 770 75 734 64 q 817 223 781 92 l 825 229 l 855 229 l 859 223 q 827 0 836 92 l 820 -5 l 469 -2 q 279 0 356 0 q 53 -5 156 0 m 554 1090 q 490 1158 490 1090 q 514 1215 490 1190 q 570 1240 538 1240 q 635 1179 635 1240 q 612 1116 635 1142 q 554 1090 589 1090 z "},"Ʒ":{"ha":859,"x_min":64,"x_max":820,"o":"m 365 517 l 659 826 q 582 821 618 821 q 410 854 530 821 q 324 863 373 863 q 250 775 290 863 l 243 773 l 221 777 l 220 782 q 290 968 254 850 l 298 973 q 366 980 332 980 q 509 949 380 980 q 680 920 637 920 q 804 945 755 920 l 820 924 l 454 556 l 458 552 q 500 553 481 553 q 597 529 541 553 q 690 450 652 505 q 727 329 727 394 q 608 88 727 201 q 329 -26 488 -26 q 64 68 175 -26 q 69 201 69 87 q 68 264 69 248 l 97 275 l 103 273 q 197 76 121 134 q 336 18 272 18 q 514 94 443 18 q 586 286 586 169 q 535 435 586 387 q 419 483 484 483 q 377 481 407 483 l 373 484 l 364 511 l 365 517 z "},"Ŋ":{"ha":1080,"x_min":9,"x_max":1110,"o":"m 1110 953 l 1108 924 l 1103 918 q 1011 899 1019 913 q 969 718 1002 884 l 920 470 l 871 206 l 814 -87 q 750 -273 786 -234 q 666 -313 715 -313 q 592 -294 631 -313 l 589 -283 q 620 -214 612 -228 l 629 -214 q 687 -232 656 -232 q 774 -115 751 -232 l 793 -18 l 773 -18 q 737 50 766 -4 l 694 125 l 309 781 l 241 414 l 215 241 q 195 84 195 112 q 212 46 195 56 q 286 36 229 37 q 311 35 296 36 l 315 30 l 313 1 l 307 -5 q 159 0 234 0 q 14 -5 100 0 l 9 0 l 12 30 l 18 35 q 84 41 73 37 q 105 58 96 45 q 132 141 115 71 q 198 481 149 212 q 260 846 247 751 q 204 904 231 892 q 110 918 176 916 l 106 924 l 108 953 l 114 958 q 235 954 163 954 q 332 958 284 954 q 375 878 338 944 l 425 789 l 799 148 l 909 770 l 920 852 q 923 878 923 873 q 910 906 923 900 q 848 916 898 911 l 814 918 l 809 924 l 812 953 l 817 958 q 962 956 864 956 q 1105 958 1064 956 l 1110 953 z "},"Þ":{"ha":848,"x_min":33,"x_max":810,"o":"m 387 753 q 412 753 404 753 q 451 753 426 753 q 555 755 516 755 q 748 699 686 755 q 810 535 810 642 q 716 308 810 404 q 492 212 621 212 q 362 241 419 212 l 357 285 q 465 260 408 260 q 627 320 566 260 q 688 496 688 380 q 635 655 688 604 q 486 705 582 705 q 376 694 441 705 q 308 315 345 536 q 271 65 271 95 q 279 47 271 53 q 322 38 287 41 q 404 35 357 35 l 411 29 l 406 0 l 399 -5 q 333 -4 382 -5 q 199 0 205 0 q 37 -5 155 0 l 33 0 l 35 29 l 41 35 q 125 42 111 37 q 136 48 132 44 q 144 60 140 52 q 172 165 158 87 l 222 437 l 270 709 q 294 886 294 857 q 287 905 294 899 q 257 913 281 911 q 184 918 233 916 l 180 924 l 183 953 l 189 958 q 240 957 193 958 q 379 953 347 953 q 518 958 440 953 l 523 953 l 521 924 l 515 918 q 435 911 446 915 q 418 892 424 907 q 387 753 412 878 z "},"a":{"ha":616,"x_min":25,"x_max":574,"o":"m 570 133 l 574 115 l 572 106 q 378 -16 429 -16 q 344 27 344 -16 q 348 80 344 48 q 361 151 353 113 l 378 224 l 389 264 l 385 266 q 196 50 283 122 q 73 -22 108 -22 q 25 94 25 -22 q 47 259 25 167 q 101 430 69 351 q 152 533 133 509 q 217 590 172 558 q 301 639 262 622 q 389 656 340 656 q 514 631 448 656 l 557 657 l 572 645 q 544 543 570 635 l 513 428 l 496 361 q 462 211 477 289 q 446 104 446 132 q 465 77 446 77 q 495 87 476 77 q 564 135 514 97 l 570 133 m 455 565 q 344 589 404 589 q 256 570 294 589 q 227 532 241 559 q 184 430 212 505 q 140 270 157 355 q 123 134 123 184 q 130 86 123 97 q 149 75 136 75 q 245 141 174 75 q 365 294 316 207 q 446 526 414 380 l 455 565 m 391 698 m 266 -74 z "},"b":{"ha":643,"x_min":43,"x_max":586,"o":"m 294 998 l 311 985 l 264 768 l 195 443 q 365 610 284 562 q 507 659 446 659 q 553 644 536 659 q 578 594 570 629 q 586 511 586 560 q 553 321 586 414 q 483 172 521 228 q 400 77 446 117 q 295 7 354 37 q 182 -22 236 -22 q 84 11 124 -22 q 43 94 43 43 q 67 248 43 125 l 115 492 q 143 650 128 566 l 170 798 q 182 870 181 861 q 183 887 183 880 q 173 909 183 903 q 135 915 162 915 l 78 916 l 73 921 l 75 938 l 81 944 q 294 998 207 964 m 142 140 q 166 67 142 98 q 245 36 190 36 q 371 104 321 36 q 454 281 421 173 q 487 462 487 389 q 474 555 487 536 q 431 575 460 575 q 337 545 387 575 q 238 446 287 514 q 165 279 189 378 q 142 140 142 180 z "},"c":{"ha":565,"x_min":46,"x_max":545,"o":"m 492 146 l 500 127 l 498 119 q 347 14 416 51 q 215 -23 278 -23 q 89 29 132 -23 q 46 182 46 81 q 61 315 46 245 q 101 437 76 385 q 154 520 126 490 q 236 585 181 551 q 351 646 310 631 q 429 660 391 660 q 543 627 495 660 l 545 618 q 515 454 526 537 l 510 449 l 489 449 l 484 454 l 484 500 q 484 523 484 513 q 476 557 484 545 q 438 580 468 570 q 371 590 408 590 q 257 553 300 590 q 181 405 215 516 q 148 210 148 294 q 181 86 148 125 q 267 48 214 48 q 356 68 309 48 q 486 149 403 87 l 492 146 z "},"d":{"ha":694,"x_min":35,"x_max":673,"o":"m 656 998 l 673 985 q 601 656 642 850 l 521 273 q 497 135 502 176 q 496 109 496 122 q 515 76 496 76 q 623 141 541 76 l 630 139 l 637 123 l 635 115 q 511 21 572 60 q 424 -18 450 -18 q 400 -3 410 -18 q 391 43 391 12 q 401 118 391 68 q 437 279 411 169 l 434 280 q 259 69 361 157 q 101 -18 158 -18 q 66 -4 81 -18 q 43 48 52 10 q 35 128 35 86 q 54 275 35 186 q 102 430 73 365 q 160 529 131 496 q 237 595 189 562 q 320 642 285 627 q 391 656 355 656 q 505 639 431 656 l 541 844 q 546 888 546 870 q 535 909 546 903 q 498 915 525 915 l 441 916 l 435 921 l 437 938 l 443 944 q 656 998 570 964 m 492 561 q 361 594 429 594 q 293 585 319 594 q 253 562 267 576 q 219 504 240 549 q 177 393 197 458 q 145 264 157 328 q 134 142 134 201 q 142 91 134 105 q 165 77 149 77 q 238 106 191 77 q 367 230 310 153 q 452 395 424 307 q 492 561 465 435 z "},"e":{"ha":541,"x_min":25,"x_max":515,"o":"m 457 145 l 465 128 l 463 119 q 180 -22 296 -22 q 103 -1 142 -22 q 44 58 64 20 q 25 157 25 97 q 53 338 25 242 q 110 480 81 434 q 194 566 138 526 q 301 631 250 606 q 399 656 351 656 q 483 629 450 656 q 515 553 515 602 q 484 452 515 498 q 370 364 453 406 q 172 296 288 323 l 140 289 q 127 180 127 224 q 154 83 127 119 q 230 47 181 47 q 450 148 321 47 l 457 145 m 145 322 q 280 362 216 335 q 379 436 345 390 q 413 529 413 481 q 395 583 413 566 q 351 601 376 601 q 284 585 322 601 q 216 525 245 568 q 145 322 186 481 m 330 698 m 205 -74 z "},"f":{"ha":386,"x_min":-205,"x_max":583,"o":"m 424 606 l 430 597 q 408 523 414 554 l 401 518 q 338 519 370 519 q 265 518 302 519 l 177 106 q 99 -162 133 -88 q 13 -293 66 -237 q -93 -374 -40 -349 q -157 -390 -125 -390 q -205 -377 -179 -390 q -173 -266 -183 -313 l -156 -262 q -86 -300 -127 -300 q -37 -286 -60 -300 q 8 -234 -13 -271 q 57 -75 29 -196 q 110 195 84 45 l 164 518 q 110 519 125 519 q 59 517 71 519 l 54 523 l 58 543 l 63 549 q 178 602 144 578 l 205 734 q 229 815 218 795 q 272 866 240 836 q 356 936 303 896 q 436 988 408 976 q 493 1000 465 1000 q 583 981 536 1000 q 544 869 554 906 l 529 864 q 488 900 514 886 q 431 914 461 914 q 369 894 395 914 q 327 824 342 874 q 278 592 312 773 q 386 597 364 593 q 424 606 407 600 z "},"g":{"ha":694,"x_min":-29,"x_max":683,"o":"m 243 20 q 212 67 212 52 q 233 110 212 83 q 305 182 254 137 q 273 180 286 180 q 145 223 193 180 q 98 349 98 265 q 121 467 98 408 q 183 563 144 526 q 279 627 223 600 q 401 654 335 654 q 563 578 517 654 q 680 587 642 579 l 683 583 l 672 515 q 637 517 654 517 q 583 514 613 517 q 585 475 585 492 q 523 301 585 378 q 353 194 460 223 q 315 133 315 158 q 335 84 315 107 q 456 -22 355 62 q 533 -105 515 -69 q 551 -174 551 -141 q 454 -323 551 -261 q 213 -386 358 -386 q 33 -341 95 -386 q -29 -221 -29 -296 q -5 -134 -29 -177 q 86 -48 20 -90 q 243 20 153 -6 m 196 375 q 229 266 196 305 q 324 226 262 226 q 445 300 406 226 q 484 467 484 374 q 471 545 484 513 q 429 593 457 576 q 360 611 401 611 q 239 541 281 611 q 196 375 196 471 m 264 -5 q 155 -52 207 -19 q 82 -123 104 -84 q 60 -203 60 -161 q 113 -310 60 -271 q 251 -348 166 -348 q 357 -332 309 -348 q 432 -284 405 -315 q 459 -215 459 -252 q 448 -167 459 -191 q 418 -126 436 -142 q 359 -78 401 -109 l 264 -5 z "},"h":{"ha":694,"x_min":18,"x_max":648,"o":"m 311 998 l 328 985 q 196 372 299 864 l 201 370 q 425 592 326 534 q 576 650 524 650 q 603 638 593 650 q 613 610 613 627 q 592 501 613 585 q 533 258 565 395 q 502 94 502 121 q 508 78 502 83 q 519 73 513 73 q 562 91 534 73 q 633 141 590 109 l 640 139 l 648 121 l 647 114 q 520 23 591 68 q 428 -21 450 -21 q 404 -5 413 -21 q 395 36 395 10 q 397 64 395 54 q 420 165 399 75 l 458 334 q 498 534 498 498 q 471 558 498 558 q 434 549 453 558 q 332 476 393 529 q 243 375 284 434 q 178 256 201 316 q 146 138 161 209 l 121 4 q 26 -18 38 -13 l 18 -9 q 172 706 120 380 l 195 844 q 200 887 200 869 q 191 908 200 901 q 152 915 182 915 l 95 916 l 90 921 l 92 938 l 97 944 q 311 998 224 964 z "},"i":{"ha":386,"x_min":52,"x_max":365,"o":"m 235 884 q 258 947 235 920 q 313 975 281 975 q 351 960 336 975 q 365 920 365 946 q 344 854 365 883 q 291 825 323 825 q 251 842 267 825 q 235 884 235 858 m 58 505 l 52 521 l 54 530 q 196 623 146 596 q 274 650 245 650 q 302 610 302 650 q 295 558 302 591 q 260 422 288 524 q 186 98 186 149 q 205 71 186 71 q 311 129 235 71 l 318 127 l 326 109 l 324 101 q 227 31 277 64 q 155 -13 176 -3 q 119 -22 134 -22 q 87 -4 99 -22 q 76 37 76 14 q 84 103 76 68 q 105 180 93 138 q 168 426 149 338 q 186 534 186 514 q 171 557 186 557 q 151 552 161 557 q 66 503 142 547 l 58 505 m 130 -74 z "},"j":{"ha":386,"x_min":-92,"x_max":372,"o":"m 242 884 q 265 947 242 920 q 320 975 288 975 q 358 960 344 975 q 372 920 372 945 q 351 854 372 882 q 297 825 330 825 q 258 841 274 825 q 242 884 242 857 m -92 -378 l -81 -312 l -70 -305 q -32 -324 -41 -321 q -15 -326 -24 -326 q 37 -284 20 -326 q 92 -47 54 -241 q 132 147 96 -20 q 184 406 168 314 l 202 513 q 204 534 204 528 q 184 558 204 558 q 75 503 160 558 l 68 506 l 60 522 l 63 531 q 211 627 163 602 q 288 652 258 652 q 318 611 318 652 q 281 417 318 577 l 212 111 q 145 -142 179 -35 q 75 -304 112 -250 q 11 -374 38 -358 q -43 -389 -17 -389 q -92 -378 -60 -389 z "},"k":{"ha":616,"x_min":15,"x_max":621,"o":"m 309 998 l 326 985 q 263 699 302 887 l 224 512 q 179 316 199 396 q 314 484 232 392 q 461 619 395 576 q 574 661 527 661 q 621 650 593 661 l 598 555 q 541 565 568 565 q 469 550 505 565 q 394 504 433 535 q 311 427 356 473 q 373 257 334 355 q 432 120 412 159 q 464 73 452 81 q 484 66 475 66 q 553 97 503 66 l 574 110 l 582 108 l 589 92 l 587 83 q 461 -4 491 13 q 416 -21 431 -21 q 402 -17 410 -21 q 380 8 394 -12 q 340 90 366 29 q 300 188 314 150 q 242 349 286 227 q 189 281 201 298 q 170 245 178 264 q 153 189 162 227 q 135 103 143 152 l 119 7 l 26 -18 l 15 -9 l 48 120 q 110 401 69 202 q 169 704 151 600 l 194 846 q 199 887 199 872 q 190 908 199 901 q 151 915 180 915 l 94 916 l 88 921 l 90 938 l 96 944 q 309 998 222 964 z "},"l":{"ha":386,"x_min":52,"x_max":344,"o":"m 326 998 l 344 985 q 233 468 317 874 q 165 121 173 178 q 163 100 163 109 q 170 77 163 85 q 185 69 177 69 q 282 125 208 69 l 302 140 l 309 138 l 316 120 l 314 112 q 93 -20 150 -20 q 62 -5 73 -20 q 52 37 52 10 q 60 109 52 65 q 120 382 69 153 q 187 709 168 602 l 211 845 q 216 887 216 872 q 205 909 216 903 q 168 915 195 915 l 111 916 l 106 921 l 108 938 l 113 944 q 326 998 241 964 z "},"m":{"ha":1080,"x_min":42,"x_max":1016,"o":"m 73 -14 l 62 -2 l 102 139 q 141 302 122 214 q 167 448 159 391 q 175 526 175 505 q 155 561 175 561 q 127 551 146 561 q 57 509 109 542 l 49 511 l 42 526 l 44 536 q 257 654 205 654 q 287 620 287 654 q 283 582 287 607 q 241 376 279 557 q 433 581 334 509 q 595 652 532 652 q 628 622 628 652 q 621 555 628 593 q 581 374 614 516 q 788 581 678 509 q 960 653 899 653 q 993 619 993 653 q 926 324 993 573 q 874 95 874 135 q 894 67 874 67 q 923 76 905 67 q 1002 127 942 85 l 1008 125 l 1016 108 l 1014 99 q 930 38 983 75 q 850 -10 877 2 q 805 -22 823 -22 q 774 -7 785 -22 q 762 31 762 7 q 765 66 762 50 q 785 141 768 82 q 841 365 809 228 q 873 541 873 502 q 867 558 873 553 q 852 564 860 564 q 794 543 834 564 q 701 469 753 521 q 614 363 648 416 q 557 231 581 311 q 509 3 534 152 q 414 -16 477 -1 l 404 -7 q 487 333 458 185 q 516 533 516 480 q 496 562 516 562 q 438 541 477 562 q 343 459 399 519 q 253 328 288 399 q 197 156 219 256 q 166 5 176 56 q 73 -14 113 -3 z "},"n":{"ha":772,"x_min":47,"x_max":709,"o":"m 80 -17 l 71 -5 q 150 306 115 130 q 184 530 184 482 q 165 556 184 556 q 61 503 140 556 l 53 505 l 47 519 l 49 530 q 114 576 76 550 q 188 622 151 602 q 238 646 224 642 q 263 650 252 650 q 289 637 282 650 q 296 610 296 624 q 274 489 296 579 q 237 340 267 464 l 242 339 q 366 496 292 421 q 517 611 439 572 q 631 650 595 650 q 662 638 652 650 q 672 606 672 625 q 625 378 672 559 q 562 94 562 136 q 581 68 562 68 q 694 134 603 68 l 702 132 l 709 114 l 707 106 q 611 36 665 72 q 532 -10 557 1 q 492 -21 508 -21 q 461 -6 471 -21 q 451 30 451 8 q 462 104 451 54 q 507 290 473 155 q 557 524 557 480 q 531 559 557 559 q 488 548 513 559 q 395 482 445 528 q 303 375 345 436 q 238 253 261 313 q 197 115 214 192 q 176 5 194 106 q 80 -17 129 -3 z "},"o":{"ha":616,"x_min":26,"x_max":568,"o":"m 26 189 q 71 425 26 319 q 205 594 115 532 q 382 657 296 657 q 514 609 460 657 q 568 446 568 562 q 517 215 568 332 q 378 39 467 98 q 205 -21 290 -21 q 107 5 149 -21 q 46 76 65 31 q 26 189 26 121 m 135 199 q 146 106 135 140 q 187 51 158 72 q 259 31 216 31 q 338 54 304 31 q 402 142 372 78 q 447 287 433 207 q 460 433 460 366 q 446 532 460 495 q 404 589 432 570 q 337 608 376 608 q 184 483 233 608 q 135 199 135 357 m 351 698 m 225 -74 z "},"p":{"ha":694,"x_min":-7,"x_max":642,"o":"m 1 -386 l -7 -378 l 14 -285 q 73 20 33 -196 l 125 304 q 142 429 136 372 l 151 509 q 154 541 154 532 q 136 564 154 564 q 107 554 127 564 q 21 500 88 544 l 12 503 l 6 518 l 8 528 q 138 618 74 582 q 234 655 202 655 q 265 623 265 655 q 228 399 265 586 q 399 590 304 526 q 560 654 493 654 q 606 638 591 654 q 631 583 621 621 q 642 499 642 545 q 620 356 642 437 q 568 219 597 276 q 500 121 539 161 q 408 48 462 81 q 315 -3 354 15 q 250 -20 275 -20 q 216 -17 232 -20 q 160 -1 199 -13 l 103 -363 q 1 -386 29 -374 m 174 76 q 290 43 231 43 q 377 66 340 43 q 455 170 414 90 q 516 335 495 251 q 537 481 537 418 q 526 557 537 537 q 490 576 515 576 q 414 555 456 576 q 323 480 372 534 q 239 351 275 427 q 199 220 216 300 l 174 76 z "},"q":{"ha":643,"x_min":41,"x_max":603,"o":"m 303 -390 l 291 -373 q 308 -355 304 -362 q 319 -326 313 -348 q 351 -172 326 -304 l 389 27 q 431 272 401 95 q 261 76 366 168 q 102 -17 156 -17 q 57 18 73 -17 q 41 104 41 52 q 59 260 41 172 q 101 411 77 348 q 153 511 125 474 q 233 581 173 537 q 328 638 293 625 q 397 651 362 651 q 538 620 477 651 l 583 652 l 603 642 q 514 228 563 481 q 420 -362 465 -26 q 303 -390 351 -376 m 489 549 q 366 583 429 583 q 297 575 324 583 q 256 552 271 566 q 220 492 241 538 q 178 373 198 446 q 150 235 158 300 q 142 136 142 170 q 151 89 142 103 q 174 75 161 75 q 214 90 185 75 q 291 147 243 104 q 379 243 339 191 q 436 336 419 295 q 468 445 453 377 q 489 549 484 513 z "},"r":{"ha":541,"x_min":36,"x_max":532,"o":"m 81 -20 l 68 -11 q 148 314 116 144 q 180 531 180 483 q 163 562 180 562 q 51 500 143 562 l 43 503 l 36 517 l 38 528 q 165 616 98 576 q 263 656 232 656 q 290 622 290 656 q 241 359 290 583 q 364 546 304 470 q 451 640 425 623 q 505 657 478 657 q 529 652 517 657 l 532 644 q 509 500 522 607 l 490 496 q 444 523 470 523 q 398 507 425 523 q 332 444 372 492 q 264 337 293 397 q 218 205 235 277 q 173 3 200 134 q 81 -20 104 -12 z "},"s":{"ha":541,"x_min":16,"x_max":475,"o":"m 16 16 q 44 188 40 123 l 50 193 l 73 193 l 78 188 l 78 79 q 212 26 139 26 q 275 37 244 26 q 326 67 305 48 q 358 116 346 85 q 370 179 370 147 q 362 221 370 201 q 333 254 353 241 q 253 277 313 267 q 167 295 192 288 q 118 320 142 302 q 80 366 94 338 q 66 428 66 395 q 88 510 66 473 q 151 580 109 547 q 238 634 193 612 q 338 656 283 656 q 473 623 418 656 l 475 616 q 460 545 464 576 l 452 469 l 447 463 l 426 463 l 420 469 q 418 547 420 509 q 290 599 370 599 q 187 562 226 599 q 149 473 149 525 q 174 407 149 431 q 272 372 200 382 q 363 355 336 362 q 414 333 391 349 q 450 291 437 317 q 463 234 463 266 q 449 160 463 196 q 407 93 434 123 q 331 30 380 62 q 243 -16 281 -3 q 163 -28 205 -28 q 19 8 94 -28 l 16 16 z "},"t":{"ha":463,"x_min":73,"x_max":444,"o":"m 372 151 l 379 135 l 377 127 q 285 57 351 104 q 191 -6 220 9 q 141 -22 162 -22 q 110 -4 121 -22 q 98 48 98 14 q 121 191 98 88 q 189 531 147 311 l 78 528 l 73 534 l 75 545 l 81 551 q 197 600 153 576 q 233 834 210 660 q 339 883 305 865 l 355 871 l 329 767 q 293 592 324 747 q 342 590 323 590 q 437 600 410 590 l 444 594 l 429 528 q 281 531 404 528 q 205 105 205 170 q 231 74 205 74 q 266 85 244 74 q 340 135 287 96 l 363 153 l 372 151 z "},"u":{"ha":772,"x_min":55,"x_max":700,"o":"m 62 509 l 55 525 l 57 534 q 145 592 77 550 q 239 645 213 633 q 280 656 266 656 q 302 646 294 656 q 311 621 311 635 q 291 526 311 605 q 204 106 204 170 q 224 76 204 76 q 307 121 250 76 q 429 249 363 165 q 524 416 494 332 q 577 631 554 500 q 670 653 585 633 l 680 643 q 664 587 680 639 q 610 385 637 499 q 570 203 583 271 q 558 106 558 135 q 580 75 558 75 q 608 85 591 75 q 685 140 625 96 l 692 138 l 700 122 l 699 113 q 542 -2 579 19 q 486 -22 505 -22 q 460 -8 469 -22 q 451 26 451 7 q 508 304 451 68 l 504 307 l 454 235 q 393 158 428 198 q 312 77 359 119 q 228 12 266 36 q 173 -17 190 -12 q 146 -23 156 -23 q 112 -4 127 -23 q 98 54 98 16 q 124 213 98 106 q 191 540 191 482 q 174 562 191 562 q 70 507 153 562 l 62 509 m 418 698 m 293 -74 z "},"v":{"ha":694,"x_min":28,"x_max":659,"o":"m 28 479 l 83 635 q 140 646 112 646 q 227 640 164 646 q 307 634 281 634 q 381 646 348 634 l 393 627 q 208 194 208 398 q 235 87 208 128 q 315 47 263 47 q 441 113 382 47 q 536 285 500 180 q 572 467 572 391 q 512 557 572 557 q 479 549 496 557 l 472 549 l 463 564 l 463 572 q 515 621 488 591 l 536 644 q 562 650 547 650 q 634 614 608 650 q 659 523 659 579 q 590 272 659 408 q 427 55 522 136 q 261 -25 333 -25 q 154 23 199 -25 q 108 153 108 71 q 151 342 108 248 q 315 570 194 437 q 216 565 300 565 l 187 566 q 102 559 142 566 q 57 478 91 542 l 50 474 l 32 474 l 28 479 z "},"w":{"ha":1003,"x_min":23,"x_max":966,"o":"m 27 474 l 23 479 l 78 635 q 136 646 107 646 q 222 640 159 646 q 302 634 277 634 q 376 646 343 634 l 389 627 q 203 192 203 399 q 281 50 203 50 q 417 174 338 50 q 548 622 495 298 q 650 649 599 629 l 660 641 q 559 173 559 317 q 583 85 559 119 q 647 51 606 51 q 809 189 738 51 q 880 459 880 326 q 812 559 880 559 q 777 550 795 559 l 769 551 l 758 564 l 758 571 q 829 644 799 609 q 868 650 849 650 q 966 514 966 650 q 903 273 966 404 q 750 59 840 142 q 585 -24 660 -24 q 500 15 531 -24 q 470 112 470 54 q 484 239 470 172 l 438 157 q 335 25 392 74 q 227 -24 277 -24 q 137 26 171 -24 q 103 156 103 76 q 145 342 103 248 q 310 570 188 436 q 212 565 295 565 l 182 566 q 98 559 138 566 q 52 478 86 542 l 45 474 l 27 474 z "},"x":{"ha":694,"x_min":5,"x_max":659,"o":"m 5 -4 q 22 111 22 83 l 26 117 l 44 119 l 51 115 l 64 81 q 97 69 81 69 q 184 119 140 69 q 302 291 228 169 q 286 390 298 313 q 257 505 273 466 q 228 555 241 545 q 195 566 214 566 q 155 556 172 566 q 112 519 138 545 q 98 505 98 505 l 91 503 l 75 513 l 73 520 l 151 631 q 231 655 186 655 q 322 610 288 655 q 372 405 357 566 l 445 515 q 493 577 456 533 q 559 639 530 621 q 617 656 589 656 q 659 645 639 656 q 640 532 644 565 l 635 526 l 624 524 l 617 527 q 600 548 608 542 q 576 553 591 553 q 506 523 541 553 q 382 364 470 492 q 436 117 413 167 q 492 67 458 67 q 533 79 512 67 q 593 126 553 91 l 602 125 l 611 111 l 610 103 q 529 31 567 60 q 471 -10 490 1 q 427 -21 452 -21 q 374 5 394 -21 q 339 86 353 32 q 311 244 325 140 q 205 82 254 147 q 125 -3 156 17 q 61 -22 94 -22 q 5 -4 27 -22 z "},"y":{"ha":694,"x_min":-12,"x_max":677,"o":"m -8 -256 l 59 -211 l 73 -216 q 72 -235 72 -227 q 100 -308 72 -283 q 161 -333 129 -333 q 214 -320 187 -333 q 266 -276 241 -307 q 323 -174 292 -245 q 381 -19 355 -102 q 432 155 408 64 l 455 239 q 370 126 409 169 q 294 45 332 83 q 233 -9 257 6 q 189 -24 208 -24 q 144 11 161 -24 q 128 98 128 46 q 138 206 128 124 q 154 464 154 355 q 148 537 154 520 q 128 555 142 555 q 89 539 113 555 q 29 496 65 524 l 20 498 l 13 515 l 15 525 q 214 652 166 652 q 247 635 235 652 q 258 568 258 617 q 252 448 258 522 q 231 140 231 217 q 236 98 231 113 q 257 84 242 84 q 284 92 267 84 q 337 136 300 100 q 410 227 374 172 q 476 347 447 281 q 521 473 505 413 q 560 628 537 532 q 663 654 606 635 l 677 640 q 553 262 644 572 q 476 11 507 103 q 403 -156 445 -81 q 305 -288 361 -232 q 200 -366 250 -343 q 106 -389 151 -389 q 23 -358 58 -389 q -12 -279 -12 -328 q -8 -256 -12 -269 m 391 698 m 564 -74 z "},"z":{"ha":616,"x_min":2,"x_max":576,"o":"m 12 -9 l 2 18 l 3 26 l 481 562 q 364 533 431 533 q 228 547 327 533 q 159 555 178 555 q 131 547 146 555 q 94 473 105 506 l 87 467 l 68 467 l 64 473 l 106 634 q 173 648 132 648 q 307 626 225 648 q 409 603 376 608 q 473 597 443 597 q 519 607 503 597 q 564 647 536 616 l 576 636 l 566 593 l 106 78 q 222 109 172 109 q 331 91 256 109 q 430 75 395 75 q 488 89 462 75 l 522 181 l 530 186 l 551 186 l 554 182 l 531 72 l 515 -8 q 438 -22 479 -22 q 391 -20 408 -22 q 321 -3 374 -17 q 208 22 249 15 q 130 29 167 29 q 20 -11 62 29 l 12 -9 z "},"á":{"ha":616,"x_min":25,"x_max":585,"o":"m 570 133 l 574 115 l 572 106 q 378 -16 429 -16 q 344 27 344 -16 q 348 80 344 48 q 361 151 353 113 l 378 224 l 389 264 l 385 266 q 196 50 283 122 q 73 -22 108 -22 q 25 94 25 -22 q 47 259 25 167 q 101 430 69 351 q 152 533 133 509 q 217 590 172 558 q 301 639 262 622 q 389 656 340 656 q 514 631 448 656 l 557 657 l 572 645 q 544 543 570 635 l 513 428 l 496 361 q 462 211 477 289 q 446 104 446 132 q 465 77 446 77 q 495 87 476 77 q 564 135 514 97 l 570 133 m 455 565 q 344 589 404 589 q 256 570 294 589 q 227 532 241 559 q 184 430 212 505 q 140 270 157 355 q 123 134 123 184 q 130 86 123 97 q 149 75 136 75 q 245 141 174 75 q 365 294 316 207 q 446 526 414 380 l 455 565 m 391 698 m 266 -74 m 585 968 l 350 745 l 341 745 l 326 758 l 325 764 q 407 876 349 794 l 479 984 l 575 986 l 585 968 z "},"à":{"ha":616,"x_min":25,"x_max":574,"o":"m 570 133 l 574 115 l 572 106 q 378 -16 429 -16 q 344 27 344 -16 q 348 80 344 48 q 361 151 353 113 l 378 224 l 389 264 l 385 266 q 196 50 283 122 q 73 -22 108 -22 q 25 94 25 -22 q 47 259 25 167 q 101 430 69 351 q 152 533 133 509 q 217 590 172 558 q 301 639 262 622 q 389 656 340 656 q 514 631 448 656 l 557 657 l 572 645 q 544 543 570 635 l 513 428 l 496 361 q 462 211 477 289 q 446 104 446 132 q 465 77 446 77 q 495 87 476 77 q 564 135 514 97 l 570 133 m 455 565 q 344 589 404 589 q 256 570 294 589 q 227 532 241 559 q 184 430 212 505 q 140 270 157 355 q 123 134 123 184 q 130 86 123 97 q 149 75 136 75 q 245 141 174 75 q 365 294 316 207 q 446 526 414 380 l 455 565 m 391 698 m 266 -74 m 468 762 l 465 754 l 451 743 l 442 745 q 216 969 338 842 l 227 983 l 325 985 q 468 762 346 944 z "},"â":{"ha":616,"x_min":25,"x_max":671,"o":"m 570 133 l 574 115 l 572 106 q 378 -16 429 -16 q 344 27 344 -16 q 348 80 344 48 q 361 151 353 113 l 378 224 l 389 264 l 385 266 q 196 50 283 122 q 73 -22 108 -22 q 25 94 25 -22 q 47 259 25 167 q 101 430 69 351 q 152 533 133 509 q 217 590 172 558 q 301 639 262 622 q 389 656 340 656 q 514 631 448 656 l 557 657 l 572 645 q 544 543 570 635 l 513 428 l 496 361 q 462 211 477 289 q 446 104 446 132 q 465 77 446 77 q 495 87 476 77 q 564 135 514 97 l 570 133 m 455 565 q 344 589 404 589 q 256 570 294 589 q 227 532 241 559 q 184 430 212 505 q 140 270 157 355 q 123 134 123 184 q 130 86 123 97 q 149 75 136 75 q 245 141 174 75 q 365 294 316 207 q 446 526 414 380 l 455 565 m 391 698 m 266 -74 m 616 745 l 614 739 l 572 739 l 499 841 l 450 906 l 368 836 q 260 739 342 812 l 200 739 l 198 746 l 328 879 l 425 985 l 494 985 q 616 745 545 876 m 451 937 m 671 741 z "},"ä":{"ha":616,"x_min":25,"x_max":613,"o":"m 570 133 l 574 115 l 572 106 q 378 -16 429 -16 q 344 27 344 -16 q 348 80 344 48 q 361 151 353 113 l 378 224 l 389 264 l 385 266 q 196 50 283 122 q 73 -22 108 -22 q 25 94 25 -22 q 47 259 25 167 q 101 430 69 351 q 152 533 133 509 q 217 590 172 558 q 301 639 262 622 q 389 656 340 656 q 514 631 448 656 l 557 657 l 572 645 q 544 543 570 635 l 513 428 l 496 361 q 462 211 477 289 q 446 104 446 132 q 465 77 446 77 q 495 87 476 77 q 564 135 514 97 l 570 133 m 455 565 q 344 589 404 589 q 256 570 294 589 q 227 532 241 559 q 184 430 212 505 q 140 270 157 355 q 123 134 123 184 q 130 86 123 97 q 149 75 136 75 q 245 141 174 75 q 365 294 316 207 q 446 526 414 380 l 455 565 m 391 698 m 266 -74 m 281 789 q 227 849 227 789 q 249 910 227 883 q 303 938 271 938 q 356 884 356 938 q 335 817 356 846 q 281 789 313 789 m 538 789 q 484 849 484 789 q 506 910 484 883 q 560 938 528 938 q 613 884 613 938 q 592 817 613 846 q 538 789 570 789 z "},"ã":{"ha":616,"x_min":25,"x_max":665,"o":"m 570 133 l 574 115 l 572 106 q 378 -16 429 -16 q 344 27 344 -16 q 348 80 344 48 q 361 151 353 113 l 378 224 l 389 264 l 385 266 q 196 50 283 122 q 73 -22 108 -22 q 25 94 25 -22 q 47 259 25 167 q 101 430 69 351 q 152 533 133 509 q 217 590 172 558 q 301 639 262 622 q 389 656 340 656 q 514 631 448 656 l 557 657 l 572 645 q 544 543 570 635 l 513 428 l 496 361 q 462 211 477 289 q 446 104 446 132 q 465 77 446 77 q 495 87 476 77 q 564 135 514 97 l 570 133 m 455 565 q 344 589 404 589 q 256 570 294 589 q 227 532 241 559 q 184 430 212 505 q 140 270 157 355 q 123 134 123 184 q 130 86 123 97 q 149 75 136 75 q 245 141 174 75 q 365 294 316 207 q 446 526 414 380 l 455 565 m 391 698 m 266 -74 m 665 925 q 546 789 635 789 q 463 809 520 789 l 393 833 q 322 850 347 850 q 253 782 275 850 l 224 782 l 220 787 q 350 926 253 926 q 426 910 382 926 l 491 885 q 566 865 544 865 q 635 930 614 865 l 660 930 l 665 925 z "},"ă":{"ha":616,"x_min":25,"x_max":623,"o":"m 570 133 l 574 115 l 572 106 q 378 -16 429 -16 q 344 27 344 -16 q 348 80 344 48 q 361 151 353 113 l 378 224 l 389 264 l 385 266 q 196 50 283 122 q 73 -22 108 -22 q 25 94 25 -22 q 47 259 25 167 q 101 430 69 351 q 152 533 133 509 q 217 590 172 558 q 301 639 262 622 q 389 656 340 656 q 514 631 448 656 l 557 657 l 572 645 q 544 543 570 635 l 513 428 l 496 361 q 462 211 477 289 q 446 104 446 132 q 465 77 446 77 q 495 87 476 77 q 564 135 514 97 l 570 133 m 455 565 q 344 589 404 589 q 256 570 294 589 q 227 532 241 559 q 184 430 212 505 q 140 270 157 355 q 123 134 123 184 q 130 86 123 97 q 149 75 136 75 q 245 141 174 75 q 365 294 316 207 q 446 526 414 380 l 455 565 m 391 698 m 266 -74 m 623 968 q 403 755 582 755 q 282 804 329 755 q 235 937 235 854 q 238 968 235 945 l 262 968 q 306 869 262 907 q 414 831 349 831 q 596 968 538 831 l 623 968 m 427 925 z "},"å":{"ha":616,"x_min":25,"x_max":574,"o":"m 570 133 l 574 115 l 572 106 q 378 -16 429 -16 q 344 27 344 -16 q 348 80 344 48 q 361 151 353 113 l 378 224 l 389 264 l 385 266 q 196 50 283 122 q 73 -22 108 -22 q 25 94 25 -22 q 47 259 25 167 q 101 430 69 351 q 152 533 133 509 q 217 590 172 558 q 301 639 262 622 q 389 656 340 656 q 514 631 448 656 l 557 657 l 572 645 q 544 543 570 635 l 513 428 l 496 361 q 462 211 477 289 q 446 104 446 132 q 465 77 446 77 q 495 87 476 77 q 564 135 514 97 l 570 133 m 455 565 q 344 589 404 589 q 256 570 294 589 q 227 532 241 559 q 184 430 212 505 q 140 270 157 355 q 123 134 123 184 q 130 86 123 97 q 149 75 136 75 q 245 141 174 75 q 365 294 316 207 q 446 526 414 380 l 455 565 m 391 698 m 266 -74 m 405 735 q 322 765 353 735 q 292 842 292 795 q 336 946 292 901 q 442 990 380 990 q 529 959 497 990 q 560 878 560 928 q 513 778 560 820 q 405 735 466 735 m 437 959 q 375 924 401 959 q 349 844 349 890 q 412 766 349 766 q 476 801 449 766 q 503 880 503 836 q 485 935 503 911 q 437 959 467 959 z "},"ǻ":{"ha":616,"x_min":25,"x_max":605,"o":"m 570 133 l 574 115 l 572 106 q 378 -16 429 -16 q 344 27 344 -16 q 348 80 344 48 q 361 151 353 113 l 378 224 l 389 264 l 385 266 q 196 50 283 122 q 73 -22 108 -22 q 25 94 25 -22 q 47 259 25 167 q 101 430 69 351 q 152 533 133 509 q 217 590 172 558 q 301 639 262 622 q 389 656 340 656 q 514 631 448 656 l 557 657 l 572 645 q 544 543 570 635 l 513 428 l 496 361 q 462 211 477 289 q 446 104 446 132 q 465 77 446 77 q 495 87 476 77 q 564 135 514 97 l 570 133 m 455 565 q 344 589 404 589 q 256 570 294 589 q 227 532 241 559 q 184 430 212 505 q 140 270 157 355 q 123 134 123 184 q 130 86 123 97 q 149 75 136 75 q 245 141 174 75 q 365 294 316 207 q 446 526 414 380 l 455 565 m 391 698 m 266 -74 m 405 735 q 322 765 353 735 q 292 842 292 795 q 336 946 292 901 q 442 990 380 990 q 529 959 497 990 q 560 878 560 928 q 513 778 560 820 q 405 735 466 735 m 437 959 q 375 924 401 959 q 349 844 349 890 q 412 766 349 766 q 476 801 449 766 q 503 880 503 836 q 485 935 503 911 q 437 959 467 959 m 605 1260 l 370 1037 l 361 1036 l 347 1049 l 345 1055 q 427 1168 369 1086 l 500 1276 l 595 1278 l 605 1260 z "},"ā":{"ha":616,"x_min":25,"x_max":615,"o":"m 570 133 l 574 115 l 572 106 q 378 -16 429 -16 q 344 27 344 -16 q 348 80 344 48 q 361 151 353 113 l 378 224 l 389 264 l 385 266 q 196 50 283 122 q 73 -22 108 -22 q 25 94 25 -22 q 47 259 25 167 q 101 430 69 351 q 152 533 133 509 q 217 590 172 558 q 301 639 262 622 q 389 656 340 656 q 514 631 448 656 l 557 657 l 572 645 q 544 543 570 635 l 513 428 l 496 361 q 462 211 477 289 q 446 104 446 132 q 465 77 446 77 q 495 87 476 77 q 564 135 514 97 l 570 133 m 455 565 q 344 589 404 589 q 256 570 294 589 q 227 532 241 559 q 184 430 212 505 q 140 270 157 355 q 123 134 123 184 q 130 86 123 97 q 149 75 136 75 q 245 141 174 75 q 365 294 316 207 q 446 526 414 380 l 455 565 m 391 698 m 266 -74 m 615 873 l 600 809 l 231 809 l 248 873 l 615 873 z "},"ą":{"ha":616,"x_min":25,"x_max":574,"o":"m 574 115 l 572 106 q 405 -13 456 7 q 346 -126 346 -79 q 387 -180 346 -180 q 460 -149 429 -180 l 465 -148 l 475 -155 l 477 -159 q 346 -243 420 -243 q 295 -221 314 -243 q 276 -170 276 -199 q 292 -108 276 -142 q 372 -10 308 -75 q 344 27 344 3 q 361 151 344 77 l 389 264 l 385 266 q 214 66 305 155 q 73 -22 123 -22 q 25 94 25 -22 q 74 356 25 215 q 155 536 123 498 q 257 615 187 575 q 389 656 326 656 q 514 631 448 656 l 557 657 l 572 645 q 544 543 566 625 l 496 361 q 446 104 446 173 q 465 77 446 77 q 564 135 488 77 l 570 133 l 574 115 m 455 565 q 344 589 404 589 q 256 570 294 589 q 173 397 222 545 q 123 134 123 250 q 149 75 123 75 q 243 138 179 75 q 358 281 307 201 q 446 526 410 361 l 455 565 z "},"æ":{"ha":886,"x_min":11,"x_max":866,"o":"m 809 145 l 817 127 l 815 119 q 537 -19 647 -19 q 443 4 480 -19 q 379 106 405 27 q 142 -22 252 -22 q 11 117 11 -22 q 38 233 11 186 q 115 305 65 281 q 220 336 165 329 q 404 342 275 342 q 410 435 410 396 q 367 549 410 509 q 250 589 324 589 q 176 576 211 589 l 144 485 l 137 481 l 124 483 l 119 489 l 110 581 q 304 655 215 655 q 495 528 450 655 q 750 656 642 656 q 866 548 866 656 q 758 385 866 446 q 490 313 650 323 q 474 176 474 219 q 503 82 474 116 q 585 48 532 48 q 802 147 674 48 l 809 145 m 495 345 q 687 401 613 350 q 760 531 760 452 q 696 601 760 601 q 558 524 610 601 q 495 345 506 446 m 399 309 l 362 310 q 171 267 230 310 q 112 136 112 223 q 204 47 112 47 q 330 103 281 47 q 399 309 378 159 z "},"ǽ":{"ha":886,"x_min":11,"x_max":866,"o":"m 809 145 l 817 127 l 815 119 q 537 -19 647 -19 q 443 4 480 -19 q 379 106 405 27 q 142 -22 252 -22 q 11 117 11 -22 q 38 233 11 186 q 115 305 65 281 q 220 336 165 329 q 404 342 275 342 q 410 435 410 396 q 367 549 410 509 q 250 589 324 589 q 176 576 211 589 l 144 485 l 137 481 l 124 483 l 119 489 l 110 581 q 304 655 215 655 q 495 528 450 655 q 750 656 642 656 q 866 548 866 656 q 758 385 866 446 q 490 313 650 323 q 474 176 474 219 q 503 82 474 116 q 585 48 532 48 q 802 147 674 48 l 809 145 m 495 345 q 687 401 613 350 q 760 531 760 452 q 696 601 760 601 q 558 524 610 601 q 495 345 506 446 m 399 309 l 362 310 q 171 267 230 310 q 112 136 112 223 q 204 47 112 47 q 330 103 281 47 q 399 309 378 159 m 727 968 l 492 745 l 484 745 l 469 758 l 467 764 q 549 876 491 794 l 622 984 l 718 986 l 727 968 z "},"ć":{"ha":565,"x_min":46,"x_max":571,"o":"m 492 146 l 500 127 l 498 119 q 347 14 416 51 q 215 -23 278 -23 q 89 29 132 -23 q 46 182 46 81 q 61 315 46 245 q 101 437 76 385 q 154 520 126 490 q 236 585 181 551 q 351 646 310 631 q 429 660 391 660 q 543 627 495 660 l 545 618 q 515 454 526 537 l 510 449 l 489 449 l 484 454 l 484 500 q 484 523 484 513 q 476 557 484 545 q 438 580 468 570 q 371 590 408 590 q 257 553 300 590 q 181 405 215 516 q 148 210 148 294 q 181 86 148 125 q 267 48 214 48 q 356 68 309 48 q 486 149 403 87 l 492 146 m 571 968 l 336 745 l 328 745 l 313 758 l 311 764 q 393 876 335 794 l 466 984 l 562 986 l 571 968 z "},"ĉ":{"ha":565,"x_min":46,"x_max":637,"o":"m 492 146 l 500 127 l 498 119 q 347 14 416 51 q 215 -23 278 -23 q 89 29 132 -23 q 46 182 46 81 q 61 315 46 245 q 101 437 76 385 q 154 520 126 490 q 236 585 181 551 q 351 646 310 631 q 429 660 391 660 q 543 627 495 660 l 545 618 q 515 454 526 537 l 510 449 l 489 449 l 484 454 l 484 500 q 484 523 484 513 q 476 557 484 545 q 438 580 468 570 q 371 590 408 590 q 257 553 300 590 q 181 405 215 516 q 148 210 148 294 q 181 86 148 125 q 267 48 214 48 q 356 68 309 48 q 486 149 403 87 l 492 146 m 583 745 l 581 739 l 538 739 l 465 841 l 416 906 l 334 836 q 227 739 308 812 l 166 739 l 164 746 l 294 879 l 391 985 l 460 985 q 583 745 511 876 m 417 937 m 637 741 z "},"č":{"ha":565,"x_min":46,"x_max":600,"o":"m 492 146 l 500 127 l 498 119 q 347 14 416 51 q 215 -23 278 -23 q 89 29 132 -23 q 46 182 46 81 q 61 315 46 245 q 101 437 76 385 q 154 520 126 490 q 236 585 181 551 q 351 646 310 631 q 429 660 391 660 q 543 627 495 660 l 545 618 q 515 454 526 537 l 510 449 l 489 449 l 484 454 l 484 500 q 484 523 484 513 q 476 557 484 545 q 438 580 468 570 q 371 590 408 590 q 257 553 300 590 q 181 405 215 516 q 148 210 148 294 q 181 86 148 125 q 267 48 214 48 q 356 68 309 48 q 486 149 403 87 l 492 146 m 600 981 l 470 839 q 382 739 444 810 l 334 739 q 198 982 311 776 l 202 986 l 244 986 l 361 819 q 544 986 443 888 l 598 986 l 600 981 z "},"ç":{"ha":565,"x_min":46,"x_max":545,"o":"m 545 618 q 515 454 526 537 l 510 449 l 489 449 l 484 454 q 484 489 484 466 l 484 523 q 371 590 484 590 q 258 553 302 590 q 181 405 215 517 q 148 210 148 293 q 267 48 148 48 q 486 149 349 48 l 492 146 l 500 127 l 498 119 q 251 -21 352 -3 l 207 -96 q 247 -92 224 -92 q 328 -117 295 -92 q 361 -184 361 -142 q 312 -267 361 -233 q 201 -301 264 -301 q 75 -273 141 -301 l 74 -267 l 86 -246 l 93 -245 q 176 -259 151 -259 q 240 -239 215 -259 q 266 -189 266 -220 q 193 -131 266 -131 q 157 -136 175 -131 l 146 -128 l 214 -23 q 46 182 46 -23 q 92 417 46 307 q 247 593 137 527 q 429 660 357 660 q 543 627 495 660 l 545 618 z "},"ċ":{"ha":565,"x_min":46,"x_max":545,"o":"m 492 146 l 500 127 l 498 119 q 347 14 416 51 q 215 -23 278 -23 q 89 29 132 -23 q 46 182 46 81 q 61 315 46 245 q 101 437 76 385 q 154 520 126 490 q 236 585 181 551 q 351 646 310 631 q 429 660 391 660 q 543 627 495 660 l 545 618 q 515 454 526 537 l 510 449 l 489 449 l 484 454 l 484 500 q 484 523 484 513 q 476 557 484 545 q 438 580 468 570 q 371 590 408 590 q 257 553 300 590 q 181 405 215 516 q 148 210 148 294 q 181 86 148 125 q 267 48 214 48 q 356 68 309 48 q 486 149 403 87 l 492 146 m 393 789 q 338 849 338 789 q 358 911 338 884 q 414 938 379 938 q 467 884 467 938 q 446 817 467 846 q 393 789 425 789 z "},"ď":{"ha":880,"x_min":35,"x_max":968,"o":"m 656 998 l 673 985 q 601 656 642 850 l 521 273 q 497 135 502 176 q 496 109 496 122 q 515 76 496 76 q 623 141 541 76 l 630 139 l 637 123 l 635 115 q 511 21 572 60 q 424 -18 450 -18 q 400 -3 410 -18 q 391 43 391 12 q 401 118 391 68 q 437 279 411 169 l 434 280 q 259 69 361 157 q 101 -18 158 -18 q 66 -4 81 -18 q 43 48 52 10 q 35 128 35 86 q 54 275 35 186 q 102 430 73 365 q 160 529 131 496 q 237 595 189 562 q 320 642 285 627 q 391 656 355 656 q 505 639 431 656 l 541 844 q 546 888 546 870 q 535 909 546 903 q 498 915 525 915 l 441 916 l 435 921 l 437 938 l 443 944 q 656 998 570 964 m 492 561 q 361 594 429 594 q 293 585 319 594 q 253 562 267 576 q 219 504 240 549 q 177 393 197 458 q 145 264 157 328 q 134 142 134 201 q 142 91 134 105 q 165 77 149 77 q 238 106 191 77 q 367 230 310 153 q 452 395 424 307 q 492 561 465 435 m 755 713 l 755 728 q 863 775 827 743 q 898 836 898 808 q 869 854 898 854 q 803 913 803 854 q 826 974 803 946 q 891 1002 850 1002 q 968 912 968 1002 q 910 782 968 842 q 755 713 852 722 z "},"đ":{"ha":694,"x_min":35,"x_max":745,"o":"m 534 808 q 546 888 546 870 q 535 909 546 903 q 498 915 524 915 l 441 916 l 435 921 l 437 938 l 443 944 q 656 998 570 964 l 673 985 l 633 808 l 741 808 l 745 803 l 740 768 l 734 762 l 623 762 l 532 328 q 496 109 496 155 q 515 76 496 76 q 623 141 541 76 l 630 139 l 637 123 l 635 115 q 511 21 572 60 q 424 -18 450 -18 q 400 -3 410 -18 q 391 43 391 12 q 401 118 391 68 q 437 279 411 169 l 434 280 q 259 69 361 157 q 101 -18 158 -18 q 66 -4 81 -18 q 43 48 52 10 q 35 128 35 86 q 54 275 35 186 q 102 430 73 365 q 160 529 131 496 q 237 595 189 562 q 320 642 285 627 q 391 656 355 656 q 505 639 431 656 l 527 762 l 328 762 l 323 768 l 332 803 l 337 808 l 534 808 m 492 561 q 361 594 429 594 q 293 585 319 594 q 253 562 267 576 q 219 504 240 549 q 177 393 197 458 q 145 264 157 328 q 134 142 134 201 q 142 91 134 105 q 165 77 149 77 q 204 87 180 77 q 267 127 228 98 q 348 205 307 156 q 416 307 389 254 q 456 406 443 360 q 487 536 469 452 l 492 561 z "},"é":{"ha":541,"x_min":25,"x_max":551,"o":"m 457 145 l 465 128 l 463 119 q 180 -22 296 -22 q 103 -1 142 -22 q 44 58 64 20 q 25 157 25 97 q 53 338 25 242 q 110 480 81 434 q 194 566 138 526 q 301 631 250 606 q 399 656 351 656 q 483 629 450 656 q 515 553 515 602 q 484 452 515 498 q 370 364 453 406 q 172 296 288 323 l 140 289 q 127 180 127 224 q 154 83 127 119 q 230 47 181 47 q 450 148 321 47 l 457 145 m 145 322 q 280 362 216 335 q 379 436 345 390 q 413 529 413 481 q 395 583 413 566 q 351 601 376 601 q 284 585 322 601 q 216 525 245 568 q 145 322 186 481 m 330 698 m 205 -74 m 551 968 l 316 745 l 307 745 l 292 758 l 291 764 q 373 876 315 794 l 446 984 l 541 986 l 551 968 z "},"è":{"ha":541,"x_min":25,"x_max":515,"o":"m 457 145 l 465 128 l 463 119 q 180 -22 296 -22 q 103 -1 142 -22 q 44 58 64 20 q 25 157 25 97 q 53 338 25 242 q 110 480 81 434 q 194 566 138 526 q 301 631 250 606 q 399 656 351 656 q 483 629 450 656 q 515 553 515 602 q 484 452 515 498 q 370 364 453 406 q 172 296 288 323 l 140 289 q 127 180 127 224 q 154 83 127 119 q 230 47 181 47 q 450 148 321 47 l 457 145 m 145 322 q 280 362 216 335 q 379 436 345 390 q 413 529 413 481 q 395 583 413 566 q 351 601 376 601 q 284 585 322 601 q 216 525 245 568 q 145 322 186 481 m 330 698 m 205 -74 m 441 762 l 438 754 l 424 743 l 415 745 q 189 969 311 842 l 199 983 l 298 985 q 441 762 319 944 z "},"ê":{"ha":541,"x_min":25,"x_max":617,"o":"m 457 145 l 465 128 l 463 119 q 180 -22 296 -22 q 103 -1 142 -22 q 44 58 64 20 q 25 157 25 97 q 53 338 25 242 q 110 480 81 434 q 194 566 138 526 q 301 631 250 606 q 399 656 351 656 q 483 629 450 656 q 515 553 515 602 q 484 452 515 498 q 370 364 453 406 q 172 296 288 323 l 140 289 q 127 180 127 224 q 154 83 127 119 q 230 47 181 47 q 450 148 321 47 l 457 145 m 145 322 q 280 362 216 335 q 379 436 345 390 q 413 529 413 481 q 395 583 413 566 q 351 601 376 601 q 284 585 322 601 q 216 525 245 568 q 145 322 186 481 m 330 698 m 205 -74 m 562 745 l 560 739 l 518 739 l 445 841 l 395 906 l 314 836 q 206 739 288 812 l 146 739 l 144 746 l 273 879 l 370 985 l 439 985 q 562 745 491 876 m 397 937 m 617 741 z "},"ë":{"ha":541,"x_min":25,"x_max":528,"o":"m 457 145 l 465 128 l 463 119 q 180 -22 296 -22 q 103 -1 142 -22 q 44 58 64 20 q 25 157 25 97 q 53 338 25 242 q 110 480 81 434 q 194 566 138 526 q 301 631 250 606 q 399 656 351 656 q 483 629 450 656 q 515 553 515 602 q 484 452 515 498 q 370 364 453 406 q 172 296 288 323 l 140 289 q 127 180 127 224 q 154 83 127 119 q 230 47 181 47 q 450 148 321 47 l 457 145 m 145 322 q 280 362 216 335 q 379 436 345 390 q 413 529 413 481 q 395 583 413 566 q 351 601 376 601 q 284 585 322 601 q 216 525 245 568 q 145 322 186 481 m 330 698 m 205 -74 m 197 789 q 142 849 142 789 q 164 910 142 883 q 218 938 186 938 q 271 884 271 938 q 250 817 271 846 q 197 789 229 789 m 454 789 q 399 849 399 789 q 421 910 399 883 q 475 938 443 938 q 528 884 528 938 q 507 817 528 846 q 454 789 486 789 z "},"ě":{"ha":541,"x_min":25,"x_max":580,"o":"m 457 145 l 465 128 l 463 119 q 180 -22 296 -22 q 103 -1 142 -22 q 44 58 64 20 q 25 157 25 97 q 53 338 25 242 q 110 480 81 434 q 194 566 138 526 q 301 631 250 606 q 399 656 351 656 q 483 629 450 656 q 515 553 515 602 q 484 452 515 498 q 370 364 453 406 q 172 296 288 323 l 140 289 q 127 180 127 224 q 154 83 127 119 q 230 47 181 47 q 450 148 321 47 l 457 145 m 145 322 q 280 362 216 335 q 379 436 345 390 q 413 529 413 481 q 395 583 413 566 q 351 601 376 601 q 284 585 322 601 q 216 525 245 568 q 145 322 186 481 m 330 698 m 205 -74 m 580 981 l 450 839 q 363 739 424 810 l 314 739 q 178 982 292 776 l 182 986 l 224 986 l 341 819 q 524 986 423 888 l 578 986 l 580 981 z "},"ĕ":{"ha":541,"x_min":25,"x_max":559,"o":"m 457 145 l 465 128 l 463 119 q 180 -22 296 -22 q 103 -1 142 -22 q 44 58 64 20 q 25 157 25 97 q 53 338 25 242 q 110 480 81 434 q 194 566 138 526 q 301 631 250 606 q 399 656 351 656 q 483 629 450 656 q 515 553 515 602 q 484 452 515 498 q 370 364 453 406 q 172 296 288 323 l 140 289 q 127 180 127 224 q 154 83 127 119 q 230 47 181 47 q 450 148 321 47 l 457 145 m 145 322 q 280 362 216 335 q 379 436 345 390 q 413 529 413 481 q 395 583 413 566 q 351 601 376 601 q 284 585 322 601 q 216 525 245 568 q 145 322 186 481 m 330 698 m 205 -74 m 559 968 q 338 755 517 755 q 218 804 264 755 q 171 937 171 854 q 174 968 171 945 l 198 968 q 241 869 198 907 q 350 831 284 831 q 532 968 473 831 l 559 968 m 362 925 z "},"ė":{"ha":541,"x_min":25,"x_max":515,"o":"m 457 145 l 465 128 l 463 119 q 180 -22 296 -22 q 103 -1 142 -22 q 44 58 64 20 q 25 157 25 97 q 53 338 25 242 q 110 480 81 434 q 194 566 138 526 q 301 631 250 606 q 399 656 351 656 q 483 629 450 656 q 515 553 515 602 q 484 452 515 498 q 370 364 453 406 q 172 296 288 323 l 140 289 q 127 180 127 224 q 154 83 127 119 q 230 47 181 47 q 450 148 321 47 l 457 145 m 145 322 q 280 362 216 335 q 379 436 345 390 q 413 529 413 481 q 395 583 413 566 q 351 601 376 601 q 284 585 322 601 q 216 525 245 568 q 145 322 186 481 m 330 698 m 205 -74 m 352 789 q 297 849 297 789 q 318 911 297 884 q 374 938 338 938 q 427 884 427 938 q 405 817 427 846 q 352 789 384 789 z "},"ē":{"ha":541,"x_min":25,"x_max":581,"o":"m 457 145 l 465 128 l 463 119 q 180 -22 296 -22 q 103 -1 142 -22 q 44 58 64 20 q 25 157 25 97 q 53 338 25 242 q 110 480 81 434 q 194 566 138 526 q 301 631 250 606 q 399 656 351 656 q 483 629 450 656 q 515 553 515 602 q 484 452 515 498 q 370 364 453 406 q 172 296 288 323 l 140 289 q 127 180 127 224 q 154 83 127 119 q 230 47 181 47 q 450 148 321 47 l 457 145 m 145 322 q 280 362 216 335 q 379 436 345 390 q 413 529 413 481 q 395 583 413 566 q 351 601 376 601 q 284 585 322 601 q 216 525 245 568 q 145 322 186 481 m 330 698 m 205 -74 m 581 873 l 566 809 l 197 809 l 214 873 l 581 873 z "},"ę":{"ha":541,"x_min":25,"x_max":515,"o":"m 140 289 q 127 180 127 224 q 230 47 127 47 q 450 148 321 47 l 457 145 l 465 128 l 463 119 q 206 -20 315 -6 q 156 -126 156 -103 q 197 -180 156 -180 q 271 -149 239 -180 l 275 -148 l 286 -155 l 287 -159 q 156 -243 230 -243 q 105 -221 124 -243 q 86 -170 86 -199 q 172 -22 86 -109 q 25 157 25 -10 q 63 377 25 246 q 213 582 102 507 q 399 656 323 656 q 483 628 450 656 q 515 553 515 601 q 172 296 515 376 l 140 289 m 145 322 q 351 406 288 349 q 413 529 413 463 q 351 601 413 601 q 241 556 291 601 q 145 322 192 512 z "},"ǵ":{"ha":694,"x_min":-29,"x_max":683,"o":"m 243 20 q 212 67 212 52 q 233 110 212 83 q 305 182 254 137 q 273 180 286 180 q 145 223 193 180 q 98 349 98 265 q 121 467 98 408 q 183 563 144 526 q 279 627 223 600 q 401 654 335 654 q 563 578 517 654 q 680 587 642 579 l 683 583 l 672 515 q 637 517 654 517 q 583 514 613 517 q 585 475 585 492 q 523 301 585 378 q 353 194 460 223 q 315 133 315 158 q 335 84 315 107 q 456 -22 355 62 q 533 -105 515 -69 q 551 -174 551 -141 q 454 -323 551 -261 q 213 -386 358 -386 q 33 -341 95 -386 q -29 -221 -29 -296 q -5 -134 -29 -177 q 86 -48 20 -90 q 243 20 153 -6 m 196 375 q 229 266 196 305 q 324 226 262 226 q 445 300 406 226 q 484 467 484 374 q 471 545 484 513 q 429 593 457 576 q 360 611 401 611 q 239 541 281 611 q 196 375 196 471 m 264 -5 q 155 -52 207 -19 q 82 -123 104 -84 q 60 -203 60 -161 q 113 -310 60 -271 q 251 -348 166 -348 q 357 -332 309 -348 q 432 -284 405 -315 q 459 -215 459 -252 q 448 -167 459 -191 q 418 -126 436 -142 q 359 -78 401 -109 l 264 -5 m 585 968 l 350 745 l 341 745 l 326 758 l 325 764 q 407 876 349 794 l 479 984 l 575 986 l 585 968 z "},"ĝ":{"ha":694,"x_min":-29,"x_max":683,"o":"m 243 20 q 212 67 212 52 q 233 110 212 83 q 305 182 254 137 q 273 180 286 180 q 145 223 193 180 q 98 349 98 265 q 121 467 98 408 q 183 563 144 526 q 279 627 223 600 q 401 654 335 654 q 563 578 517 654 q 680 587 642 579 l 683 583 l 672 515 q 637 517 654 517 q 583 514 613 517 q 585 475 585 492 q 523 301 585 378 q 353 194 460 223 q 315 133 315 158 q 335 84 315 107 q 456 -22 355 62 q 533 -105 515 -69 q 551 -174 551 -141 q 454 -323 551 -261 q 213 -386 358 -386 q 33 -341 95 -386 q -29 -221 -29 -296 q -5 -134 -29 -177 q 86 -48 20 -90 q 243 20 153 -6 m 196 375 q 229 266 196 305 q 324 226 262 226 q 445 300 406 226 q 484 467 484 374 q 471 545 484 513 q 429 593 457 576 q 360 611 401 611 q 239 541 281 611 q 196 375 196 471 m 264 -5 q 155 -52 207 -19 q 82 -123 104 -84 q 60 -203 60 -161 q 113 -310 60 -271 q 251 -348 166 -348 q 357 -332 309 -348 q 432 -284 405 -315 q 459 -215 459 -252 q 448 -167 459 -191 q 418 -126 436 -142 q 359 -78 401 -109 l 264 -5 m 616 745 l 614 739 l 572 739 l 499 841 l 450 906 l 368 836 q 260 739 342 812 l 200 739 l 198 746 l 328 879 l 425 985 l 494 985 q 616 745 545 876 m 451 937 m 671 741 z "},"ğ":{"ha":694,"x_min":-29,"x_max":683,"o":"m 243 20 q 212 67 212 52 q 233 110 212 83 q 305 182 254 137 q 273 180 286 180 q 145 223 193 180 q 98 349 98 265 q 121 467 98 408 q 183 563 144 526 q 279 627 223 600 q 401 654 335 654 q 563 578 517 654 q 680 587 642 579 l 683 583 l 672 515 q 637 517 654 517 q 583 514 613 517 q 585 475 585 492 q 523 301 585 378 q 353 194 460 223 q 315 133 315 158 q 335 84 315 107 q 456 -22 355 62 q 533 -105 515 -69 q 551 -174 551 -141 q 454 -323 551 -261 q 213 -386 358 -386 q 33 -341 95 -386 q -29 -221 -29 -296 q -5 -134 -29 -177 q 86 -48 20 -90 q 243 20 153 -6 m 196 375 q 229 266 196 305 q 324 226 262 226 q 445 300 406 226 q 484 467 484 374 q 471 545 484 513 q 429 593 457 576 q 360 611 401 611 q 239 541 281 611 q 196 375 196 471 m 264 -5 q 155 -52 207 -19 q 82 -123 104 -84 q 60 -203 60 -161 q 113 -310 60 -271 q 251 -348 166 -348 q 357 -332 309 -348 q 432 -284 405 -315 q 459 -215 459 -252 q 448 -167 459 -191 q 418 -126 436 -142 q 359 -78 401 -109 l 264 -5 m 600 968 q 379 755 558 755 q 258 804 305 755 q 212 937 212 854 q 214 968 212 945 l 239 968 q 282 869 239 907 q 391 831 325 831 q 572 968 514 831 l 600 968 m 403 925 z "},"ģ":{"ha":694,"x_min":-29,"x_max":683,"o":"m 243 20 q 212 67 212 52 q 233 110 212 83 q 305 182 254 137 q 273 180 286 180 q 145 223 193 180 q 98 349 98 265 q 121 467 98 408 q 183 563 144 526 q 279 627 223 600 q 401 654 335 654 q 563 578 517 654 q 680 587 642 579 l 683 583 l 672 515 q 637 517 654 517 q 583 514 613 517 q 585 475 585 492 q 523 301 585 378 q 353 194 460 223 q 315 133 315 158 q 335 84 315 107 q 456 -22 355 62 q 533 -105 515 -69 q 551 -174 551 -141 q 454 -323 551 -261 q 213 -386 358 -386 q 33 -341 95 -386 q -29 -221 -29 -296 q -5 -134 -29 -177 q 86 -48 20 -90 q 243 20 153 -6 m 196 375 q 229 266 196 305 q 324 226 262 226 q 445 300 406 226 q 484 467 484 374 q 471 545 484 513 q 429 593 457 576 q 360 611 401 611 q 239 541 281 611 q 196 375 196 471 m 264 -5 q 155 -52 207 -19 q 82 -123 104 -84 q 60 -203 60 -161 q 113 -310 60 -271 q 251 -348 166 -348 q 357 -332 309 -348 q 432 -284 405 -315 q 459 -215 459 -252 q 448 -167 459 -191 q 418 -126 436 -142 q 359 -78 401 -109 l 264 -5 m 532 1052 l 534 1036 q 430 990 465 1022 q 395 930 395 958 q 424 914 395 914 q 466 896 450 914 q 483 851 483 878 q 456 781 483 807 q 393 755 430 755 q 318 846 318 755 q 371 980 318 920 q 532 1052 425 1040 z "},"ġ":{"ha":694,"x_min":-29,"x_max":683,"o":"m 243 20 q 212 67 212 52 q 233 110 212 83 q 305 182 254 137 q 273 180 286 180 q 145 223 193 180 q 98 349 98 265 q 121 467 98 408 q 183 563 144 526 q 279 627 223 600 q 401 654 335 654 q 563 578 517 654 q 680 587 642 579 l 683 583 l 672 515 q 637 517 654 517 q 583 514 613 517 q 585 475 585 492 q 523 301 585 378 q 353 194 460 223 q 315 133 315 158 q 335 84 315 107 q 456 -22 355 62 q 533 -105 515 -69 q 551 -174 551 -141 q 454 -323 551 -261 q 213 -386 358 -386 q 33 -341 95 -386 q -29 -221 -29 -296 q -5 -134 -29 -177 q 86 -48 20 -90 q 243 20 153 -6 m 196 375 q 229 266 196 305 q 324 226 262 226 q 445 300 406 226 q 484 467 484 374 q 471 545 484 513 q 429 593 457 576 q 360 611 401 611 q 239 541 281 611 q 196 375 196 471 m 264 -5 q 155 -52 207 -19 q 82 -123 104 -84 q 60 -203 60 -161 q 113 -310 60 -271 q 251 -348 166 -348 q 357 -332 309 -348 q 432 -284 405 -315 q 459 -215 459 -252 q 448 -167 459 -191 q 418 -126 436 -142 q 359 -78 401 -109 l 264 -5 m 386 789 q 331 849 331 789 q 352 911 331 884 q 408 938 372 938 q 460 884 460 938 q 439 817 460 846 q 386 789 418 789 z "},"ĥ":{"ha":694,"x_min":18,"x_max":648,"o":"m 311 998 l 328 985 q 196 372 299 864 l 201 370 q 425 592 326 534 q 576 650 524 650 q 603 638 593 650 q 613 610 613 627 q 592 501 613 585 q 533 258 565 395 q 502 94 502 121 q 508 78 502 83 q 519 73 513 73 q 562 91 534 73 q 633 141 590 109 l 640 139 l 648 121 l 647 114 q 520 23 591 68 q 428 -21 450 -21 q 404 -5 413 -21 q 395 36 395 10 q 397 64 395 54 q 420 165 399 75 l 458 334 q 498 534 498 498 q 471 558 498 558 q 434 549 453 558 q 332 476 393 529 q 243 375 284 434 q 178 256 201 316 q 146 138 161 209 l 121 4 q 26 -18 38 -13 l 18 -9 q 172 706 120 380 l 195 844 q 200 887 200 869 q 191 908 200 901 q 152 915 182 915 l 95 916 l 90 921 l 92 938 l 97 944 q 311 998 224 964 m 515 1050 l 513 1044 l 471 1044 l 397 1146 l 348 1211 l 267 1141 q 159 1044 240 1118 l 98 1044 l 96 1051 l 226 1184 l 323 1290 l 392 1290 q 515 1050 444 1181 m 349 1242 m 570 1046 z "},"ħ":{"ha":694,"x_min":18,"x_max":648,"o":"m 279 762 l 196 372 l 201 370 q 425 592 326 534 q 576 650 524 650 q 603 638 593 650 q 613 610 613 627 q 592 501 613 585 q 533 258 565 395 q 502 94 502 121 q 508 78 502 83 q 519 73 513 73 q 562 91 534 73 q 633 141 590 109 l 640 139 l 648 121 l 647 114 q 520 23 591 68 q 428 -21 450 -21 q 404 -5 413 -21 q 395 36 395 10 q 397 64 395 54 q 420 165 399 75 l 458 334 q 498 534 498 498 q 471 558 498 558 q 434 549 453 558 q 332 476 393 529 q 243 375 284 434 q 178 256 201 316 q 146 138 161 209 l 121 4 q 26 -18 38 -13 l 18 -9 q 181 762 117 357 l 74 762 l 70 768 l 78 803 l 83 808 l 189 808 q 200 885 200 874 q 190 909 200 903 q 152 915 180 915 l 95 916 l 90 921 l 92 938 l 97 944 q 311 998 224 964 l 328 985 q 288 808 309 914 l 422 808 l 428 803 l 422 768 l 416 762 l 279 762 z "},"í":{"ha":386,"x_min":52,"x_max":423,"o":"m 58 505 l 52 521 l 54 530 q 196 623 146 596 q 274 650 245 650 q 302 610 302 650 q 295 558 302 591 q 260 422 288 524 q 186 98 186 149 q 205 71 186 71 q 311 129 235 71 l 318 127 l 326 109 l 324 101 q 227 31 277 64 q 155 -13 176 -3 q 119 -22 134 -22 q 87 -4 99 -22 q 76 37 76 14 q 84 103 76 68 q 105 180 93 138 q 168 426 149 338 q 186 534 186 514 q 171 557 186 557 q 151 552 161 557 q 66 503 142 547 l 58 505 m 242 698 m 423 968 l 189 745 l 180 745 l 165 758 l 163 764 q 245 876 187 794 l 318 984 l 414 986 l 423 968 z "},"ì":{"ha":386,"x_min":52,"x_max":339,"o":"m 58 505 l 52 521 l 54 530 q 196 623 146 596 q 274 650 245 650 q 302 610 302 650 q 295 558 302 591 q 260 422 288 524 q 186 98 186 149 q 205 71 186 71 q 311 129 235 71 l 318 127 l 326 109 l 324 101 q 227 31 277 64 q 155 -13 176 -3 q 119 -22 134 -22 q 87 -4 99 -22 q 76 37 76 14 q 84 103 76 68 q 105 180 93 138 q 168 426 149 338 q 186 534 186 514 q 171 557 186 557 q 151 552 161 557 q 66 503 142 547 l 58 505 m 242 698 m 339 762 l 336 754 l 322 743 l 313 745 q 87 969 209 842 l 98 983 l 196 985 q 339 762 217 944 z "},"î":{"ha":386,"x_min":25,"x_max":498,"o":"m 58 505 l 52 521 l 54 530 q 196 623 146 596 q 274 650 245 650 q 302 610 302 650 q 295 558 302 591 q 260 422 288 524 q 186 98 186 149 q 205 71 186 71 q 311 129 235 71 l 318 127 l 326 109 l 324 101 q 227 31 277 64 q 155 -13 176 -3 q 119 -22 134 -22 q 87 -4 99 -22 q 76 37 76 14 q 84 103 76 68 q 105 180 93 138 q 168 426 149 338 q 186 534 186 514 q 171 557 186 557 q 151 552 161 557 q 66 503 142 547 l 58 505 m 242 698 m 444 745 l 441 739 l 399 739 l 326 841 l 277 906 l 195 836 q 87 739 169 812 l 27 739 l 25 746 l 155 879 l 252 985 l 321 985 q 444 745 372 876 m 278 937 m 498 741 z "},"ï":{"ha":386,"x_min":52,"x_max":467,"o":"m 58 505 l 52 521 l 54 530 q 196 623 146 596 q 274 650 245 650 q 302 610 302 650 q 295 558 302 591 q 260 422 288 524 q 186 98 186 149 q 205 71 186 71 q 311 129 235 71 l 318 127 l 326 109 l 324 101 q 227 31 277 64 q 155 -13 176 -3 q 119 -22 134 -22 q 87 -4 99 -22 q 76 37 76 14 q 84 103 76 68 q 105 180 93 138 q 168 426 149 338 q 186 534 186 514 q 171 557 186 557 q 151 552 161 557 q 66 503 142 547 l 58 505 m 242 698 m 136 789 q 81 849 81 789 q 103 910 81 883 q 157 938 125 938 q 210 884 210 938 q 189 817 210 846 q 136 789 168 789 m 393 789 q 338 849 338 789 q 360 910 338 883 q 414 938 382 938 q 467 884 467 938 q 446 817 467 846 q 393 789 425 789 z "},"ĩ":{"ha":386,"x_min":38,"x_max":484,"o":"m 58 505 l 52 521 l 54 530 q 196 623 146 596 q 274 650 245 650 q 302 610 302 650 q 295 558 302 591 q 260 422 288 524 q 186 98 186 149 q 205 71 186 71 q 311 129 235 71 l 318 127 l 326 109 l 324 101 q 227 31 277 64 q 155 -13 176 -3 q 119 -22 134 -22 q 87 -4 99 -22 q 76 37 76 14 q 84 103 76 68 q 105 180 93 138 q 168 426 149 338 q 186 534 186 514 q 171 557 186 557 q 151 552 161 557 q 66 503 142 547 l 58 505 m 242 698 m 484 925 q 364 789 454 789 q 281 809 338 789 l 212 833 q 140 850 165 850 q 71 782 93 850 l 43 782 l 38 787 q 168 926 71 926 q 244 910 201 926 l 309 885 q 384 865 362 865 q 454 930 433 865 l 478 930 l 484 925 z "},"ĭ":{"ha":386,"x_min":52,"x_max":471,"o":"m 58 505 l 52 521 l 54 530 q 196 623 146 596 q 274 650 245 650 q 302 610 302 650 q 295 558 302 591 q 260 422 288 524 q 186 98 186 149 q 205 71 186 71 q 311 129 235 71 l 318 127 l 326 109 l 324 101 q 227 31 277 64 q 155 -13 176 -3 q 119 -22 134 -22 q 87 -4 99 -22 q 76 37 76 14 q 84 103 76 68 q 105 180 93 138 q 168 426 149 338 q 186 534 186 514 q 171 557 186 557 q 151 552 161 557 q 66 503 142 547 l 58 505 m 242 698 m 471 968 q 250 755 429 755 q 130 804 176 755 q 83 937 83 854 q 85 968 83 945 l 110 968 q 153 869 110 907 q 262 831 196 831 q 444 968 385 831 l 471 968 m 274 925 z "},"ı":{"ha":386,"x_min":52,"x_max":326,"o":"m 58 505 l 52 521 l 54 530 q 196 623 146 596 q 274 650 245 650 q 302 610 302 650 q 295 558 302 591 q 260 422 288 524 q 186 98 186 149 q 205 71 186 71 q 311 129 235 71 l 318 127 l 326 109 l 324 101 q 227 31 277 64 q 155 -13 176 -3 q 119 -22 134 -22 q 87 -4 99 -22 q 76 37 76 14 q 84 103 76 68 q 105 180 93 138 q 168 426 149 338 q 186 534 186 514 q 171 557 186 557 q 151 552 161 557 q 66 503 142 547 l 58 505 m 242 698 z "},"ī":{"ha":386,"x_min":52,"x_max":446,"o":"m 58 505 l 52 521 l 54 530 q 196 623 146 596 q 274 650 245 650 q 302 610 302 650 q 295 558 302 591 q 260 422 288 524 q 186 98 186 149 q 205 71 186 71 q 311 129 235 71 l 318 127 l 326 109 l 324 101 q 227 31 277 64 q 155 -13 176 -3 q 119 -22 134 -22 q 87 -4 99 -22 q 76 37 76 14 q 84 103 76 68 q 105 180 93 138 q 168 426 149 338 q 186 534 186 514 q 171 557 186 557 q 151 552 161 557 q 66 503 142 547 l 58 505 m 242 698 m 446 873 l 430 809 l 61 809 l 78 873 l 446 873 z "},"į":{"ha":386,"x_min":18,"x_max":365,"o":"m 313 975 q 365 920 365 975 q 344 854 365 882 q 291 825 323 825 q 235 884 235 825 q 257 946 235 918 q 313 975 279 975 m 145 -18 q 88 -126 88 -92 q 130 -180 88 -180 q 203 -149 172 -180 l 208 -148 l 218 -155 l 219 -159 q 88 -243 162 -243 q 37 -221 56 -243 q 18 -170 18 -199 q 106 -19 18 -109 q 76 37 76 -8 q 105 180 76 77 q 186 534 186 470 q 171 557 186 557 q 66 503 159 557 l 58 505 l 52 521 l 54 530 q 274 650 220 650 q 302 610 302 650 q 260 422 302 576 q 186 98 186 148 q 205 71 186 71 q 311 129 235 71 l 318 127 l 326 109 l 324 101 q 155 -13 231 28 l 145 -18 z "},"ĵ":{"ha":386,"x_min":-92,"x_max":471,"o":"m 471 745 l 469 739 l 427 739 l 353 841 l 304 906 l 222 836 q 115 739 196 812 l 54 739 l 52 746 l 182 879 l 279 985 l 348 985 q 471 745 401 873 m -92 -378 l -81 -312 l -70 -305 q -15 -326 -32 -326 q 16 -312 1 -326 q 44 -264 30 -297 q 73 -149 58 -231 q 119 85 88 -67 l 184 406 l 202 513 q 204 534 204 525 q 184 558 204 558 q 75 503 160 558 l 68 506 l 60 522 l 63 531 q 288 652 235 652 q 318 611 318 652 q 281 417 318 579 l 212 111 q 81 -295 142 -201 q -43 -389 20 -389 q -92 -378 -60 -389 z "},"ķ":{"ha":616,"x_min":15,"x_max":621,"o":"m 309 998 l 326 985 q 263 699 302 887 l 224 512 q 179 316 199 396 q 314 484 232 392 q 461 619 395 576 q 574 661 527 661 q 621 650 593 661 l 598 555 q 541 565 568 565 q 469 550 505 565 q 394 504 433 535 q 311 427 356 473 q 373 257 334 355 q 432 120 412 159 q 464 73 452 81 q 484 66 475 66 q 553 97 503 66 l 574 110 l 582 108 l 589 92 l 587 83 q 461 -4 491 13 q 416 -21 431 -21 q 402 -17 410 -21 q 380 8 394 -12 q 340 90 366 29 q 300 188 314 150 q 242 349 286 227 q 189 281 201 298 q 170 245 178 264 q 153 189 162 227 q 135 103 143 152 l 119 7 l 26 -18 l 15 -9 l 48 120 q 110 401 69 202 q 169 704 151 600 l 194 846 q 199 887 199 872 q 190 908 199 901 q 151 915 180 915 l 94 916 l 88 921 l 90 938 l 96 944 q 309 998 222 964 m 111 -376 l 111 -361 q 218 -314 183 -347 q 254 -253 254 -281 q 224 -235 254 -235 q 159 -176 159 -235 q 182 -115 159 -143 q 247 -87 205 -87 q 323 -177 323 -87 q 266 -307 323 -247 q 111 -376 208 -368 z "},"ĸ":{"ha":616,"x_min":15,"x_max":621,"o":"m 236 657 l 253 644 q 179 316 231 541 q 314 484 232 392 q 461 619 395 576 q 574 661 527 661 q 621 650 593 661 l 598 555 q 541 565 568 565 q 395 505 470 565 q 311 427 356 473 q 432 120 370 239 q 484 66 460 66 q 553 97 503 66 l 574 110 l 582 108 l 589 92 l 587 83 q 416 -21 445 -21 q 380 9 400 -21 q 300 189 351 50 q 242 349 286 227 q 202 300 207 306 q 170 245 180 271 q 135 103 151 201 l 119 7 l 26 -18 l 15 -9 l 48 120 q 81 284 54 143 q 121 505 111 440 q 125 547 125 538 q 117 568 125 561 q 73 576 104 576 l 20 575 l 15 581 l 17 597 l 22 604 q 236 657 149 623 z "},"ĺ":{"ha":386,"x_min":52,"x_max":442,"o":"m 326 998 l 344 985 q 233 468 317 874 q 165 121 173 178 q 163 100 163 109 q 170 77 163 85 q 185 69 177 69 q 282 125 208 69 l 302 140 l 309 138 l 316 120 l 314 112 q 93 -20 150 -20 q 62 -5 73 -20 q 52 37 52 10 q 60 109 52 65 q 120 382 69 153 q 187 709 168 602 l 211 845 q 216 887 216 872 q 205 909 216 903 q 168 915 195 915 l 111 916 l 106 921 l 108 938 l 113 944 q 326 998 241 964 m 442 1293 l 208 1069 l 199 1069 l 184 1082 l 182 1088 q 264 1200 206 1118 l 337 1308 l 433 1310 l 442 1293 z "},"ļ":{"ha":386,"x_min":-24,"x_max":344,"o":"m 326 998 l 344 985 q 233 468 317 874 q 165 121 173 178 q 163 100 163 109 q 170 77 163 85 q 185 69 177 69 q 282 125 208 69 l 302 140 l 309 138 l 316 120 l 314 112 q 93 -20 150 -20 q 62 -5 73 -20 q 52 37 52 10 q 60 109 52 65 q 120 382 69 153 q 187 709 168 602 l 211 845 q 216 887 216 872 q 205 909 216 903 q 168 915 195 915 l 111 916 l 106 921 l 108 938 l 113 944 q 326 998 241 964 m -24 -376 l -24 -361 q 83 -314 47 -347 q 118 -253 118 -281 q 89 -235 118 -235 q 23 -176 23 -235 q 46 -115 23 -143 q 111 -87 70 -87 q 188 -177 188 -87 q 130 -307 188 -247 q -24 -376 73 -368 z "},"ľ":{"ha":536,"x_min":52,"x_max":581,"o":"m 326 998 l 344 985 q 233 468 317 874 q 165 121 173 178 q 163 100 163 109 q 170 77 163 85 q 185 69 177 69 q 282 125 208 69 l 302 140 l 309 138 l 316 120 l 314 112 q 93 -20 150 -20 q 62 -5 73 -20 q 52 37 52 10 q 60 109 52 65 q 120 382 69 153 q 187 709 168 602 l 211 845 q 216 887 216 872 q 205 909 216 903 q 168 915 195 915 l 111 916 l 106 921 l 108 938 l 113 944 q 326 998 241 964 m 369 713 l 369 728 q 476 775 441 743 q 511 836 511 808 q 482 854 511 854 q 416 913 416 854 q 440 974 416 946 q 505 1002 463 1002 q 581 912 581 1002 q 524 782 581 842 q 369 713 466 722 z "},"ŀ":{"ha":437,"x_min":52,"x_max":460,"o":"m 326 998 l 344 985 q 233 468 317 874 q 165 121 173 178 q 163 100 163 109 q 170 77 163 85 q 185 69 177 69 q 282 125 208 69 l 302 140 l 309 138 l 316 120 l 314 112 q 93 -20 150 -20 q 62 -5 73 -20 q 52 37 52 10 q 60 109 52 65 q 120 382 69 153 q 187 709 168 602 l 211 845 q 216 887 216 872 q 205 909 216 903 q 168 915 195 915 l 111 916 l 106 921 l 108 938 l 113 944 q 326 998 241 964 m 386 476 q 331 536 331 476 q 352 598 331 572 q 408 625 372 625 q 460 571 460 625 q 439 505 460 533 q 386 476 418 476 z "},"ł":{"ha":386,"x_min":-7,"x_max":424,"o":"m 151 529 q 216 888 216 850 q 205 909 216 903 q 168 915 195 915 l 111 916 l 106 921 l 108 938 l 113 944 q 326 998 239 964 l 344 985 q 260 597 333 938 l 403 686 l 412 684 l 424 654 l 422 646 l 248 538 q 163 100 163 135 q 170 77 163 85 q 185 69 177 69 q 302 140 208 69 l 309 138 l 316 120 l 314 112 q 94 -20 150 -20 q 62 -5 73 -20 q 52 37 52 10 q 54 76 52 58 q 85 224 57 95 l 139 471 l 14 392 l 5 394 l -7 425 l -5 432 l 151 529 z "},"ń":{"ha":772,"x_min":47,"x_max":709,"o":"m 80 -17 l 71 -5 q 150 306 115 130 q 184 530 184 482 q 165 556 184 556 q 61 503 140 556 l 53 505 l 47 519 l 49 530 q 114 576 76 550 q 188 622 151 602 q 238 646 224 642 q 263 650 252 650 q 289 637 282 650 q 296 610 296 624 q 274 489 296 579 q 237 340 267 464 l 242 339 q 366 496 292 421 q 517 611 439 572 q 631 650 595 650 q 662 638 652 650 q 672 606 672 625 q 625 378 672 559 q 562 94 562 136 q 581 68 562 68 q 694 134 603 68 l 702 132 l 709 114 l 707 106 q 611 36 665 72 q 532 -10 557 1 q 492 -21 508 -21 q 461 -6 471 -21 q 451 30 451 8 q 462 104 451 54 q 507 290 473 155 q 557 524 557 480 q 531 559 557 559 q 488 548 513 559 q 395 482 445 528 q 303 375 345 436 q 238 253 261 313 q 197 115 214 192 q 176 5 194 106 q 80 -17 129 -3 m 639 968 l 404 745 l 395 745 l 380 758 l 379 764 q 461 876 403 794 l 534 984 l 629 986 l 639 968 z "},"ñ":{"ha":772,"x_min":47,"x_max":718,"o":"m 80 -17 l 71 -5 q 150 306 115 130 q 184 530 184 482 q 165 556 184 556 q 61 503 140 556 l 53 505 l 47 519 l 49 530 q 114 576 76 550 q 188 622 151 602 q 238 646 224 642 q 263 650 252 650 q 289 637 282 650 q 296 610 296 624 q 274 489 296 579 q 237 340 267 464 l 242 339 q 366 496 292 421 q 517 611 439 572 q 631 650 595 650 q 662 638 652 650 q 672 606 672 625 q 625 378 672 559 q 562 94 562 136 q 581 68 562 68 q 694 134 603 68 l 702 132 l 709 114 l 707 106 q 611 36 665 72 q 532 -10 557 1 q 492 -21 508 -21 q 461 -6 471 -21 q 451 30 451 8 q 462 104 451 54 q 507 290 473 155 q 557 524 557 480 q 531 559 557 559 q 488 548 513 559 q 395 482 445 528 q 303 375 345 436 q 238 253 261 313 q 197 115 214 192 q 176 5 194 106 q 80 -17 129 -3 m 718 925 q 599 789 688 789 q 516 809 573 789 l 446 833 q 375 850 399 850 q 306 782 328 850 l 277 782 l 273 787 q 403 926 306 926 q 479 910 435 926 l 544 885 q 618 865 597 865 q 688 930 667 865 l 713 930 l 718 925 z "},"ň":{"ha":772,"x_min":47,"x_max":709,"o":"m 80 -17 l 71 -5 q 150 306 115 130 q 184 530 184 482 q 165 556 184 556 q 61 503 140 556 l 53 505 l 47 519 l 49 530 q 114 576 76 550 q 188 622 151 602 q 238 646 224 642 q 263 650 252 650 q 289 637 282 650 q 296 610 296 624 q 274 489 296 579 q 237 340 267 464 l 242 339 q 366 496 292 421 q 517 611 439 572 q 631 650 595 650 q 662 638 652 650 q 672 606 672 625 q 625 378 672 559 q 562 94 562 136 q 581 68 562 68 q 694 134 603 68 l 702 132 l 709 114 l 707 106 q 611 36 665 72 q 532 -10 557 1 q 492 -21 508 -21 q 461 -6 471 -21 q 451 30 451 8 q 462 104 451 54 q 507 290 473 155 q 557 524 557 480 q 531 559 557 559 q 488 548 513 559 q 395 482 445 528 q 303 375 345 436 q 238 253 261 313 q 197 115 214 192 q 176 5 194 106 q 80 -17 129 -3 m 687 981 l 557 839 q 470 739 531 810 l 421 739 q 286 982 399 776 l 290 986 l 332 986 l 448 819 q 631 986 530 888 l 686 986 l 687 981 z "},"ņ":{"ha":772,"x_min":47,"x_max":709,"o":"m 80 -17 l 71 -5 q 150 306 115 130 q 184 530 184 482 q 165 556 184 556 q 61 503 140 556 l 53 505 l 47 519 l 49 530 q 114 576 76 550 q 188 622 151 602 q 238 646 224 642 q 263 650 252 650 q 289 637 282 650 q 296 610 296 624 q 274 489 296 579 q 237 340 267 464 l 242 339 q 366 496 292 421 q 517 611 439 572 q 631 650 595 650 q 662 638 652 650 q 672 606 672 625 q 625 378 672 559 q 562 94 562 136 q 581 68 562 68 q 694 134 603 68 l 702 132 l 709 114 l 707 106 q 611 36 665 72 q 532 -10 557 1 q 492 -21 508 -21 q 461 -6 471 -21 q 451 30 451 8 q 462 104 451 54 q 507 290 473 155 q 557 524 557 480 q 531 559 557 559 q 488 548 513 559 q 395 482 445 528 q 303 375 345 436 q 238 253 261 313 q 197 115 214 192 q 176 5 194 106 q 80 -17 129 -3 m 179 -376 l 179 -361 q 286 -314 251 -347 q 321 -253 321 -281 q 292 -235 321 -235 q 227 -176 227 -235 q 250 -115 227 -143 q 315 -87 273 -87 q 391 -177 391 -87 q 334 -307 391 -247 q 179 -376 276 -368 z "},"ŉ":{"ha":812,"x_min":0,"x_max":749,"o":"m 120 -17 l 111 -5 q 190 306 155 130 q 224 530 224 482 q 205 556 224 556 q 101 503 180 556 l 93 505 l 87 519 l 89 530 q 154 576 116 550 q 228 622 191 602 q 278 646 264 642 q 303 650 292 650 q 329 637 322 650 q 336 610 336 624 q 314 489 336 579 q 277 340 307 464 l 282 339 q 406 496 332 421 q 557 611 479 572 q 671 650 635 650 q 702 638 692 650 q 712 606 712 625 q 665 378 712 559 q 602 94 602 136 q 621 68 602 68 q 734 134 643 68 l 742 132 l 749 114 l 747 106 q 651 36 705 72 q 572 -10 597 1 q 532 -21 548 -21 q 501 -6 511 -21 q 491 30 491 8 q 502 104 491 54 q 547 290 513 155 q 597 524 597 480 q 571 559 597 559 q 528 548 553 559 q 435 482 485 528 q 343 375 385 436 q 278 253 301 313 q 237 115 254 192 q 216 5 234 106 q 120 -17 169 -3 m 0 655 l 0 670 q 107 718 72 685 q 142 779 142 750 q 113 797 142 797 q 47 856 47 797 q 71 916 47 888 q 136 944 94 944 q 212 854 212 944 q 155 724 212 785 q 0 655 97 664 z "},"ó":{"ha":616,"x_min":26,"x_max":571,"o":"m 26 189 q 71 425 26 319 q 205 594 115 532 q 382 657 296 657 q 514 609 460 657 q 568 446 568 562 q 517 215 568 332 q 378 39 467 98 q 205 -21 290 -21 q 107 5 149 -21 q 46 76 65 31 q 26 189 26 121 m 135 199 q 146 106 135 140 q 187 51 158 72 q 259 31 216 31 q 338 54 304 31 q 402 142 372 78 q 447 287 433 207 q 460 433 460 366 q 446 532 460 495 q 404 589 432 570 q 337 608 376 608 q 184 483 233 608 q 135 199 135 357 m 351 698 m 225 -74 m 571 968 l 336 745 l 328 745 l 313 758 l 311 764 q 393 876 335 794 l 466 984 l 562 986 l 571 968 z "},"ò":{"ha":616,"x_min":26,"x_max":568,"o":"m 26 189 q 71 425 26 319 q 205 594 115 532 q 382 657 296 657 q 514 609 460 657 q 568 446 568 562 q 517 215 568 332 q 378 39 467 98 q 205 -21 290 -21 q 107 5 149 -21 q 46 76 65 31 q 26 189 26 121 m 135 199 q 146 106 135 140 q 187 51 158 72 q 259 31 216 31 q 338 54 304 31 q 402 142 372 78 q 447 287 433 207 q 460 433 460 366 q 446 532 460 495 q 404 589 432 570 q 337 608 376 608 q 184 483 233 608 q 135 199 135 357 m 351 698 m 225 -74 m 468 762 l 465 754 l 451 743 l 442 745 q 216 969 338 842 l 227 983 l 325 985 q 468 762 346 944 z "},"ô":{"ha":616,"x_min":26,"x_max":637,"o":"m 26 189 q 71 425 26 319 q 205 594 115 532 q 382 657 296 657 q 514 609 460 657 q 568 446 568 562 q 517 215 568 332 q 378 39 467 98 q 205 -21 290 -21 q 107 5 149 -21 q 46 76 65 31 q 26 189 26 121 m 135 199 q 146 106 135 140 q 187 51 158 72 q 259 31 216 31 q 338 54 304 31 q 402 142 372 78 q 447 287 433 207 q 460 433 460 366 q 446 532 460 495 q 404 589 432 570 q 337 608 376 608 q 184 483 233 608 q 135 199 135 357 m 351 698 m 225 -74 m 583 745 l 581 739 l 538 739 l 465 841 l 416 906 l 334 836 q 227 739 308 812 l 166 739 l 164 746 l 294 879 l 391 985 l 460 985 q 583 745 511 876 m 417 937 m 637 741 z "},"ö":{"ha":616,"x_min":26,"x_max":576,"o":"m 26 189 q 71 425 26 319 q 205 594 115 532 q 382 657 296 657 q 514 609 460 657 q 568 446 568 562 q 517 215 568 332 q 378 39 467 98 q 205 -21 290 -21 q 107 5 149 -21 q 46 76 65 31 q 26 189 26 121 m 135 199 q 146 106 135 140 q 187 51 158 72 q 259 31 216 31 q 338 54 304 31 q 402 142 372 78 q 447 287 433 207 q 460 433 460 366 q 446 532 460 495 q 404 589 432 570 q 337 608 376 608 q 184 483 233 608 q 135 199 135 357 m 351 698 m 225 -74 m 244 789 q 190 849 190 789 q 212 910 190 883 q 266 938 233 938 q 319 884 319 938 q 297 817 319 846 q 244 789 276 789 m 501 789 q 447 849 447 789 q 469 910 447 883 q 523 938 490 938 q 576 884 576 938 q 554 817 576 846 q 501 789 533 789 z "},"õ":{"ha":616,"x_min":26,"x_max":614,"o":"m 26 189 q 71 425 26 319 q 205 594 115 532 q 382 657 296 657 q 514 609 460 657 q 568 446 568 562 q 517 215 568 332 q 378 39 467 98 q 205 -21 290 -21 q 107 5 149 -21 q 46 76 65 31 q 26 189 26 121 m 135 199 q 146 106 135 140 q 187 51 158 72 q 259 31 216 31 q 338 54 304 31 q 402 142 372 78 q 447 287 433 207 q 460 433 460 366 q 446 532 460 495 q 404 589 432 570 q 337 608 376 608 q 184 483 233 608 q 135 199 135 357 m 351 698 m 225 -74 m 614 925 q 495 789 585 789 q 412 809 469 789 l 342 833 q 271 850 296 850 q 202 782 224 850 l 174 782 l 169 787 q 299 926 202 926 q 375 910 332 926 l 440 885 q 515 865 493 865 q 585 930 564 865 l 609 930 l 614 925 z "},"ŏ":{"ha":616,"x_min":26,"x_max":586,"o":"m 26 189 q 71 425 26 319 q 205 594 115 532 q 382 657 296 657 q 514 609 460 657 q 568 446 568 562 q 517 215 568 332 q 378 39 467 98 q 205 -21 290 -21 q 107 5 149 -21 q 46 76 65 31 q 26 189 26 121 m 135 199 q 146 106 135 140 q 187 51 158 72 q 259 31 216 31 q 338 54 304 31 q 402 142 372 78 q 447 287 433 207 q 460 433 460 366 q 446 532 460 495 q 404 589 432 570 q 337 608 376 608 q 184 483 233 608 q 135 199 135 357 m 351 698 m 225 -74 m 586 968 q 366 755 545 755 q 245 804 292 755 q 198 937 198 854 q 201 968 198 945 l 225 968 q 268 869 225 907 q 377 831 311 831 q 559 968 500 831 l 586 968 m 389 925 z "},"ő":{"ha":616,"x_min":26,"x_max":699,"o":"m 26 189 q 71 425 26 319 q 205 594 115 532 q 382 657 296 657 q 514 609 460 657 q 568 446 568 562 q 517 215 568 332 q 378 39 467 98 q 205 -21 290 -21 q 107 5 149 -21 q 46 76 65 31 q 26 189 26 121 m 135 199 q 146 106 135 140 q 187 51 158 72 q 259 31 216 31 q 338 54 304 31 q 402 142 372 78 q 447 287 433 207 q 460 433 460 366 q 446 532 460 495 q 404 589 432 570 q 337 608 376 608 q 184 483 233 608 q 135 199 135 357 m 351 698 m 225 -74 m 495 968 q 258 747 455 935 l 249 746 l 237 753 l 235 764 q 317 876 259 794 l 390 983 l 486 985 l 495 968 m 699 968 q 463 747 682 956 l 454 746 l 440 753 l 439 764 q 521 876 463 794 l 593 983 l 689 985 l 699 968 z "},"ō":{"ha":616,"x_min":26,"x_max":608,"o":"m 26 189 q 71 425 26 319 q 205 594 115 532 q 382 657 296 657 q 514 609 460 657 q 568 446 568 562 q 517 215 568 332 q 378 39 467 98 q 205 -21 290 -21 q 107 5 149 -21 q 46 76 65 31 q 26 189 26 121 m 135 199 q 146 106 135 140 q 187 51 158 72 q 259 31 216 31 q 338 54 304 31 q 402 142 372 78 q 447 287 433 207 q 460 433 460 366 q 446 532 460 495 q 404 589 432 570 q 337 608 376 608 q 184 483 233 608 q 135 199 135 357 m 351 698 m 225 -74 m 608 873 l 593 809 l 224 809 l 241 873 l 608 873 z "},"ø":{"ha":616,"x_min":-18,"x_max":608,"o":"m -18 -9 l 50 69 q 28 189 28 116 q 68 415 28 308 q 200 590 108 523 q 382 656 292 656 q 522 603 469 656 l 575 661 l 584 661 l 608 640 l 607 631 l 547 563 q 570 448 570 505 q 526 232 570 351 q 391 46 483 113 q 207 -21 300 -21 q 77 29 121 -21 l 16 -40 l 7 -40 l -18 -18 l -18 -9 m 450 523 q 331 607 423 607 q 265 591 292 607 q 214 539 238 574 q 171 445 191 503 q 143 325 152 386 q 134 216 134 264 q 136 168 134 190 l 450 523 m 146 107 q 258 29 177 29 q 330 47 301 29 q 389 115 359 64 q 440 247 418 166 q 462 425 462 328 q 461 463 462 438 l 146 107 z "},"ǿ":{"ha":616,"x_min":-18,"x_max":608,"o":"m -18 -9 l 50 69 q 28 189 28 116 q 68 415 28 308 q 200 590 108 523 q 382 656 292 656 q 522 603 469 656 l 575 661 l 584 661 l 608 640 l 607 631 l 547 563 q 570 448 570 505 q 526 232 570 351 q 391 46 483 113 q 207 -21 300 -21 q 77 29 121 -21 l 16 -40 l 7 -40 l -18 -18 l -18 -9 m 450 523 q 331 607 423 607 q 265 591 292 607 q 214 539 238 574 q 171 445 191 503 q 143 325 152 386 q 134 216 134 264 q 136 168 134 190 l 450 523 m 146 107 q 258 29 177 29 q 330 47 301 29 q 389 115 359 64 q 440 247 418 166 q 462 425 462 328 q 461 463 462 438 l 146 107 m 557 968 l 323 745 l 314 745 l 299 758 l 298 764 q 380 876 321 794 l 452 984 l 548 986 l 557 968 z "},"œ":{"ha":929,"x_min":27,"x_max":903,"o":"m 847 142 l 854 125 l 852 116 q 580 -20 694 -20 q 489 3 532 -20 q 429 96 447 27 q 208 -20 332 -20 q 75 38 122 -20 q 27 205 27 96 q 66 418 27 317 q 195 589 106 520 q 378 657 285 657 q 461 642 425 657 q 518 603 498 627 q 553 543 538 579 q 679 627 618 595 q 794 659 739 659 q 869 632 836 659 q 903 552 903 606 q 890 485 903 517 q 849 426 877 453 q 778 374 822 399 q 687 333 734 350 q 578 299 639 315 l 532 286 q 519 167 519 209 q 548 80 519 113 q 625 47 576 47 q 840 145 710 47 l 847 142 m 134 205 q 259 31 134 31 q 341 57 304 31 q 403 143 377 83 q 444 301 429 203 q 460 457 460 400 q 446 536 460 505 q 403 589 433 568 q 333 609 373 609 q 183 478 232 609 q 134 205 134 348 m 537 321 q 745 412 689 355 q 801 532 801 469 q 786 583 801 564 q 741 602 771 602 q 640 563 690 602 q 569 455 591 524 q 537 321 548 386 z "},"ŕ":{"ha":541,"x_min":36,"x_max":557,"o":"m 81 -20 l 68 -11 q 148 314 116 144 q 180 531 180 483 q 163 562 180 562 q 51 500 143 562 l 43 503 l 36 517 l 38 528 q 165 616 98 576 q 263 656 232 656 q 290 622 290 656 q 241 359 290 583 q 364 546 304 470 q 451 640 425 623 q 505 657 478 657 q 529 652 517 657 l 532 644 q 509 500 522 607 l 490 496 q 444 523 470 523 q 398 507 425 523 q 332 444 372 492 q 264 337 293 397 q 218 205 235 277 q 173 3 200 134 q 81 -20 104 -12 m 557 968 l 323 745 l 314 745 l 299 758 l 298 764 q 380 876 321 794 l 452 984 l 548 986 l 557 968 z "},"ř":{"ha":541,"x_min":36,"x_max":583,"o":"m 81 -20 l 68 -11 q 148 314 116 144 q 180 531 180 483 q 163 562 180 562 q 51 500 143 562 l 43 503 l 36 517 l 38 528 q 165 616 98 576 q 263 656 232 656 q 290 622 290 656 q 241 359 290 583 q 364 546 304 470 q 451 640 425 623 q 505 657 478 657 q 529 652 517 657 l 532 644 q 509 500 522 607 l 490 496 q 444 523 470 523 q 398 507 425 523 q 332 444 372 492 q 264 337 293 397 q 218 205 235 277 q 173 3 200 134 q 81 -20 104 -12 m 583 981 l 454 839 q 366 739 427 810 l 317 739 q 182 982 295 776 l 186 986 l 228 986 l 345 819 q 528 986 427 888 l 582 986 l 583 981 z "},"ŗ":{"ha":541,"x_min":-31,"x_max":532,"o":"m 81 -20 l 68 -11 q 148 314 116 144 q 180 531 180 483 q 163 562 180 562 q 51 500 143 562 l 43 503 l 36 517 l 38 528 q 165 616 98 576 q 263 656 232 656 q 290 622 290 656 q 241 359 290 583 q 364 546 304 470 q 451 640 425 623 q 505 657 478 657 q 529 652 517 657 l 532 644 q 509 500 522 607 l 490 496 q 444 523 470 523 q 398 507 425 523 q 332 444 372 492 q 264 337 293 397 q 218 205 235 277 q 173 3 200 134 q 81 -20 104 -12 m -31 -376 l -31 -361 q 76 -314 41 -347 q 111 -253 111 -281 q 82 -235 111 -235 q 16 -176 16 -235 q 40 -115 16 -143 q 104 -87 63 -87 q 181 -177 181 -87 q 123 -307 181 -247 q -31 -376 66 -368 z "},"ś":{"ha":541,"x_min":16,"x_max":510,"o":"m 16 16 q 44 188 40 123 l 50 193 l 73 193 l 78 188 l 78 79 q 212 26 139 26 q 275 37 244 26 q 326 67 305 48 q 358 116 346 85 q 370 179 370 147 q 362 221 370 201 q 333 254 353 241 q 253 277 313 267 q 167 295 192 288 q 118 320 142 302 q 80 366 94 338 q 66 428 66 395 q 88 510 66 473 q 151 580 109 547 q 238 634 193 612 q 338 656 283 656 q 473 623 418 656 l 475 616 q 460 545 464 576 l 452 469 l 447 463 l 426 463 l 420 469 q 418 547 420 509 q 290 599 370 599 q 187 562 226 599 q 149 473 149 525 q 174 407 149 431 q 272 372 200 382 q 363 355 336 362 q 414 333 391 349 q 450 291 437 317 q 463 234 463 266 q 449 160 463 196 q 407 93 434 123 q 331 30 380 62 q 243 -16 281 -3 q 163 -28 205 -28 q 19 8 94 -28 l 16 16 m 510 968 l 275 745 l 267 745 l 252 758 l 250 764 q 332 876 274 794 l 405 984 l 500 986 l 510 968 z "},"ŝ":{"ha":541,"x_min":16,"x_max":583,"o":"m 16 16 q 44 188 40 123 l 50 193 l 73 193 l 78 188 l 78 79 q 212 26 139 26 q 275 37 244 26 q 326 67 305 48 q 358 116 346 85 q 370 179 370 147 q 362 221 370 201 q 333 254 353 241 q 253 277 313 267 q 167 295 192 288 q 118 320 142 302 q 80 366 94 338 q 66 428 66 395 q 88 510 66 473 q 151 580 109 547 q 238 634 193 612 q 338 656 283 656 q 473 623 418 656 l 475 616 q 460 545 464 576 l 452 469 l 447 463 l 426 463 l 420 469 q 418 547 420 509 q 290 599 370 599 q 187 562 226 599 q 149 473 149 525 q 174 407 149 431 q 272 372 200 382 q 363 355 336 362 q 414 333 391 349 q 450 291 437 317 q 463 234 463 266 q 449 160 463 196 q 407 93 434 123 q 331 30 380 62 q 243 -16 281 -3 q 163 -28 205 -28 q 19 8 94 -28 l 16 16 m 528 745 l 526 739 l 484 739 l 411 841 l 361 906 l 280 836 q 172 739 254 812 l 112 739 l 110 746 l 239 879 l 336 985 l 406 985 q 528 745 457 876 m 363 937 m 583 741 z "},"š":{"ha":541,"x_min":16,"x_max":549,"o":"m 16 16 q 44 188 40 123 l 50 193 l 73 193 l 78 188 l 78 79 q 212 26 139 26 q 275 37 244 26 q 326 67 305 48 q 358 116 346 85 q 370 179 370 147 q 362 221 370 201 q 333 254 353 241 q 253 277 313 267 q 167 295 192 288 q 118 320 142 302 q 80 366 94 338 q 66 428 66 395 q 88 510 66 473 q 151 580 109 547 q 238 634 193 612 q 338 656 283 656 q 473 623 418 656 l 475 616 q 460 545 464 576 l 452 469 l 447 463 l 426 463 l 420 469 q 418 547 420 509 q 290 599 370 599 q 187 562 226 599 q 149 473 149 525 q 174 407 149 431 q 272 372 200 382 q 363 355 336 362 q 414 333 391 349 q 450 291 437 317 q 463 234 463 266 q 449 160 463 196 q 407 93 434 123 q 331 30 380 62 q 243 -16 281 -3 q 163 -28 205 -28 q 19 8 94 -28 l 16 16 m 549 981 l 420 839 q 332 739 393 810 l 283 739 q 148 982 261 776 l 152 986 l 194 986 l 311 819 q 494 986 393 888 l 548 986 l 549 981 z "},"ș":{"ha":541,"x_min":16,"x_max":475,"o":"m 16 16 q 44 188 40 123 l 50 193 l 73 193 l 78 188 l 78 79 q 212 26 139 26 q 275 37 244 26 q 326 67 305 48 q 358 116 346 85 q 370 179 370 147 q 362 221 370 201 q 333 254 353 241 q 253 277 313 267 q 167 295 192 288 q 118 320 142 302 q 80 366 94 338 q 66 428 66 395 q 88 510 66 473 q 151 580 109 547 q 238 634 193 612 q 338 656 283 656 q 473 623 418 656 l 475 616 q 460 545 464 576 l 452 469 l 447 463 l 426 463 l 420 469 q 418 547 420 509 q 290 599 370 599 q 187 562 226 599 q 149 473 149 525 q 174 407 149 431 q 272 372 200 382 q 363 355 336 362 q 414 333 391 349 q 450 291 437 317 q 463 234 463 266 q 449 160 463 196 q 407 93 434 123 q 331 30 380 62 q 243 -16 281 -3 q 163 -28 205 -28 q 19 8 94 -28 l 16 16 m 71 -376 l 71 -361 q 178 -314 142 -347 q 213 -253 213 -281 q 184 -235 213 -235 q 118 -176 118 -235 q 141 -115 118 -143 q 206 -87 165 -87 q 283 -177 283 -87 q 225 -307 283 -247 q 71 -376 168 -368 z "},"ş":{"ha":541,"x_min":13,"x_max":475,"o":"m 182 -27 l 146 -89 q 186 -85 163 -85 q 265 -108 230 -85 q 300 -177 300 -132 q 251 -260 300 -226 q 140 -294 203 -294 q 14 -267 80 -294 l 13 -260 l 25 -239 l 32 -238 q 115 -252 90 -252 q 179 -233 154 -252 q 205 -182 205 -213 q 132 -124 205 -124 q 96 -129 114 -124 l 85 -121 l 146 -27 q 19 8 85 -24 l 16 16 q 44 188 40 123 l 50 193 l 73 193 l 78 188 l 78 79 q 212 26 139 26 q 326 67 281 26 q 370 179 370 108 q 347 244 370 224 q 254 278 323 265 q 147 302 177 292 q 92 347 117 311 q 66 428 66 383 q 160 587 66 518 q 338 656 254 656 q 473 623 418 656 l 475 616 q 460 545 464 576 l 452 469 l 447 463 l 426 463 l 420 469 q 418 547 420 509 q 290 599 370 599 q 189 564 230 599 q 149 473 149 529 q 272 372 149 390 q 382 349 346 361 q 440 308 418 337 q 463 234 463 278 q 372 58 463 136 q 182 -27 281 -20 z "},"ț":{"ha":463,"x_min":3,"x_max":444,"o":"m 372 151 l 379 135 l 377 127 q 285 57 351 104 q 191 -6 220 9 q 141 -22 162 -22 q 110 -4 121 -22 q 98 48 98 14 q 121 191 98 88 q 189 531 147 311 l 78 528 l 73 534 l 75 545 l 81 551 q 197 600 153 576 q 233 834 210 660 q 339 883 305 865 l 355 871 l 329 767 q 293 592 324 747 q 342 590 323 590 q 437 600 410 590 l 444 594 l 429 528 q 281 531 404 528 q 205 105 205 170 q 231 74 205 74 q 266 85 244 74 q 340 135 287 96 l 363 153 l 372 151 m 3 -376 l 3 -361 q 110 -314 75 -347 q 145 -253 145 -281 q 116 -235 145 -235 q 50 -176 50 -235 q 74 -115 50 -143 q 138 -87 97 -87 q 215 -177 215 -87 q 157 -307 215 -247 q 3 -376 100 -368 z "},"ť":{"ha":584,"x_min":73,"x_max":631,"o":"m 372 151 l 379 135 l 377 127 q 285 57 351 104 q 191 -6 220 9 q 141 -22 162 -22 q 110 -4 121 -22 q 98 48 98 14 q 121 191 98 88 q 189 531 147 311 l 78 528 l 73 534 l 75 545 l 81 551 q 197 600 153 576 q 233 834 210 660 q 339 883 305 865 l 355 871 l 329 767 q 293 592 324 747 q 342 590 323 590 q 437 600 410 590 l 444 594 l 429 528 q 281 531 404 528 q 205 105 205 170 q 231 74 205 74 q 266 85 244 74 q 340 135 287 96 l 363 153 l 372 151 m 419 713 l 419 728 q 526 775 491 743 q 562 836 562 808 q 532 854 562 854 q 467 913 467 854 q 490 974 467 946 q 555 1002 513 1002 q 631 912 631 1002 q 574 782 631 842 q 419 713 516 722 z "},"ţ":{"ha":463,"x_min":-2,"x_max":444,"o":"m 372 151 l 379 135 l 377 127 q 285 57 351 104 q 191 -6 220 9 q 141 -22 162 -22 q 110 -4 121 -22 q 98 48 98 14 q 121 191 98 88 q 189 531 147 311 l 78 528 l 73 534 l 75 545 l 81 551 q 197 600 153 576 q 233 834 210 660 q 339 883 305 865 l 355 871 l 329 767 q 293 592 324 747 q 342 590 323 590 q 437 600 410 590 l 444 594 l 429 528 q 281 531 404 528 q 205 105 205 170 q 231 74 205 74 q 266 85 244 74 q 340 135 287 96 l 363 153 l 372 151 m 290 -184 q 234 -275 290 -243 q 125 -300 188 -300 q 0 -274 61 -300 l -2 -266 l 16 -237 l 24 -234 q 109 -252 68 -252 q 189 -192 189 -252 q 124 -138 189 -138 q 76 -145 101 -138 l 66 -134 q 172 -90 101 -90 q 253 -112 221 -90 q 290 -184 290 -137 z "},"ŧ":{"ha":463,"x_min":50,"x_max":444,"o":"m 254 399 q 205 105 205 148 q 231 74 205 74 q 268 86 245 74 q 339 135 290 98 l 363 153 l 371 151 l 379 135 l 377 127 q 286 58 351 104 q 192 -6 222 11 q 141 -22 162 -22 q 110 -4 121 -22 q 98 48 98 14 q 121 191 98 89 q 163 400 140 275 l 54 397 l 50 402 l 52 414 l 57 420 q 177 470 130 446 q 184 505 180 483 l 189 531 l 78 528 l 73 534 l 75 545 l 81 551 q 197 600 151 576 q 233 834 212 667 q 339 883 307 865 l 355 871 q 293 592 315 720 q 342 590 323 590 q 437 600 409 590 l 444 594 l 429 528 q 281 531 404 528 l 267 460 q 318 459 294 459 q 414 469 386 459 l 420 463 l 405 397 q 316 399 389 397 l 254 399 z "},"ú":{"ha":772,"x_min":55,"x_max":700,"o":"m 62 509 l 55 525 l 57 534 q 145 592 77 550 q 239 645 213 633 q 280 656 266 656 q 302 646 294 656 q 311 621 311 635 q 291 526 311 605 q 204 106 204 170 q 224 76 204 76 q 307 121 250 76 q 429 249 363 165 q 524 416 494 332 q 577 631 554 500 q 670 653 585 633 l 680 643 q 664 587 680 639 q 610 385 637 499 q 570 203 583 271 q 558 106 558 135 q 580 75 558 75 q 608 85 591 75 q 685 140 625 96 l 692 138 l 700 122 l 699 113 q 542 -2 579 19 q 486 -22 505 -22 q 460 -8 469 -22 q 451 26 451 7 q 508 304 451 68 l 504 307 l 454 235 q 393 158 428 198 q 312 77 359 119 q 228 12 266 36 q 173 -17 190 -12 q 146 -23 156 -23 q 112 -4 127 -23 q 98 54 98 16 q 124 213 98 106 q 191 540 191 482 q 174 562 191 562 q 70 507 153 562 l 62 509 m 418 698 m 293 -74 m 659 968 l 425 745 l 416 745 l 401 758 l 399 764 q 481 876 423 794 l 554 984 l 650 986 l 659 968 z "},"ù":{"ha":772,"x_min":55,"x_max":700,"o":"m 62 509 l 55 525 l 57 534 q 145 592 77 550 q 239 645 213 633 q 280 656 266 656 q 302 646 294 656 q 311 621 311 635 q 291 526 311 605 q 204 106 204 170 q 224 76 204 76 q 307 121 250 76 q 429 249 363 165 q 524 416 494 332 q 577 631 554 500 q 670 653 585 633 l 680 643 q 664 587 680 639 q 610 385 637 499 q 570 203 583 271 q 558 106 558 135 q 580 75 558 75 q 608 85 591 75 q 685 140 625 96 l 692 138 l 700 122 l 699 113 q 542 -2 579 19 q 486 -22 505 -22 q 460 -8 469 -22 q 451 26 451 7 q 508 304 451 68 l 504 307 l 454 235 q 393 158 428 198 q 312 77 359 119 q 228 12 266 36 q 173 -17 190 -12 q 146 -23 156 -23 q 112 -4 127 -23 q 98 54 98 16 q 124 213 98 106 q 191 540 191 482 q 174 562 191 562 q 70 507 153 562 l 62 509 m 418 698 m 293 -74 m 543 762 l 540 754 l 526 743 l 517 745 q 291 969 412 842 l 301 983 l 399 985 q 543 762 420 944 z "},"û":{"ha":772,"x_min":55,"x_max":712,"o":"m 62 509 l 55 525 l 57 534 q 145 592 77 550 q 239 645 213 633 q 280 656 266 656 q 302 646 294 656 q 311 621 311 635 q 291 526 311 605 q 204 106 204 170 q 224 76 204 76 q 307 121 250 76 q 429 249 363 165 q 524 416 494 332 q 577 631 554 500 q 670 653 585 633 l 680 643 q 664 587 680 639 q 610 385 637 499 q 570 203 583 271 q 558 106 558 135 q 580 75 558 75 q 608 85 591 75 q 685 140 625 96 l 692 138 l 700 122 l 699 113 q 542 -2 579 19 q 486 -22 505 -22 q 460 -8 469 -22 q 451 26 451 7 q 508 304 451 68 l 504 307 l 454 235 q 393 158 428 198 q 312 77 359 119 q 228 12 266 36 q 173 -17 190 -12 q 146 -23 156 -23 q 112 -4 127 -23 q 98 54 98 16 q 124 213 98 106 q 191 540 191 482 q 174 562 191 562 q 70 507 153 562 l 62 509 m 418 698 m 293 -74 m 657 745 l 655 739 l 613 739 l 540 841 l 490 906 l 409 836 q 301 739 382 812 l 241 739 l 239 746 l 368 879 l 465 985 l 534 985 q 657 745 586 876 m 492 937 m 712 741 z "},"ü":{"ha":772,"x_min":55,"x_max":700,"o":"m 62 509 l 55 525 l 57 534 q 145 592 77 550 q 239 645 213 633 q 280 656 266 656 q 302 646 294 656 q 311 621 311 635 q 291 526 311 605 q 204 106 204 170 q 224 76 204 76 q 307 121 250 76 q 429 249 363 165 q 524 416 494 332 q 577 631 554 500 q 670 653 585 633 l 680 643 q 664 587 680 639 q 610 385 637 499 q 570 203 583 271 q 558 106 558 135 q 580 75 558 75 q 608 85 591 75 q 685 140 625 96 l 692 138 l 700 122 l 699 113 q 542 -2 579 19 q 486 -22 505 -22 q 460 -8 469 -22 q 451 26 451 7 q 508 304 451 68 l 504 307 l 454 235 q 393 158 428 198 q 312 77 359 119 q 228 12 266 36 q 173 -17 190 -12 q 146 -23 156 -23 q 112 -4 127 -23 q 98 54 98 16 q 124 213 98 106 q 191 540 191 482 q 174 562 191 562 q 70 507 153 562 l 62 509 m 418 698 m 293 -74 m 332 789 q 278 849 278 789 q 300 910 278 883 q 354 938 321 938 q 407 884 407 938 q 386 817 407 846 q 332 789 364 789 m 589 789 q 535 849 535 789 q 557 910 535 883 q 611 938 578 938 q 664 884 664 938 q 643 817 664 846 q 589 789 621 789 z "},"ũ":{"ha":772,"x_min":55,"x_max":703,"o":"m 62 509 l 55 525 l 57 534 q 145 592 77 550 q 239 645 213 633 q 280 656 266 656 q 302 646 294 656 q 311 621 311 635 q 291 526 311 605 q 204 106 204 170 q 224 76 204 76 q 307 121 250 76 q 429 249 363 165 q 524 416 494 332 q 577 631 554 500 q 670 653 585 633 l 680 643 q 664 587 680 639 q 610 385 637 499 q 570 203 583 271 q 558 106 558 135 q 580 75 558 75 q 608 85 591 75 q 685 140 625 96 l 692 138 l 700 122 l 699 113 q 542 -2 579 19 q 486 -22 505 -22 q 460 -8 469 -22 q 451 26 451 7 q 508 304 451 68 l 504 307 l 454 235 q 393 158 428 198 q 312 77 359 119 q 228 12 266 36 q 173 -17 190 -12 q 146 -23 156 -23 q 112 -4 127 -23 q 98 54 98 16 q 124 213 98 106 q 191 540 191 482 q 174 562 191 562 q 70 507 153 562 l 62 509 m 418 698 m 293 -74 m 703 925 q 583 789 673 789 q 500 809 557 789 l 431 833 q 359 850 384 850 q 290 782 312 850 l 262 782 l 257 787 q 387 926 290 926 q 463 910 420 926 l 528 885 q 603 865 581 865 q 673 930 652 865 l 697 930 l 703 925 z "},"ŭ":{"ha":772,"x_min":55,"x_max":700,"o":"m 62 509 l 55 525 l 57 534 q 145 592 77 550 q 239 645 213 633 q 280 656 266 656 q 302 646 294 656 q 311 621 311 635 q 291 526 311 605 q 204 106 204 170 q 224 76 204 76 q 307 121 250 76 q 429 249 363 165 q 524 416 494 332 q 577 631 554 500 q 670 653 585 633 l 680 643 q 664 587 680 639 q 610 385 637 499 q 570 203 583 271 q 558 106 558 135 q 580 75 558 75 q 608 85 591 75 q 685 140 625 96 l 692 138 l 700 122 l 699 113 q 542 -2 579 19 q 486 -22 505 -22 q 460 -8 469 -22 q 451 26 451 7 q 508 304 451 68 l 504 307 l 454 235 q 393 158 428 198 q 312 77 359 119 q 228 12 266 36 q 173 -17 190 -12 q 146 -23 156 -23 q 112 -4 127 -23 q 98 54 98 16 q 124 213 98 106 q 191 540 191 482 q 174 562 191 562 q 70 507 153 562 l 62 509 m 418 698 m 293 -74 m 674 968 q 454 755 633 755 q 333 804 380 755 q 286 937 286 854 q 289 968 286 945 l 313 968 q 356 869 313 907 q 465 831 399 831 q 647 968 589 831 l 674 968 m 477 925 z "},"ů":{"ha":772,"x_min":55,"x_max":700,"o":"m 62 509 l 55 525 l 57 534 q 145 592 77 550 q 239 645 213 633 q 280 656 266 656 q 302 646 294 656 q 311 621 311 635 q 291 526 311 605 q 204 106 204 170 q 224 76 204 76 q 307 121 250 76 q 429 249 363 165 q 524 416 494 332 q 577 631 554 500 q 670 653 585 633 l 680 643 q 664 587 680 639 q 610 385 637 499 q 570 203 583 271 q 558 106 558 135 q 580 75 558 75 q 608 85 591 75 q 685 140 625 96 l 692 138 l 700 122 l 699 113 q 542 -2 579 19 q 486 -22 505 -22 q 460 -8 469 -22 q 451 26 451 7 q 508 304 451 68 l 504 307 l 454 235 q 393 158 428 198 q 312 77 359 119 q 228 12 266 36 q 173 -17 190 -12 q 146 -23 156 -23 q 112 -4 127 -23 q 98 54 98 16 q 124 213 98 106 q 191 540 191 482 q 174 562 191 562 q 70 507 153 562 l 62 509 m 418 698 m 293 -74 m 459 735 q 376 765 407 735 q 346 842 346 795 q 390 946 346 901 q 496 990 435 990 q 583 959 551 990 q 614 878 614 928 q 567 778 614 820 q 459 735 520 735 m 491 959 q 430 924 456 959 q 404 844 404 890 q 466 766 404 766 q 530 801 503 766 q 557 880 557 836 q 539 935 557 911 q 491 959 521 959 z "},"ű":{"ha":772,"x_min":55,"x_max":780,"o":"m 62 509 l 55 525 l 57 534 q 145 592 77 550 q 239 645 213 633 q 280 656 266 656 q 302 646 294 656 q 311 621 311 635 q 291 526 311 605 q 204 106 204 170 q 224 76 204 76 q 307 121 250 76 q 429 249 363 165 q 524 416 494 332 q 577 631 554 500 q 670 653 585 633 l 680 643 q 664 587 680 639 q 610 385 637 499 q 570 203 583 271 q 558 106 558 135 q 580 75 558 75 q 608 85 591 75 q 685 140 625 96 l 692 138 l 700 122 l 699 113 q 542 -2 579 19 q 486 -22 505 -22 q 460 -8 469 -22 q 451 26 451 7 q 508 304 451 68 l 504 307 l 454 235 q 393 158 428 198 q 312 77 359 119 q 228 12 266 36 q 173 -17 190 -12 q 146 -23 156 -23 q 112 -4 127 -23 q 98 54 98 16 q 124 213 98 106 q 191 540 191 482 q 174 562 191 562 q 70 507 153 562 l 62 509 m 418 698 m 293 -74 m 576 968 q 339 747 536 935 l 330 746 l 318 753 l 317 764 q 399 876 340 794 l 471 983 l 567 985 l 576 968 m 780 968 q 544 747 764 956 l 535 746 l 522 753 l 520 764 q 602 876 544 794 l 675 983 l 770 985 l 780 968 z "},"ū":{"ha":772,"x_min":55,"x_max":700,"o":"m 62 509 l 55 525 l 57 534 q 145 592 77 550 q 239 645 213 633 q 280 656 266 656 q 302 646 294 656 q 311 621 311 635 q 291 526 311 605 q 204 106 204 170 q 224 76 204 76 q 307 121 250 76 q 429 249 363 165 q 524 416 494 332 q 577 631 554 500 q 670 653 585 633 l 680 643 q 664 587 680 639 q 610 385 637 499 q 570 203 583 271 q 558 106 558 135 q 580 75 558 75 q 608 85 591 75 q 685 140 625 96 l 692 138 l 700 122 l 699 113 q 542 -2 579 19 q 486 -22 505 -22 q 460 -8 469 -22 q 451 26 451 7 q 508 304 451 68 l 504 307 l 454 235 q 393 158 428 198 q 312 77 359 119 q 228 12 266 36 q 173 -17 190 -12 q 146 -23 156 -23 q 112 -4 127 -23 q 98 54 98 16 q 124 213 98 106 q 191 540 191 482 q 174 562 191 562 q 70 507 153 562 l 62 509 m 418 698 m 293 -74 m 669 873 l 654 809 l 285 809 l 302 873 l 669 873 z "},"ų":{"ha":772,"x_min":55,"x_max":700,"o":"m 700 122 l 699 113 q 507 -18 543 -9 q 450 -128 450 -104 q 491 -183 450 -183 q 565 -151 533 -183 l 570 -150 l 580 -157 l 581 -161 q 450 -246 524 -246 q 398 -223 416 -246 q 380 -173 380 -199 q 471 -18 380 -111 q 451 26 451 -7 q 508 304 451 68 l 504 307 l 454 235 q 288 56 385 135 q 146 -23 192 -23 q 98 54 98 -23 q 124 213 98 106 q 191 540 191 483 q 174 562 191 562 q 70 507 153 562 l 62 509 l 55 525 l 57 534 q 189 621 122 585 q 280 656 256 656 q 311 621 311 656 q 291 526 311 606 q 204 106 204 171 q 224 76 204 76 q 407 221 277 76 q 577 631 537 367 q 670 653 585 633 l 680 643 q 664 587 679 636 q 588 292 617 434 q 558 106 558 151 q 580 75 558 75 q 685 140 597 75 l 692 138 l 700 122 z "},"ẃ":{"ha":1003,"x_min":23,"x_max":966,"o":"m 27 474 l 23 479 l 78 635 q 136 646 107 646 q 222 640 159 646 q 302 634 277 634 q 376 646 343 634 l 389 627 q 203 192 203 399 q 281 50 203 50 q 417 174 338 50 q 548 622 495 298 q 650 649 599 629 l 660 641 q 559 173 559 317 q 583 85 559 119 q 647 51 606 51 q 809 189 738 51 q 880 459 880 326 q 812 559 880 559 q 777 550 795 559 l 769 551 l 758 564 l 758 571 q 829 644 799 609 q 868 650 849 650 q 966 514 966 650 q 903 273 966 404 q 750 59 840 142 q 585 -24 660 -24 q 500 15 531 -24 q 470 112 470 54 q 484 239 470 172 l 438 157 q 335 25 392 74 q 227 -24 277 -24 q 137 26 171 -24 q 103 156 103 76 q 145 342 103 248 q 310 570 188 436 q 212 565 295 565 l 182 566 q 98 559 138 566 q 52 478 86 542 l 45 474 l 27 474 m 766 968 l 532 745 l 523 745 l 508 758 l 507 764 q 589 876 530 794 l 661 984 l 757 986 l 766 968 z "}}}
